<?xml version="1.0" encoding="UTF-8" standalone="no"?>
<!-- Created with Inkscape (http://www.inkscape.org/) -->

<svg
   width="210.30147mm"
   height="263.01077mm"
   viewBox="0 0 210.30147 263.01077"
   version="1.1"
   id="svg5"
   inkscape:version="1.1.1 (c3084ef, 2021-09-22)"
   sodipodi:docname="beer.svg"
   xmlns:inkscape="http://www.inkscape.org/namespaces/inkscape"
   xmlns:sodipodi="http://sodipodi.sourceforge.net/DTD/sodipodi-0.dtd"
   xmlns="http://www.w3.org/2000/svg"
   xmlns:svg="http://www.w3.org/2000/svg">
  <sodipodi:namedview
     id="namedview7"
     pagecolor="#ffffff"
     bordercolor="#666666"
     borderopacity="1.0"
     inkscape:pageshadow="2"
     inkscape:pageopacity="0.0"
     inkscape:pagecheckerboard="true"
     inkscape:document-units="mm"
     showgrid="false"
     inkscape:zoom="0.77771465"
     inkscape:cx="-131.79641"
     inkscape:cy="575.40385"
     inkscape:window-width="3440"
     inkscape:window-height="1301"
     inkscape:window-x="0"
     inkscape:window-y="25"
     inkscape:window-maximized="0"
     inkscape:current-layer="layer1"
     fit-margin-top="0"
     fit-margin-left="0"
     fit-margin-right="0"
     fit-margin-bottom="0" />
  <defs
     id="defs2" />
  <g
     inkscape:label="Layer 1"
     inkscape:groupmode="layer"
     id="layer1"
     transform="translate(-0.09304516,-0.03321862)">
    <path
       style="fill:#000000;stroke-width:0.49557"
       d="m 37.676508,262.18931 c -7.651675,-1.9906 -14.162862,-8.40283 -16.854628,-16.59842 l -1.114814,-3.39427 -0.0098,-49.40198 -0.0098,-49.40198 -3.749524,0.27622 c -2.80633,0.20675 -4.365926,0.0561 -6.1999533,-0.59856 -3.1915968,-1.13938 -7.0702643,-4.89034 -8.5222543,-8.24164 L 0.09826018,132.2494 0.0933679,96.704266 C 0.08847563,58.285206 0.10559859,57.981298 2.7174609,50.500333 8.6195604,33.595501 24.76186,21.209364 41.200779,20.97173 l 4.238262,-0.06126 1.283292,-1.990317 C 48.854214,15.613711 55.630343,8.9784083 59.155042,6.7458158 70.428564,-0.39499272 82.945641,-1.8797205 95.041676,2.4890782 99.703583,4.1728421 105.2743,7.4919963 108.40006,10.448272 l 2.24694,2.125107 3.15797,-0.88592 c 9.31464,-2.6130643 19.36662,1.155093 25.24409,9.463167 l 1.00266,1.41731 3.27405,-0.829016 c 8.79078,-2.225891 18.50684,1.562495 24.103,9.397998 3.07963,4.311968 4.35183,8.074054 4.63703,13.71242 0.40535,8.013933 -1.61629,13.980983 -6.64298,19.607329 l -2.80953,3.144717 v 7.534504 7.534504 l 13.26488,0.0073 c 10.14012,0.0061 13.98634,0.19037 16.32749,0.783497 7.8989,2.001181 14.32735,8.259585 17.07403,16.622401 l 1.11482,3.39427 v 48.80835 48.80834 l -1.11482,3.39427 c -2.74668,8.36282 -9.17513,14.62122 -17.07403,16.62241 -2.34115,0.59314 -6.18737,0.7777 -16.32749,0.78351 l -13.26488,0.007 -0.01,10.14699 c -0.01,9.30009 -0.10311,10.43031 -1.1249,13.54128 -2.74669,8.36281 -9.17514,14.62122 -17.07403,16.6224 -4.4353,1.12368 -102.400673,1.10167 -106.727522,-0.024 z M 143.48296,251.8645 c 2.90674,-1.009 6.44036,-4.21041 8.04685,-7.29036 l 1.10612,-2.12064 h -7.72661 -7.72662 l -1.62523,-1.74682 c -1.73897,-1.86904 -2.02588,-3.42504 -1.05418,-5.71722 1.0373,-2.44695 2.47838,-2.8114 11.11653,-2.8114 h 7.91096 v -80.02 -80.020003 h -5.25815 -5.25815 l -0.005,19.780232 c -0.005,19.739881 -0.007,19.785561 -1.1403,22.401571 -1.33424,3.0798 -3.85658,5.94597 -6.51594,7.40416 l -1.89936,1.04147 v 42.67217 42.67216 l -1.39728,1.50179 c -1.03436,1.11187 -1.85066,1.50181 -3.14375,1.50181 -1.29309,0 -2.10939,-0.38994 -3.14385,-1.50181 l -1.39728,-1.50179 v -42.67216 -42.67217 l -1.89935,-1.04147 c -2.43297,-1.33405 -4.97263,-4.0694 -6.33958,-6.82808 -1.02729,-2.07322 -1.0872,-2.86799 -1.34472,-17.839932 -0.24726,-14.376558 -0.35109,-15.864799 -1.25785,-18.029361 -1.61918,-3.865263 -5.29125,-5.859574 -11.89354,-6.459428 L 98.114585,72.247216 95.110241,74.9109 c -10.913658,9.676147 -26.184559,9.691215 -36.985193,0.03657 -1.554422,-1.389503 -3.149255,-2.53224 -3.544073,-2.53942 -0.394807,-0.0073 -1.211107,0.986332 -1.813994,2.207798 -3.767552,7.633157 -12.112963,14.465915 -20.420752,16.719369 L 29.00806,92.240653 28.886854,162.20939 28.765648,232.1781 H 65.07391 c 27.131936,0 36.62505,0.15514 37.56165,0.6138 0.68936,0.33759 1.5599,1.25089 1.93455,2.02957 1.11002,2.30714 0.84441,3.96297 -0.94407,5.88525 l -1.62525,1.74682 H 65.853323 29.705759 l 0.941946,1.98449 c 1.334637,2.81181 5.437615,6.60682 8.092945,7.48548 1.858979,0.61514 10.311469,0.7397 52.234923,0.76969 45.622707,0.0327 50.235857,-0.0401 52.507387,-0.82866 z m -26.40075,-10.47969 c -1.09814,-0.68746 -2.27055,-3.16909 -2.27055,-4.80606 0,-0.71601 0.6233,-2.05162 1.38512,-2.96803 1.14625,-1.37884 1.73174,-1.66619 3.39502,-1.66619 1.66326,0 2.24876,0.28735 3.39502,1.66619 0.76181,0.91641 1.38511,2.25202 1.38511,2.96803 0,1.70318 -1.20427,4.16512 -2.36359,4.83199 -1.16658,0.67103 -3.83523,0.65698 -4.92613,-0.0259 z m -67.795225,-31.7732 -1.39727,-1.50179 v -50.93674 c 0,-35.505 0.156467,-51.25098 0.516489,-51.97399 0.838475,-1.6839 3.553491,-2.65362 5.498194,-1.9638 3.281052,1.16385 3.067577,-2.58201 3.067577,53.829 v 51.04553 l -1.397269,1.50179 c -1.034472,1.11187 -1.850772,1.50181 -3.143861,1.50181 -1.293089,0 -2.109389,-0.38994 -3.14386,-1.50181 z m 38.241114,0 -1.39727,-1.50179 v -50.93674 c 0,-35.505 0.156467,-51.25098 0.516489,-51.97399 0.838462,-1.6839 3.553478,-2.65362 5.498181,-1.9638 3.281051,1.16385 3.06759,-2.58201 3.06759,53.829 v 51.04553 l -1.39727,1.50179 c -1.034471,1.11187 -1.850771,1.50181 -3.14386,1.50181 -1.293089,0 -2.109389,-0.38994 -3.14386,-1.50181 z m 103.651971,1.23365 c 3.24957,-1.03721 7.24457,-4.94549 8.77456,-8.58408 l 1.13853,-2.70764 v -47.26703 -47.26703 l -1.13853,-2.70764 c -1.52999,-3.638593 -5.52499,-7.546872 -8.77456,-8.584082 -1.93218,-0.61672 -5.20887,-0.781932 -15.50841,-0.781932 h -13.05861 v 5.114492 5.114482 l 13.18742,0.15168 13.18742,0.15168 1.153,1.44152 1.15298,1.44153 v 45.9253 45.9253 l -1.15298,1.44153 -1.153,1.44152 -13.18742,0.15167 -13.18742,0.15169 v 5.11448 5.11448 h 13.05861 c 10.29954,0 13.57623,-0.1652 15.50841,-0.78192 z m -8.96846,-58.55875 v -38.7898 h -9.79928 -9.79928 v 38.7898 38.78979 h 9.79928 9.79928 z M 17.454908,132.48291 c 0.683671,-0.578 1.464343,-1.90738 1.734849,-2.95419 0.299896,-1.16058 0.492848,-10.08611 0.494474,-22.87327 0.0012,-14.033591 0.173505,-21.313085 0.519156,-22.00725 0.666536,-1.3386 3.255881,-2.491587 5.595574,-2.491587 1.012358,0 3.009005,-0.368841 4.436986,-0.819664 6.212319,-1.961214 11.088227,-6.125493 14.681113,-12.538407 1.101764,-1.966547 2.703947,-3.973198 3.897038,-4.880837 1.803377,-1.371904 2.402424,-1.539635 5.450481,-1.526059 3.9022,0.01737 5.728534,0.849739 9.638598,4.392784 1.314541,1.191146 3.573157,2.7674 5.019142,3.502794 2.312247,1.175932 3.233939,1.337071 7.648225,1.337071 4.40559,0 5.340528,-0.162729 7.648225,-1.331163 1.445985,-0.732141 3.812157,-2.42713 5.258154,-3.766647 4.271469,-3.956944 4.797315,-4.157233 10.755307,-4.096496 11.80837,0.12035 18.89895,4.395536 22.4922,13.561369 0.80184,2.045337 0.93532,4.138961 1.15743,18.153441 l 0.25107,15.841461 1.56109,1.49835 c 2.10951,2.02472 4.3288,2.02461 6.4381,-3.2e-4 l 1.56108,-1.49864 0.23902,-23.978132 0.239,-23.978133 1.34119,-1.239371 c 1.66395,-1.537617 3.35991,-1.566543 6.36577,-0.108609 3.60127,1.746762 9.11125,1.639486 12.68536,-0.246986 5.19384,-2.741386 8.13386,-7.694794 8.13386,-13.70406 0,-4.758194 -1.36597,-8.035773 -4.72355,-11.333969 -4.67513,-4.592431 -10.42698,-5.297383 -16.64738,-2.040319 -2.98923,1.565185 -3.23981,1.61293 -4.91355,0.936159 -1.41268,-0.571215 -2.07403,-1.341254 -3.32309,-3.869252 -2.94349,-5.95736 -7.94113,-9.439763 -13.46529,-9.382718 -2.0998,0.02169 -3.15775,0.344313 -7.52933,2.296118 -1.20564,0.538291 -2.48695,0.761181 -3.22743,0.561429 -0.67541,-0.182197 -2.8947,-1.966543 -4.93178,-3.965214 -6.133138,-6.017518 -14.689649,-9.704098 -22.523108,-9.704098 -10.899214,0 -21.82404,6.413727 -28.038413,16.460738 -1.209786,1.955921 -2.454784,3.730333 -2.766666,3.943139 -0.31187,0.212807 -3.255869,0.416657 -6.542205,0.453001 -4.525927,0.05005 -6.897469,0.339116 -9.777746,1.191786 C 22.754133,35.69158 14.08286,44.905479 10.546737,57.50391 9.4839884,61.290285 9.4647495,61.853264 9.2834174,94.487112 c -0.1285078,23.124648 -0.02544,33.712158 0.3410281,35.037378 1.0309485,3.72795 5.1012955,5.26573 7.8304625,2.95838 z"
       id="path21" />
  </g>
</svg>
