<?xml version="1.0" encoding="UTF-8" standalone="no"?>
<svg
   id="Layer_1"
   enable-background="new 0 0 512.016 512.016"
   height="511.99899"
   viewBox="0 0 425.18034 512.01499"
   width="425.16705"
   version="1.1"
   sodipodi:docname="beermug.svg"
   inkscape:version="1.1.1 (c3084ef, 2021-09-22)"
   xmlns:inkscape="http://www.inkscape.org/namespaces/inkscape"
   xmlns:sodipodi="http://sodipodi.sourceforge.net/DTD/sodipodi-0.dtd"
   xmlns="http://www.w3.org/2000/svg"
   xmlns:svg="http://www.w3.org/2000/svg">
  <defs
     id="defs16" />
  <sodipodi:namedview
     id="namedview14"
     pagecolor="#ffffff"
     bordercolor="#666666"
     borderopacity="1.0"
     inkscape:pageshadow="2"
     inkscape:pageopacity="0.0"
     inkscape:pagecheckerboard="0"
     showgrid="false"
     inkscape:zoom="1.7050781"
     inkscape:cx="212.60023"
     inkscape:cy="263.0378"
     inkscape:window-width="1312"
     inkscape:window-height="1081"
     inkscape:window-x="0"
     inkscape:window-y="25"
     inkscape:window-maximized="0"
     inkscape:current-layer="Layer_1" />
  <g
     id="XMLID_1927_"
     transform="translate(-43.415668)">
    <g
       id="XMLID_310_">
      <path
         id="XMLID_328_"
         d="m 434.598,129.861 h -63.176 v -15.846 c 0,-3.185 -1.495,-6.017 -3.815,-7.848 2.432,-4.622 3.815,-9.876 3.815,-15.45 0,-27.397 -21.956,-50.143 -48.944,-50.703 -7.399,-0.149 -14.622,1.305 -21.276,4.255 -8.201,-6.811 -18.309,-11.017 -29.156,-12.031 -7.868,-0.735 -15.643,0.227 -22.913,2.794 -5.099,-7.269 -11.389,-13.74 -18.516,-19.009 -4.44,-3.281 -10.703,-2.343 -13.986,2.099 -3.283,4.442 -2.343,10.703 2.098,13.985 7.301,5.396 13.439,12.458 17.753,20.423 1.284,2.372 3.472,4.124 6.067,4.859 2.597,0.737 5.377,0.392 7.714,-0.954 6.01,-3.459 12.895,-4.938 19.92,-4.283 8.508,0.795 16.273,4.706 21.865,11.014 3.292,3.713 8.81,4.451 12.963,1.729 5.071,-3.321 10.952,-5.026 17.051,-4.885 16.189,0.336 29.36,14.111 29.36,30.707 0,7.282 -5.885,13.212 -13.148,13.298 H 69.148 C 64.606,97.198 62.716,89.451 63.667,81.365 65.316,67.347 75.531,55.899 89.086,52.876 c 8.615,-1.921 17.082,-0.686 24.485,3.577 2.336,1.344 5.118,1.689 7.716,0.954 2.595,-0.736 4.783,-2.489 6.067,-4.862 4.312,-7.968 10.452,-15.034 17.756,-20.435 4.441,-3.283 5.379,-9.545 2.096,-13.986 -3.284,-4.44 -9.544,-5.379 -13.986,-2.096 -7.133,5.273 -13.427,11.753 -18.525,19.027 -9.483,-3.338 -19.838,-3.959 -29.964,-1.7 -21.839,4.87 -38.287,23.225 -40.929,45.672 -1.108,9.419 0.177,18.514 3.73,26.918 -2.489,1.819 -4.112,4.752 -4.112,8.07 v 368 c 0,16.542 13.458,30 30,30 h 268 c 16.542,0 30,-13.458 30,-30 v -33.514 l 89.929,-114.659 c 4.674,-5.958 7.247,-13.41 7.247,-20.983 V 163.861 c 0.002,-18.748 -15.25,-34 -33.998,-34 z m -217.176,-5.798 57,-0.018 v 53.817 h -57 z m -77,0.025 57,-0.019 v 53.792 h -57 z m -77,-0.022 c 0.075,0.006 0.057,0.012 0,0.018 z m 0,0.046 c 0.366,0 57,-0.018 57,-0.018 v 53.767 h -57 z m 0,137.749 h 57 v 96.052 h -57 z m 57,230.155 h -47 c -5.514,0 -10,-4.486 -10,-10 v -40.103 h 57 z m 77,0 h -57 v -50.103 h 57 z m 76.999,0 h -57 v -50.103 h 57 z m 77.001,-10 c 0,5.514 -4.486,10 -10,10 h -47.001 v -50.103 h 57.001 z m 0,-60.103 h -288 v -44 h 288 z m -211,-64 v -96.052 h 57 v 96.052 z m 77,0 v -96.052 h 57 v 96.052 z m 134,0 h -57.001 v -96.052 h 57.001 z m 0,-116.052 h -288 v -44 h 288 z m 0,-64 h -57.001 v -53.824 l 57.001,-0.022 z m 20,20 h 29.176 v 103.255 l -29.176,37.201 z m 77.176,114.998 c 0,3.118 -1.06,6.187 -2.983,8.641 l -74.192,94.594 v -45.369 l 47.044,-59.983 c 1.381,-1.761 2.132,-3.934 2.132,-6.171 v -116.71 c 0,-5.522 -4.478,-10 -10,-10 h -39.176 v -28 h 63.176 c 7.72,0 14,6.28 14,14 v 148.998 z" />
      <path
         id="XMLID_706_"
         d="m 181.92,20 c 2.63,0 5.21,-1.061 7.07,-2.931 1.86,-1.859 2.93,-4.43 2.93,-7.069 0,-2.631 -1.07,-5.21 -2.93,-7.07 C 187.13,1.07 184.56,0 181.92,0 c -2.63,0 -5.21,1.069 -7.07,2.93 -1.86,1.861 -2.93,4.439 -2.93,7.07 0,2.64 1.07,5.21 2.93,7.069 1.86,1.87 4.44,2.931 7.07,2.931 z" />
    </g>
  </g>
</svg>
