<?xml version="1.0" encoding="UTF-8" standalone="no"?>
<!-- Created with Inkscape (http://www.inkscape.org/) -->

<svg
   version="1.1"
   id="svg1322"
   width="511.20416"
   height="495.85211"
   viewBox="0 0 511.20416 495.85212"
   sodipodi:docname="chicken.svg"
   inkscape:version="1.1.1 (c3084ef, 2021-09-22)"
   xmlns:inkscape="http://www.inkscape.org/namespaces/inkscape"
   xmlns:sodipodi="http://sodipodi.sourceforge.net/DTD/sodipodi-0.dtd"
   xmlns="http://www.w3.org/2000/svg"
   xmlns:svg="http://www.w3.org/2000/svg">
  <defs
     id="defs1326" />
  <sodipodi:namedview
     id="namedview1324"
     pagecolor="#ffffff"
     bordercolor="#666666"
     borderopacity="1.0"
     inkscape:pageshadow="2"
     inkscape:pageopacity="0.0"
     inkscape:pagecheckerboard="0"
     showgrid="false"
     inkscape:zoom="1.7050781"
     inkscape:cx="132.54525"
     inkscape:cy="254.24055"
     inkscape:window-width="3440"
     inkscape:window-height="1301"
     inkscape:window-x="0"
     inkscape:window-y="25"
     inkscape:window-maximized="1"
     inkscape:current-layer="g1328" />
  <g
     inkscape:groupmode="layer"
     inkscape:label="Image"
     id="g1328"
     transform="translate(27.947463,-9.1514528)">
    <path
       style="fill:#000000"
       d="m 79.003113,503.5099 c -44.208949,-7.93023 -82.1562034,-39.07097 -98.376791,-80.73117 -6.866599,-17.63585 -8.631267,-28.06331 -8.572372,-50.65431 0.05807,-22.27347 1.83069,-35.84138 6.663057,-51 4.090931,-12.83282 8.689896,-21.68297 22.3624196,-43.03378 13.6881784,-21.37526 22.8826054,-39.74796 27.9274194,-55.80575 2.014828,-6.41326 4.969816,-15.85029 6.56664,-20.97118 1.596824,-5.12089 4.512092,-11.73444 6.478375,-14.69677 3.501206,-5.27479 10.670009,-11.00735 15.180982,-12.13953 1.905175,-0.47817 2.268881,-1.23584 2.261631,-4.7114 -0.01153,-5.52692 -3.904267,-71.898038 -4.233437,-72.18003 -0.141858,-0.121526 -2.69529,-1.44561 -5.674293,-2.942409 -16.041699,-8.060144 -26.393606,-28.405137 -23.386261,-45.9619 1.738748,-10.150737 5.368854,-16.851896 13.545926,-25.005718 5.028732,-5.014435 9.405862,-8.282321 14.256704,-10.643801 6.804105,-3.3123648 7.33582,-3.4063008 19,-3.3566688 12.93999,0.05506 17.86665,1.4402718 25.30736,7.1155738 l 3.309577,2.524334 3.69153,-2.548772 c 8.59876,-5.9369 12.85002,-7.1421968 25.19154,-7.1421968 11.22048,0 11.69038,0.0909 19.33246,3.7398718 10.13216,4.837936 18.94602,13.464864 23.74266,23.239101 3.30052,6.725555 3.42488,7.399201 3.42488,18.551862 0,11.321517 -0.08,11.734864 -3.68547,19.029924 -4.36103,8.823956 -11.65024,16.507035 -19.76338,20.831292 l -5.67285,3.023599 -1.73292,33.292178 c -0.95311,18.31069 -1.98318,35.16373 -2.28905,37.45119 -0.5531,4.13638 -0.5315,4.1699 3.96944,6.16089 10.94371,4.84092 17.29954,14.39903 22.63897,34.04526 6.7282,24.75613 15.43821,43.52532 32.08262,69.13483 22.63948,34.83368 28.92399,55.05324 29.03198,93.40637 0.0481,17.09479 -0.86252,25.20502 -4.27736,38.09363 -12.6902,47.8966 -53.8408,85.36671 -103.18297,93.95433 -11.08077,1.92853 -34.180697,1.89327 -45.119017,-0.0689 z m 41.000007,-19.5587 c 15.27992,-2.30471 33.8406,-10.08638 46.78297,-19.61401 25.8013,-18.99383 41.44935,-46.58854 44.73487,-78.88817 1.27405,-12.52507 -0.11426,-35.26355 -2.9449,-48.23309 -3.68315,-16.87558 -6.75061,-23.07157 -28.0169,-56.59151 -13.51909,-21.3088 -22.62868,-41.86071 -29.09249,-65.63483 -3.75684,-13.81775 -6.33789,-18.7904 -10.96891,-21.1327 -3.1832,-1.61002 -6.76266,-1.7437 -40.16518,-1.5 l -36.670552,0.26753 -2.715293,2.5 c -3.587514,3.30306 -5.683911,8.17259 -9.396179,21.82552 -6.57642,24.18666 -15.788322,43.89766 -33.360879,71.38335 -13.5022624,21.11924 -15.9132034,25.54999 -19.4753374,35.79113 -5.203543,14.96019 -6.720545,26.04873 -6.635197,48.5 0.06955,18.29468 0.299708,20.83368 2.699337,29.77735 4.93427701,18.39058 14.375574,35.28414 27.1524694,48.58463 26.312828,27.39112 59.985644,38.7095 98.072171,32.9648 z m -0.17126,-59.28454 c -9.17446,-3.99083 -5.90097,-18.54224 4.17126,-18.54224 5.07512,0 9.5,4.41967 9.5,9.48882 0,4.92822 -1.51396,7.41015 -5.54837,9.09584 -4.06673,1.69919 -4.11977,1.69891 -8.12289,-0.0424 z m 42.78133,-2.93775 c -8.96886,-4.97106 -4.99618,-18.60449 5.42121,-18.60449 1.34044,0 3.89654,1.30395 5.68022,2.89766 8.57672,7.66331 -1.04709,21.27953 -11.10143,15.70683 z M 134.4262,388.20134 c -4.91914,-4.91913 -3.51908,-12.61716 2.84386,-15.63657 4.70281,-2.23163 8.96531,-0.95972 12.03737,3.59188 2.95681,4.38086 2.35675,8.41443 -1.8176,12.21777 -4.19112,3.81862 -9.13747,3.75308 -13.06363,-0.17308 z m 35.8748,-10.12519 c -2.70215,-2.70216 -2.9843,-3.52518 -2.48491,-7.24844 0.71129,-5.30302 4.34802,-8.70329 9.30854,-8.70329 4.60938,0 7.00551,1.37806 8.95664,5.15113 5.18332,10.02343 -7.72352,18.85735 -15.78027,10.8006 z M 123.91631,168.87442 c 0.2771,-1.7875 1.45515,-20.74411 2.61789,-42.12579 1.16274,-21.38169 2.51133,-39.92065 2.99686,-41.1977 1.03414,-2.719977 4.25901,-5.004127 8.47206,-6.000685 16.27521,-3.84975 24.61423,-21.258636 16.9385,-35.361487 -5.25568,-9.656422 -14.52489,-15.334404 -24.7971,-15.189806 -8.006,0.112697 -13.6064,2.947564 -18.2086,9.217019 -4.21234,5.738351 -6.02819,6.908451 -10.72104,6.908451 -3.640417,0 -6.022757,-1.805269 -11.006317,-8.340277 -8.38767,-10.99886 -25.795649,-10.525279 -36.900736,1.003879 -13.564492,14.082479 -8.230041,35.449493 10.26796,41.128063 7.808055,2.39694 10.660086,5.038597 11.349236,10.512079 0.48218,3.829652 4.62645,76.873504 4.59262,80.946254 -0.0134,1.61397 1.69206,1.75 21.940167,1.75 h 21.95468 z m 187.55796,334.8623 c -13.78663,-5.2917 -24.33356,-14.45033 -30.04627,-26.09127 -3.29782,-6.72006 -3.42488,-7.4064 -3.42488,-18.5 0,-11.17002 0.10993,-11.75121 3.60806,-19.07595 4.2625,-8.92523 11.18672,-16.22456 19.69014,-20.75684 l 5.8235,-3.10389 1.73292,-33.29218 c 0.95311,-18.31069 1.98409,-35.16979 2.29107,-37.46466 l 0.55815,-4.17249 -5.49478,-2.59944 c -6.73643,-3.18685 -13.07659,-9.87659 -16.32775,-17.22804 -1.34481,-3.04086 -3.79281,-10.48537 -5.43999,-16.54335 -6.63236,-24.39238 -15.42497,-43.29885 -31.98868,-68.78419 -22.72674,-34.96795 -28.9163,-54.98764 -29.06002,-93.99256 -0.0846,-22.94828 1.08679,-28.91119 6.19857,-31.5546 3.55477,-1.83824 6.26285,-1.83824 9.81762,0 4.60794,2.38286 5.3377,5.6384 4.08122,18.20677 -1.31097,13.11335 0.0146,34.85896 2.94286,48.2756 3.718,17.03526 6.51324,22.6799 28.01107,56.56479 13.51909,21.3088 22.62868,41.86071 29.09249,65.63483 3.75684,13.81775 6.33789,18.7904 10.96891,21.1327 3.1832,1.61002 6.76266,1.7437 40.16518,1.5 l 36.67055,-0.26753 2.67447,-2.5 c 3.84371,-3.59296 4.85564,-5.94469 9.41644,-21.88384 7.57616,-26.47724 15.58564,-43.52039 33.8249,-71.97505 12.28199,-19.16087 16.2597,-26.66058 19.69895,-37.14111 4.72795,-14.40763 5.94736,-23.86573 5.93063,-46 -0.0143,-18.97851 -0.21105,-21.22566 -2.65033,-30.27735 C 454.85904,91.882028 444.35561,74.03731 429.67416,59.918702 419.24537,49.889727 409.21665,43.06839 397.43004,37.986905 360.8326,22.208888 318.91757,26.893654 287.76644,50.243804 c -6.04158,4.528629 -10.03821,5.630714 -14.18717,3.912162 -3.95955,-1.640101 -6.60087,-7.210749 -5.40163,-11.392256 2.46389,-8.591085 29.94431,-23.98828 54.10475,-30.314725 13.41292,-3.5121928 37.34215,-4.3610718 52.3228,-1.856129 52.75263,8.820869 94.05858,48.385146 106.00111,101.531564 3.9009,17.35971 3.44868,46.95871 -1.04588,68.45594 -3.88521,18.58274 -9.02028,29.63031 -26.36293,56.71719 -16.68597,26.06123 -23.60131,40.91609 -30.86427,66.29965 -2.20748,7.71497 -5.2063,16.46318 -6.66405,19.44047 -3.35284,6.8478 -9.78708,13.32136 -15.62801,15.72351 -4.31011,1.77259 -4.53031,2.05786 -4.52565,5.86324 0.007,5.38922 3.90344,71.75896 4.22969,72.03844 0.14185,0.12153 2.69529,1.44561 5.67429,2.94241 16.19758,8.13847 26.58445,28.96991 23.28668,46.70275 -1.749,9.40475 -5.67799,16.44266 -13.62643,24.40867 -9.92774,9.94969 -17.79653,13.64676 -30.26366,14.21906 -10.90401,0.50054 -20.34246,-1.87689 -27.21453,-6.85499 l -4.28148,-3.10149 -3.65848,2.52586 c -7.93137,5.47594 -13.00173,7.00941 -24.15847,7.30648 -7.04823,0.18767 -11.66007,-0.16569 -14.02885,-1.07489 z m 19.52885,-19.14568 c 3.30599,-0.51486 5.23924,-1.91064 11.14253,-8.04478 6.52301,-6.7781 7.48612,-7.42184 11.10397,-7.42184 4.25743,0 6.33555,1.50947 11.63873,8.45392 5.90678,7.73487 18.62402,10.10878 28.18875,5.26196 8.87777,-4.4987 16.35544,-14.8848 16.40406,-22.78438 0.0711,-11.54687 -7.09319,-21.35939 -18.05071,-24.72317 -7.80806,-2.39694 -10.66009,-5.03859 -11.34924,-10.51207 -0.48218,-3.82966 -4.62645,-76.87351 -4.59262,-80.94626 0.0134,-1.61403 -1.69331,-1.75 -21.96642,-1.75 h -21.98095 l -0.44616,2.25 c -0.24539,1.2375 -1.40989,20.25 -2.58779,42.25 -1.29807,24.24451 -2.60692,40.97041 -3.32289,42.46367 -1.27144,2.65175 -3.41926,3.93204 -11.08485,6.60756 -2.69698,0.94133 -6.70658,3.33539 -8.91022,5.32014 -12.21966,11.00586 -10.2326,29.52796 4.24405,39.56029 4.35659,3.01912 11.88571,5.41795 15.46388,4.92689 1.15823,-0.15895 3.90588,-0.56932 6.10588,-0.91193 z M 424.2531,151.04431 c -0.96251,-0.56061 -2.46484,-2.4016 -3.3385,-4.09107 -4.15148,-8.02808 3.79249,-16.85957 12.05857,-13.40578 7.0273,2.93619 8.59927,11.46874 3.00795,16.32696 -2.78353,2.41857 -8.58977,2.99775 -11.72802,1.16989 z m -34.36186,-8.86211 c -6.53077,-2.75576 -8.35404,-11.2457 -3.46504,-16.1347 6.83231,-6.83231 18.67993,-0.49802 16.61901,8.88529 -1.23629,5.62877 -8.0697,9.39479 -13.15397,7.24941 z m 24.72195,-32.45329 c -9.03324,-5.00674 -4.98634,-18.604488 5.53698,-18.604488 3.78904,0 9.35295,5.948829 9.35295,9.999998 0,2.30588 -0.95,4.15 -3.4,6.6 -3.69891,3.69891 -7.29952,4.32706 -11.48993,2.00449 z m -44.36009,-2.6846 c -2.29731,-1.33806 -4.74998,-6.16827 -4.74998,-9.354452 0,-1.393635 1.30395,-3.993255 2.89766,-5.776932 2.36382,-2.645574 3.64307,-3.243049 6.94363,-3.243049 9.65126,0 13.41921,11.503763 5.79167,17.682303 -2.35641,1.90877 -8.1604,2.27789 -10.88298,0.69213 z M 242.19021,85.319703 c -5.99413,-6.256529 -1.78204,-16.195281 6.86364,-16.195281 8.99789,0 13.12942,10.047119 6.75343,16.423112 -3.71921,3.719207 -9.93521,3.615205 -13.61707,-0.227831 z"
       id="path1815" />
  </g>
</svg>
