<?xml version="1.0" encoding="UTF-8" standalone="no"?>
<!-- Created with Inkscape (http://www.inkscape.org/) -->

<svg
   version="1.1"
   id="svg1322"
   width="531.67987"
   height="683.07153"
   viewBox="0 0 531.67987 683.07155"
   sodipodi:docname="chips.svg"
   inkscape:version="1.1.1 (c3084ef, 2021-09-22)"
   xmlns:inkscape="http://www.inkscape.org/namespaces/inkscape"
   xmlns:sodipodi="http://sodipodi.sourceforge.net/DTD/sodipodi-0.dtd"
   xmlns="http://www.w3.org/2000/svg"
   xmlns:svg="http://www.w3.org/2000/svg">
  <defs
     id="defs1326" />
  <sodipodi:namedview
     id="namedview1324"
     pagecolor="#ffffff"
     bordercolor="#666666"
     borderopacity="1.0"
     inkscape:pageshadow="2"
     inkscape:pageopacity="0.0"
     inkscape:pagecheckerboard="0"
     showgrid="false"
     inkscape:zoom="1.7050781"
     inkscape:cx="249.25544"
     inkscape:cy="427.25315"
     inkscape:window-width="3440"
     inkscape:window-height="1301"
     inkscape:window-x="0"
     inkscape:window-y="25"
     inkscape:window-maximized="1"
     inkscape:current-layer="g1328" />
  <g
     inkscape:groupmode="layer"
     inkscape:label="Image"
     id="g1328"
     transform="translate(144.67016,257.47844)">
    <path
       style="fill:#000000;stroke-width:1.33333"
       d="m -119.87668,423.71495 c -2.40629,-0.77113 -6.18768,-3.4665 -8.40308,-5.9897 l -4.02801,-4.58766 0.22054,-38.50248 0.22054,-38.50248 -3.69501,-4.37169 c -2.03226,-2.40443 -4.95011,-7.07168 -6.48413,-10.37168 -2.5719,-5.53272 -2.77148,-8.1287 -2.56275,-33.33334 0.22735,-27.45217 1.39637,-44.60665 7.99587,-117.33334 3.06444,-33.77022 3.56926,-46.02793 3.56926,-86.666668 0,-40.592988 -0.50719,-52.934468 -3.56171,-86.6666695 -6.54902,-72.3234425 -7.83141,-91.1650835 -8.03122,-118.0000025 -0.21821,-29.30519 0.55111,-32.95386 9.07468,-43.03835 l 3.69501,-4.37168 -0.22093,-38.57136 -0.22094,-38.57136 4.40347,-4.69393 c 5.93171,-6.32297 14.28608,-8.54604 22.97446,-6.11345 5.218402,1.46107 7.996232,3.63226 16.412512,12.82826 l 10.130952,11.06953 11.442787,-11.86084 c 10.414907,-10.79542 12.002693,-11.93967 17.676134,-12.73856 10.276093,-1.44699 15.151147,0.98441 27.11144,13.52171 l 10.678147,11.19328 8.4832011,-9.80112 c 9.531267,-11.01202 13.3362139,-13.70233 21.1455339,-14.95109 9.276534,-1.48338 14.5992,1.25193 26.348321,13.54031 l 10.666667,11.15624 8.571173,-10.05422 c 9.263214,-10.86599 12.829987,-13.32302 21.308668,-14.67881 9.281067,-1.4841 15.988694,2.08484 26.676324,14.19371 l 9.29618,10.53241 9.49994,-10.52103 c 18.08233,-20.02587 30.71954,-19.92868 47.98105,0.36903 l 8.66667,10.19107 10,-10.65437 c 18.66425,-19.88561 30.38089,-19.7364 47.95051,0.61064 l 8.61718,9.97938 11.38282,-11.87543 c 10.50922,-10.96402 11.87908,-11.94541 17.84886,-12.78732 11.99462,-1.69159 17.00711,1.09195 30.94967,17.18702 l 6.71904,7.75633 7.93263,-9.23674 c 9.85312,-11.47297 14.93601,-15.08269 22.42707,-15.92704 7.93736,-0.89465 14.54864,1.54253 19.50866,7.19168 l 4.13639,4.7111 -0.22055,38.50248 -0.22053,38.50249 3.69501,4.37168 c 2.03226,2.40443 4.95011,7.07168 6.48412,10.37168 2.56994,5.52848 2.77262,8.14807 2.57912,33.33334 -0.20998,27.332063 -1.31926,43.576597 -8.01224,117.3333325 -3.06444,33.7702275 -3.56925,46.0279345 -3.56925,86.6666695 0,40.638738 0.50481,52.896448 3.56925,86.666668 6.69298,73.75674 7.80226,90.00127 8.01224,117.33334 0.1935,25.18527 -0.009,27.80487 -2.57912,33.33334 -1.53401,3.3 -4.45186,7.96725 -6.48412,10.37168 l -3.69501,4.37169 0.2202,38.44352 0.22021,38.44354 -3.67382,4.36608 c -6.97764,8.29246 -18.48628,10.33868 -28.1413,5.00349 -2.98598,-1.65 -9.21492,-7.40396 -13.84206,-12.78657 l -8.41302,-9.78659 -3.18282,3.78659 c -15.99491,19.02901 -22.31434,22.92448 -34.41977,21.21725 -5.96978,-0.84191 -7.33964,-1.82329 -17.84886,-12.78732 l -11.38282,-11.87543 -8.61718,9.97938 c -17.57612,20.35457 -29.27593,20.49432 -47.95051,0.57278 l -10,-10.66772 -8.66667,10.21668 c -17.24643,20.33091 -29.88813,20.43223 -47.99009,0.3846 l -9.509,-10.53104 -9.38292,10.579 c -10.76608,12.1385 -17.339737,15.64338 -26.571484,14.16716 -8.478681,-1.3558 -12.045454,-3.81282 -21.308668,-14.67881 l -8.571173,-10.05423 -10.666667,11.15626 c -11.749121,12.28837 -17.071787,15.02368 -26.348321,13.5403 -7.80932,-1.24876 -11.6142669,-3.93908 -21.1455339,-14.95109 l -8.4832011,-9.80112 -10.678147,11.23959 c -11.764573,12.38316 -17.295307,15.04693 -27.828294,13.403 -4.73184,-0.73852 -7.14412,-2.54411 -16.95928,-12.69399 l -11.442787,-11.833 -10.081022,11.01497 c -12.536832,13.6983 -19.303152,16.39442 -31.408492,12.51504 z m 91.078529,-44.52557 c 5.228746,-5.36096 13.06844,-7.75372 21.4971741,-6.5612 5.969466,0.84457 7.33641296,1.82468 17.7993739,12.76212 l 11.333333,11.84729 8.666667,-10.09512 c 17.405441,-20.27424 30.298921,-20.27527 48.413135,-0.004 l 9.079801,10.16111 9.244053,-10.47335 c 17.662424,-20.01119 30.020204,-20.02177 47.742004,-0.0409 l 9.32236,10.51072 9.49648,-10.53424 c 10.96121,-12.15904 17.60648,-15.64851 26.95413,-14.15375 7.83424,1.25275 12.49949,4.53987 21.74804,15.3236 l 8,9.32795 10.66667,-11.13525 c 11.75685,-12.27333 16.95685,-14.92771 26.45379,-13.50355 7.43513,1.11496 10.90269,3.61305 21.01789,15.14169 l 8.51667,9.70675 9.64417,-10.55064 c 16.97476,-18.57024 28.09944,-19.54247 44.03415,-3.84828 l 7,6.89433 V 367.67684 345.38906 H 121.16507 -105.50161 l 0.0261,22.33333 0.0261,22.33334 6.714832,-7.09906 c 7.34755,-7.76777 13.2584,-10.90075 20.566375,-10.90075 7.936707,0 13.063427,3.16932 23.392347,14.4611 l 9.879881,10.80085 6.0008,-6.9643 c 3.300427,-3.83038 7.84412,-8.85426 10.097094,-11.16419 z M 354.37682,316.78547 c 6.55504,-3.38975 7.29484,-7.52604 6.30035,-35.22588 -0.80887,-22.52983 -2.70994,-47.50407 -9.75651,-128.17034 -3.09559,-35.43716 -3.09559,-103.229512 0,-138.666674 10.08405,-115.438216 12.03395,-149.794066 8.92736,-157.294036 -3.52489,-8.50984 6.19595,-8.0393 -166.08341,-8.0393 H 36.898397 l -4.533333,-4.53333 c -6.151227,-6.15123 -6.151227,-11.44878 0,-17.6 l 4.533333,-4.53334 H 192.36507 347.83174 v -22.28778 -22.28779 l -7,6.89434 c -6.77852,6.6762 -14.39552,11.02245 -19.29051,11.00713 -8.11157,-0.0254 -13.26617,-3.07513 -23.76883,-14.06295 l -10.726,-11.2215 -8.46317,9.64594 c -10.06073,11.46678 -13.53635,13.96699 -20.96437,15.0809 -9.52478,1.42832 -14.69432,-1.22277 -26.48444,-13.58197 l -10.69731,-11.21365 -7.96936,9.42688 c -9.14583,10.81852 -13.80106,14.11561 -21.71739,15.38148 -9.34765,1.49475 -15.99292,-1.99471 -26.95413,-14.15375 l -9.49648,-10.53424 -9.32236,10.51073 c -17.7218,19.98087 -30.07958,19.97029 -47.742004,-0.0409 l -9.244053,-10.47334 -9.079801,10.16111 c -18.130174,20.28928 -31.037774,20.27717 -48.413135,-0.0454 l -8.666667,-10.13678 -10.666667,11.35164 c -10.83042694,11.52591 -14.9319599,13.91324 -23.903561,13.91324 -7.061853,0 -14.695253,-4.96974 -23.476,-15.28409 l -8.424654,-9.89606 -11.431227,11.84874 c -10.534534,10.91931 -11.93844,11.92033 -17.897267,12.76137 -9.802252,1.3835 -15.715402,-1.01603 -24.187222,-9.81505 l -7.331742,-7.61492 -0.008,22.33334 -0.007,22.33333 h 15.466672 15.466665 l 4.533333,4.53334 c 6.151227,6.15122 6.151227,11.44877 0,17.6 l -4.533333,4.53333 h -16.866215 c -27.730892,0 -28.222382,0.67975 -26.910582,37.21801 0.80961,22.550336 2.3281,42.46775 9.7674,128.115326 3.08132,35.474642 3.07502,103.317804 -0.0129,138.666674 -10.07977,115.38927 -12.03344,149.79527 -8.93109,157.28502 3.52227,8.50351 -13.38898,7.93643 238.41957,7.99493 198.35799,0.0461 230.24448,-0.21117 233.47888,-1.88373 z M 179.03173,287.52259 c -3.26666,-3.26667 -4.53333,-5.72549 -4.53333,-8.8 0,-5.40156 7.41855,-13.33334 12.4706,-13.33334 7.98437,0 14.19607,6.15527 14.19607,14.06713 0,5.18286 -7.84862,12.59954 -13.33334,12.59954 -3.0745,0 -5.53333,-1.26666 -8.8,-4.53333 z m 60.00001,0 c -3.26667,-3.26667 -4.53334,-5.72549 -4.53334,-8.8 0,-3.07451 1.26667,-5.53334 4.53334,-8.8 l 4.53333,-4.53334 h 40.19955 c 43.6232,0 45.97571,0.34928 49.14087,7.29608 2.71038,5.94863 1.91012,9.98673 -2.94042,14.83726 l -4.53333,4.53333 H 284.4984 243.56507 Z M 56.675491,191.31923 c -36.869534,-7.3264 -68.408895,-30.43838 -83.601936,-61.26331 -7.469227,-15.1542 -10.57516,-28.66442 -10.57516,-46.000008 0,-48.973402 32.0282541,-89.1479229 83.624216,-104.89375 10.657667,-3.252454 13.684681,-3.57524 33.709121,-3.59452 26.234108,-0.02533 35.812468,2.06728 56.666668,12.37984 27.51319,13.6054673 48.77808,37.287388 56.96677,63.441762 1.6072,5.133334 3.03556,9.521734 3.17415,9.752014 0.1386,0.230267 6.6914,-0.63056 14.56181,-1.912947 12.18422,-1.98528 15.91455,-2.09772 25.11311,-0.757027 18.92612,2.758521 32.36768,11.890601 39.31568,26.710788 3.19568,6.816427 3.53047,9.012907 3.48644,22.873848 -0.0453,14.25117 -0.35152,16.03909 -4.33924,25.33333 -20.1747,47.0216 -75.62136,68.27654 -132.89449,50.9438 l -7.94911,-2.40565 -7.97411,3.22088 c -18.97793,7.66553 -48.520731,10.29684 -69.283919,6.17095 z M 95.440239,165.89741 C 98.02548,165.20426 97.379,164.43948 90.106906,159.58809 78.837039,152.06969 63.580158,137.34545 57.273118,127.90058 49.251758,115.8885 46.137624,104.99444 46.722371,90.991179 47.534878,71.533205 56.052118,58.008618 72.792972,49.593471 c 9.447,-4.748747 14.273814,-5.849187 25.375081,-5.785134 14.987197,0.0864 27.102897,4.179747 43.663677,14.751761 7.4877,4.779973 17.57075,8.16248 24.33186,8.16248 5.48985,0 5.37378,-0.769573 -2.60234,-17.255907 C 153.95525,29.611443 134.81916,13.65075 111.16507,5.7649628 101.56852,2.5656693 98.49192,2.2012426 80.498399,2.132416 61.361598,2.059216 59.994212,2.2362826 48.816785,6.2355628 32.940584,11.916003 23.651037,17.67155 12.52229,28.722577 -3.1660709,44.301404 -11.152404,62.967311 -11.152404,84.055912 c 0,38.373248 28.922628,71.562488 70.317469,80.690568 8.25464,1.82025 31.077988,2.54438 36.275174,1.15093 z m 104.941411,-3.84032 c 13.79652,-2.92279 25.08287,-8.78676 34.71645,-18.03739 18.93426,-18.18161 24.37186,-42.31441 11.98485,-53.190361 -9.11891,-8.006507 -21.42052,-8.515094 -47.91788,-1.981054 -11.78095,2.905081 -17.81472,3.621227 -30.66667,3.639814 -18.06556,0.02613 -26.55872,-2.23412 -38.73525,-10.308387 C 119.27501,75.225045 112.34652,72.060538 104.38569,70.588898 85.282666,67.057511 69.666145,80.734379 73.023345,98.055912 c 2.562507,13.221368 14.659588,27.962008 32.917135,40.110458 30.71921,20.44039 67.18459,29.665 94.44117,23.89072 z M -27.634938,-155.14409 c -4.988654,-4.98866 -5.729547,-9.28587 -2.633334,-15.2733 6.258681,-12.10294 24.7666681,-6.71712 24.7666681,7.20708 0,5.18287 -7.8486141,12.59955 -13.3333341,12.59955 -3.074507,0 -5.533333,-1.26667 -8.8,-4.53333 z"
       id="path3519" />
  </g>
</svg>
