<?xml version="1.0" encoding="UTF-8" standalone="no"?>
<svg
   id="Layer_1"
   enable-background="new 0 0 512 512"
   height="511.99869"
   viewBox="0 0 396.03503 511.99869"
   width="396.03503"
   version="1.1"
   sodipodi:docname="cocktail2.svg"
   inkscape:version="1.1.1 (c3084ef, 2021-09-22)"
   xmlns:inkscape="http://www.inkscape.org/namespaces/inkscape"
   xmlns:sodipodi="http://sodipodi.sourceforge.net/DTD/sodipodi-0.dtd"
   xmlns="http://www.w3.org/2000/svg"
   xmlns:svg="http://www.w3.org/2000/svg">
  <defs
     id="defs16" />
  <sodipodi:namedview
     id="namedview14"
     pagecolor="#ffffff"
     bordercolor="#666666"
     borderopacity="1.0"
     inkscape:pageshadow="2"
     inkscape:pageopacity="0.0"
     inkscape:pagecheckerboard="0"
     showgrid="false"
     inkscape:zoom="1.7050781"
     inkscape:cx="197.93814"
     inkscape:cy="263.0378"
     inkscape:window-width="1312"
     inkscape:window-height="1081"
     inkscape:window-x="0"
     inkscape:window-y="25"
     inkscape:window-maximized="0"
     inkscape:current-layer="Layer_1" />
  <g
     id="XMLID_253_"
     transform="translate(-57.98273,-3.0989925e-4)">
    <g
       id="XMLID_404_">
      <path
         id="XMLID_708_"
         d="m 451.089,46.05 c -3.906,-3.905 -10.237,-3.905 -14.142,0 l -18.895,18.894 c -6.751,-4.213 -14.715,-6.656 -23.242,-6.656 -24.284,0 -44.04,19.756 -44.04,44.04 0,4.926 0.825,9.66 2.324,14.086 H 212.414 L 204.538,102.773 315.47,38.727 c 3.735,-2.156 5.667,-6.464 4.792,-10.688 -0.875,-4.223 -4.358,-7.41 -8.642,-7.906 L 138.377,0.067 C 133.993,-0.44 129.8,1.982 128.048,6.03 L 58.805,166.096 c -1.712,3.958 -0.694,8.568 2.526,11.437 1.877,1.672 4.256,2.533 6.654,2.533 1.715,0 3.44,-0.44 4.998,-1.34 l 114.236,-65.954 9.894,17.137 c 10.608,41.131 6.126,84.695 -12.669,122.783 -10.845,21.979 -14.312,47.345 -9.762,71.428 8.18,43.297 40.232,77.526 82.442,88.745 v 36.622 l -76.193,31.881 c -7.089,2.967 -10.984,10.301 -9.471,17.835 1.513,7.534 7.937,12.796 15.621,12.796 h 203.107 c 7.688,0 14.111,-5.264 15.623,-12.801 1.511,-7.538 -2.388,-14.871 -9.481,-17.833 l -76.14,-31.806 v -36.694 c 25.333,-6.754 47.511,-21.996 62.931,-43.394 3.229,-4.48 2.214,-10.73 -2.267,-13.959 -4.48,-3.23 -10.73,-2.215 -13.959,2.267 -13.698,19.008 -33.863,32.127 -56.78,36.94 -2.471,0.519 -4.989,0.943 -7.492,1.282 l -27.949,0.003 c -2.52,-0.34 -5.047,-0.766 -7.521,-1.285 -37.183,-7.809 -65.767,-36.979 -72.82,-74.313 -3.75,-19.847 -0.893,-40.751 8.045,-58.864 5.867,-11.891 10.475,-24.262 13.818,-36.917 h 144.875 c 3.342,12.655 7.951,25.026 13.818,36.917 2.869,5.814 5.139,11.947 6.747,18.227 1.37,5.35 6.819,8.577 12.167,7.208 5.35,-1.37 8.577,-6.817 7.208,-12.167 -1.951,-7.621 -4.705,-15.062 -8.187,-22.118 C 375.976,218.547 370.634,180 377.35,142.749 c 5.357,2.323 11.26,3.618 17.461,3.618 24.284,0 44.04,-19.756 44.04,-44.04 0,-8.527 -2.443,-16.49 -6.656,-23.241 l 18.894,-18.894 c 3.905,-3.905 3.905,-10.237 0,-14.142 z M 279.289,36.522 226.171,67.19 171.228,24.005 Z m -190.126,109.769 43.191,-99.843 9.927,69.175 z m 61.508,-113.005 56.84,44.677 -46.57,26.887 z M 369.901,492 H 207.336 l 63.647,-26.632 c 3.719,-1.556 6.14,-5.193 6.14,-9.225 v -40.139 l 23.066,-0.002 v 40.218 c 0,4.034 2.423,7.672 6.146,9.227 z m -147.166,-317.71 17.514,30.336 h -19.862 c 1.564,-10.032 2.345,-20.174 2.348,-30.336 z m 40.609,30.336 -39.382,-68.212 h 134.217 c -4.412,22.609 -4.808,45.69 -1.298,68.212 z m 131.467,-78.259 c -13.256,0 -24.04,-10.784 -24.04,-24.04 0,-13.255 10.784,-24.04 24.04,-24.04 13.255,0 24.04,10.784 24.04,24.04 -10e-4,13.256 -10.785,24.04 -24.04,24.04 z" />
      <path
         id="XMLID_729_"
         d="m 392.76,312.26 c -2.63,0 -5.21,1.07 -7.07,2.93 -1.86,1.87 -2.93,4.44 -2.93,7.07 0,2.64 1.07,5.21 2.93,7.07 1.86,1.87 4.44,2.93 7.07,2.93 2.63,0 5.21,-1.06 7.07,-2.93 1.86,-1.86 2.93,-4.44 2.93,-7.07 0,-2.63 -1.07,-5.2 -2.93,-7.07 -1.86,-1.86 -4.44,-2.93 -7.07,-2.93 z" />
    </g>
  </g>
</svg>
