<svg id="Capa_1" enable-background="new 0 0 512.004 512.004" height="512" viewBox="0 0 512.004 512.004" width="512" xmlns="http://www.w3.org/2000/svg"><path id="XMLID_787_" d="m507.003 106.881-89.268-51.539c-2.303-1.33-5.04-1.687-7.606-.994-2.567.693-4.752 2.38-6.073 4.688l-9.972 17.426c-26.61 46.502-55.404 96.687-77.77 135.541h-110.612l-34.353-59.5c42.903-27.579 73.584-69.535 86.875-119.138 1.43-5.335-1.736-10.818-7.071-12.248-.863-.231-1.729-.33-2.581-.331-.003-.003-.005-.007-.008-.01l-153.255.02-9.119-15.793c-2.761-4.783-8.877-6.421-13.66-3.66s-6.422 8.877-3.66 13.66l9.119 15.794-76.646 132.713c.002.002.005.004.007.006-.427.741-.775 1.542-1.007 2.407-1.43 5.335 1.736 10.818 7.071 12.248 17.643 4.728 35.546 7.066 53.335 7.066 32.224 0 64.058-7.701 93.267-22.755l28.591 49.521h-107.396c-3.928 0-7.492 2.299-9.111 5.878-12.229 27.031-18.43 55.895-18.43 85.789 0 27.225 5.175 53.703 15.381 78.701 2.087 5.113 7.921 7.564 13.038 5.479 5.112-2.088 7.565-7.925 5.478-13.038-9.221-22.586-13.896-46.521-13.896-71.141 0-16.297 2.049-32.247 6.088-47.7 16.772 12.588 37.067 19.4 58.411 19.4 22.855 0 44.51-7.805 61.921-22.155 35.852 29.482 87.975 29.482 123.826 0 17.411 14.351 39.065 22.155 61.921 22.155 21.344 0 41.639-6.812 58.411-19.4 4.039 15.453 6.088 31.403 6.088 47.7 0 103.848-84.486 188.333-188.333 188.333-46.354 0-90.898-16.991-125.43-47.842-4.119-3.681-10.441-3.323-14.119.794-3.68 4.119-3.324 10.44.795 14.12 38.201 34.131 87.479 52.928 138.754 52.928 114.875 0 208.333-93.458 208.333-208.333 0-29.894-6.201-58.757-18.43-85.789-1.619-3.579-5.184-5.878-9.111-5.878h-51.27c13.736-23.906 29.054-50.607 45.67-79.607l45.808 26.447c2.296 1.326 5.025 1.685 7.588.999 2.563-.687 4.746-2.362 6.072-4.659l20-34.641c2.76-4.784 1.122-10.9-3.661-13.662zm-345.669 28.275-44.478-77.038 80.473 46.461c-10.533 11.584-22.593 21.862-35.995 30.577zm48.775-46.293-83.261-48.071 108.203-.014c-5.975 17.355-14.387 33.512-24.942 48.085zm-184.688 72.945 54.115-93.701v96.143c-17.899 1.854-36.098 1.061-54.115-2.442zm74.115-.768v-92.922l44.478 77.038c-14.248 7.249-29.18 12.554-44.478 15.884zm-19.162 74.496c.459-1.181.923-2.36 1.407-3.533h105.952c-.247.203-.487.418-.718.649-29.246 29.246-76.226 30.206-106.641 2.884zm120.783-2.884c-.231-.231-.471-.445-.718-.649h111.128c-.247.203-.488.418-.719.649-30.242 30.241-79.449 30.241-109.691 0zm230.474 2.884c-30.416 27.321-77.395 26.361-106.641-2.884-.231-.231-.471-.445-.718-.649h43.969 61.982c.485 1.173.949 2.353 1.408 3.533zm46.711-99.014-45.837-26.464c-2.302-1.329-5.039-1.687-7.604-.995-2.566.692-4.752 2.378-6.073 4.684-20.301 35.441-38.771 67.637-54.899 95.695l-1.472 2.56h-23.068c21.434-37.259 47.663-82.982 72.055-125.607l4.985-8.713 71.914 41.519z"/><path id="XMLID_1101_" d="m93.962 408.053c-2.641 0-5.21 1.06-7.08 2.92-1.86 1.86-2.92 4.44-2.92 7.07 0 2.64 1.06 5.21 2.92 7.07 1.87 1.87 4.439 2.93 7.08 2.93 2.63 0 5.21-1.06 7.069-2.93 1.86-1.86 2.931-4.44 2.931-7.07s-1.07-5.2-2.931-7.07c-1.868-1.86-4.439-2.92-7.069-2.92z"/></svg>