<?xml version="1.0" encoding="UTF-8" standalone="no"?>
<!-- Created with Inkscape (http://www.inkscape.org/) -->

<svg
   width="144.46809mm"
   height="144.35878mm"
   viewBox="0 0 144.46809 144.35878"
   version="1.1"
   id="svg5"
   inkscape:version="1.1.1 (c3084ef, 2021-09-22)"
   sodipodi:docname="drawing.svg"
   xmlns:inkscape="http://www.inkscape.org/namespaces/inkscape"
   xmlns:sodipodi="http://sodipodi.sourceforge.net/DTD/sodipodi-0.dtd"
   xmlns="http://www.w3.org/2000/svg"
   xmlns:svg="http://www.w3.org/2000/svg">
  <sodipodi:namedview
     id="namedview7"
     pagecolor="#ffffff"
     bordercolor="#666666"
     borderopacity="1.0"
     inkscape:pageshadow="2"
     inkscape:pageopacity="0.0"
     inkscape:pagecheckerboard="0"
     inkscape:document-units="mm"
     showgrid="false"
     inkscape:zoom="0.27496365"
     inkscape:cx="-127.28955"
     inkscape:cy="-43.642132"
     inkscape:window-width="1720"
     inkscape:window-height="1302"
     inkscape:window-x="0"
     inkscape:window-y="25"
     inkscape:window-maximized="0"
     inkscape:current-layer="layer1" />
  <defs
     id="defs2" />
  <g
     inkscape:label="Layer 1"
     inkscape:groupmode="layer"
     id="layer1"
     transform="translate(-36.037462,-74.249135)">
    <path
       style="fill:#000000;stroke-width:0.282222"
       d="m 51.991009,218.52004 c -8.495157,-1.1551 -15.663231,-9.04591 -15.775139,-17.36569 -0.02721,-2.02279 0.02664,-2.23474 0.752846,-2.96333 l 0.782151,-0.78472 10.149378,-0.14111 10.149378,-0.14111 -3.271955,-3.08357 c -10.607763,-9.99704 -16.841554,-22.66779 -18.436934,-37.47475 -0.440811,-4.09124 -0.385704,-30.36405 0.06558,-31.26723 0.193899,-0.38806 0.795277,-0.92985 1.336395,-1.20399 0.899723,-0.45582 1.953457,-0.49202 12.322956,-0.42334 10.949393,0.0725 11.365866,0.0951 12.117761,0.65673 1.48423,1.10864 1.570661,2.96731 0.197176,4.24021 l -0.735353,0.6815 h -9.977677 -9.977678 l 0.0023,12.34722 c 0.0013,6.79097 0.1328,13.49022 0.29228,14.88722 1.84744,16.183 10.402632,30.29914 23.742355,39.17508 l 2.413718,1.60603 h 27.171551 27.171552 l 2.41371,-1.60603 c 13.33973,-8.87594 21.89492,-22.99208 23.74236,-39.17508 0.15948,-1.397 0.291,-8.09625 0.29228,-14.88722 l 0.002,-12.34722 H 119.34221 89.750098 l -0.73535,-0.6815 c -1.37361,-1.27301 -1.28705,-3.13178 0.19746,-4.24021 0.77413,-0.57802 0.97059,-0.58207 31.732202,-0.65375 29.03907,-0.0677 31.0141,-0.0415 31.93711,0.42333 1.4537,0.73208 1.68837,1.45596 1.6931,5.22269 l 0.004,3.31611 h 12.07276 c 13.18505,0 12.89343,-0.0353 13.58954,1.64523 0.25349,0.612 0.31204,3.93836 0.22994,13.06402 -0.1266,14.07245 -0.21272,14.6985 -2.73231,19.86297 -3.61422,7.40816 -9.58253,12.34668 -17.6566,14.6101 -1.60117,0.44886 -3.17915,0.57991 -8.32662,0.69153 l -6.35107,0.13772 -1.26893,1.85342 c -2.17178,3.17215 -5.13329,6.575 -8.4611,9.72202 l -3.19974,3.02591 13.58584,0.0785 13.58585,0.0785 0.78233,0.78472 c 0.72643,0.72864 0.78024,0.94038 0.75303,2.96333 -0.10038,7.46224 -5.44115,14.20706 -13.37625,16.89274 -1.48748,0.50344 -3.50057,0.52666 -48.260002,0.55672 -25.68927,0.0172 -47.088773,-0.0204 -47.554439,-0.0838 z m 93.331101,-5.76497 c 4.33164,-0.91107 8.49552,-4.59278 9.69253,-8.57015 l 0.38381,-1.27528 H 98.698788 41.999118 l 0.383804,1.27528 c 1.159286,3.85201 5.134042,7.47551 9.314166,8.49105 1.955615,0.4751 91.383032,0.55066 93.625022,0.0791 z m 12.72873,-36.26509 c 6.66767,-1.49426 12.52669,-6.38655 15.11396,-12.62022 1.56078,-3.76048 1.73398,-5.37087 1.73398,-16.12267 v -9.74856 h -10.16 -10.16 v 2.96333 2.96334 h 6.42831 c 5.17937,0 6.54263,0.0801 7.01666,0.41209 1.16387,0.8152 1.29332,1.72869 1.16921,8.25084 -0.10909,5.73318 -0.16555,6.28141 -0.82614,8.02192 -1.02696,2.70585 -2.06137,4.33233 -3.91761,6.15997 -2.95446,2.90895 -6.97478,4.53073 -11.23145,4.53073 h -2.26731 l -0.58565,1.56527 c -0.3221,0.8609 -0.83923,2.06234 -1.14916,2.66987 -0.30994,0.60753 -0.56353,1.17315 -0.56353,1.25695 0,0.36914 7.47494,0.12827 9.39873,-0.30286 z m -0.27922,-11.7833 c 2.02789,-0.99215 3.78182,-2.80481 4.81579,-4.97704 0.83638,-1.75712 0.87761,-2.01586 0.97799,-6.13833 l 0.1048,-4.30389 h -4.54571 -4.54571 v 2.2689 c 0,2.59991 -0.41979,6.72613 -1.01815,10.00776 -0.22642,1.24178 -0.49074,2.68996 -0.58737,3.21818 l -0.17568,0.96041 1.75321,-0.15898 c 1.01958,-0.0925 2.36735,-0.45944 3.22083,-0.87701 z m -42.77451,26.04479 c -0.64835,-0.37763 -1.34055,-1.74082 -1.34055,-2.64003 0,-0.39332 0.368,-1.12699 0.81778,-1.63038 0.67676,-0.75742 1.02243,-0.91526 2.00444,-0.91526 2.82063,0 3.84605,3.80801 1.37018,5.08834 -0.90269,0.4668 -2.14474,0.50919 -2.85185,0.0973 z m 9.525,-7.07829 c -0.92819,-0.51045 -1.53928,-1.45215 -1.54594,-2.38236 -0.007,-0.95327 0.4191,-1.61893 2.90289,-4.53671 5.57831,-6.55298 8.72491,-14.4932 9.46808,-23.89201 0.2186,-2.76461 0.31324,-3.12901 0.98781,-3.80358 1.53224,-1.53223 4.17211,-0.64694 4.58173,1.5365 0.21297,1.13526 -0.31295,6.78982 -0.90209,9.69906 -1.51435,7.47792 -6.07669,16.30714 -11.11912,21.51813 -2.219,2.29318 -2.99047,2.62146 -4.37336,1.86097 z M 74.745828,128.6581 c -0.95312,-0.88797 -1.23626,-1.86464 -0.86588,-2.98688 0.394,-1.19385 1.34903,-1.84025 2.7189,-1.84025 0.82492,0 1.2267,0.19192 1.84091,0.87935 1.06927,1.19671 1.05753,2.49529 -0.0331,3.66281 -1.01849,1.0903 -2.65932,1.21802 -3.66084,0.28497 z m 2.9274,-10.67877 c -0.8846,-0.36701 -1.56251,-1.27341 -1.72909,-2.31191 -0.11873,-0.74022 0.0214,-1.20356 0.62952,-2.08111 2.31382,-3.33912 2.69096,-3.99895 3.1104,-5.4418 0.91026,-3.13117 0.13663,-5.98653 -2.58483,-9.540191 -2.84267,-3.711936 -3.86182,-7.131045 -3.23439,-10.850901 0.3886,-2.303839 1.93476,-5.623319 3.01508,-6.473095 1.58367,-1.245718 4.11942,-0.382659 4.47708,1.523804 0.14072,0.750105 -0.0275,1.328588 -0.82096,2.823856 -1.95745,3.688609 -1.69314,5.902569 1.15835,9.702501 3.88037,5.171026 4.83386,9.715816 3.16914,15.105556 -0.59538,1.92762 -2.74638,5.4244 -4.13301,6.71885 -0.88816,0.82912 -2.19596,1.18179 -3.05729,0.82444 z m 31.295092,-0.01 c -0.8806,-0.36047 -1.80287,-1.66802 -1.80287,-2.55603 0,-0.43871 0.42975,-1.37565 0.98576,-2.14916 2.65747,-3.697 3.47622,-5.97813 3.11786,-8.68665 -0.2644,-1.99831 -0.99373,-3.50658 -2.95284,-6.106519 -2.02603,-2.688749 -2.74933,-4.239948 -3.17288,-6.804694 -0.57176,-3.46208 0.5969,-7.731406 2.73766,-10.001283 1.16137,-1.231408 2.86788,-1.351105 3.94246,-0.27653 1.21082,1.210821 1.20589,2.020716 -0.0263,4.323491 -0.997,1.863202 -1.10295,2.260632 -1.09382,4.103034 0.0114,2.304281 0.20239,2.760408 2.39007,5.708891 2.81755,3.79738 3.79977,6.53602 3.76602,10.50044 -0.0332,3.90695 -1.57348,7.57503 -4.50111,10.7195 -1.15133,1.2366 -2.32572,1.66115 -3.39,1.2255 z m -16.500132,-7.04242 c -1.31722,-1.31722 -1.16282,-2.59009 0.587,-4.83914 1.79062,-2.30149 2.53915,-4.25107 2.53915,-6.613293 0,-2.568372 -0.61661,-4.100372 -2.9945,-7.439925 -2.44322,-3.431301 -3.21439,-5.505578 -3.21439,-8.646017 0,-2.610541 0.78541,-5.199441 2.18086,-7.188673 1.5435,-2.200269 3.20627,-2.54874 4.75789,-0.997122 0.96475,0.964748 0.879,2.222839 -0.30652,4.497295 -0.82182,1.576667 -0.98674,2.187987 -0.98158,3.638451 0.007,2.117787 0.55922,3.427585 2.52283,5.989507 2.657122,3.466755 3.679852,6.307608 3.679852,10.221558 0,3.794249 -1.649942,7.737099 -4.529932,10.825149 -1.09879,1.17816 -1.43837,1.37716 -2.35004,1.37716 -0.80154,0 -1.27013,-0.20446 -1.89062,-0.82495 z"
       id="path836" />
  </g>
</svg>
