<?xml version="1.0" encoding="UTF-8" standalone="no"?>
<!-- Generator: Adobe Illustrator 19.0.0, SVG Export Plug-In . SVG Version: 6.00 Build 0)  -->

<svg
   version="1.1"
   id="Capa_1"
   x="0px"
   y="0px"
   viewBox="0 0 414.428 512.00127"
   xml:space="preserve"
   sodipodi:docname="colddrink.svg"
   width="414.42801"
   height="512.00128"
   inkscape:version="1.1.1 (c3084ef, 2021-09-22)"
   xmlns:inkscape="http://www.inkscape.org/namespaces/inkscape"
   xmlns:sodipodi="http://sodipodi.sourceforge.net/DTD/sodipodi-0.dtd"
   xmlns="http://www.w3.org/2000/svg"
   xmlns:svg="http://www.w3.org/2000/svg"><defs
   id="defs54" /><sodipodi:namedview
   id="namedview52"
   pagecolor="#ffffff"
   bordercolor="#666666"
   borderopacity="1.0"
   inkscape:pageshadow="2"
   inkscape:pageopacity="0.0"
   inkscape:pagecheckerboard="0"
   showgrid="false"
   inkscape:zoom="1.7050715"
   inkscape:cx="207.32269"
   inkscape:cy="263.03883"
   inkscape:window-width="1312"
   inkscape:window-height="1081"
   inkscape:window-x="0"
   inkscape:window-y="25"
   inkscape:window-maximized="0"
   inkscape:current-layer="Capa_1" />
<g
   id="g13"
   transform="translate(-48.789,3.0625838e-4)">
	<g
   id="g11">
		<path
   d="m 451.393,257.988 c -7.1,-7.099 -16.373,-11.227 -26.315,-11.76 l 5.208,-33.535 c 0.451,-2.902 -0.389,-5.858 -2.301,-8.089 -1.912,-2.231 -4.702,-3.515 -7.64,-3.515 H 372.44 c 7.284,-22.641 17.276,-44.31 29.811,-64.564 L 459.26,44.422 c 1.404,-2.269 1.85,-5.003 1.238,-7.601 -0.611,-2.598 -2.229,-4.845 -4.498,-6.249 L 409.039,1.507 C 404.315,-1.417 398.115,0.042 395.19,4.768 L 370.1,45.307 c -0.032,0.05 -0.069,0.095 -0.101,0.146 l -31.82,51.417 c -15.617,25.231 -34.924,47.886 -57.382,67.332 -7.029,6.078 -13.932,12.621 -20.53,19.46 -5.394,5.609 -10.602,11.46 -15.554,17.426 H 91.645 c -2.938,0 -5.728,1.284 -7.64,3.515 -1.912,2.231 -2.751,5.186 -2.301,8.089 l 5.209,33.536 c -21.217,1.155 -38.124,18.782 -38.124,40.282 0,10.777 4.198,20.91 11.82,28.532 7.623,7.622 17.751,11.82 28.522,11.82 h 9.27 l 15.446,110.17 h -11.989 c -5.556,0 -10.06,4.504 -10.06,10.06 0,5.556 4.504,10.06 10.06,10.06 h 14.81 l 6.475,46.185 c 0.696,4.968 4.947,8.664 9.963,8.664 h 245.783 c 5.016,0 9.266,-3.695 9.963,-8.662 l 6.481,-46.187 h 14.815 c 5.556,0 10.06,-4.504 10.06,-10.06 0,-5.556 -4.504,-10.06 -10.06,-10.06 h -11.992 l 15.449,-110.17 h 9.27 c 22.244,0 40.342,-18.102 40.342,-40.352 -0.004,-10.77 -4.202,-20.899 -11.824,-28.522 z M 407.004,23.91 436.856,42.386 422.258,65.97 392.411,47.488 Z M 274.759,197.618 c 6.167,-6.392 12.627,-12.515 19.204,-18.203 24.003,-20.785 44.635,-44.995 61.324,-71.958 l 26.528,-42.866 29.852,18.486 -26.528,42.856 c -14.527,23.476 -25.862,48.726 -33.767,75.153 h -79.875 c 1.083,-1.162 2.164,-2.326 3.262,-3.468 z m 95.379,294.261 H 141.852 l -4.869,-34.728 h 238.026 z m 52.731,-185.14 h -18.018 c -5.016,0 -9.266,3.695 -9.963,8.663 L 377.832,437.03 H 134.162 L 117.111,315.402 c -0.697,-4.968 -4.947,-8.663 -9.963,-8.663 H 89.131 c -5.396,0 -10.473,-2.105 -14.294,-5.927 -3.822,-3.822 -5.928,-8.902 -5.928,-14.305 0,-11.15 9.071,-20.221 20.221,-20.221 H 98.647 256 c 5.556,0 10.06,-4.504 10.06,-10.06 0,-5.556 -4.504,-10.06 -10.06,-10.06 H 107.264 l -3.876,-24.96 h 255.527 c 0.012,0 0.025,0.002 0.037,0.002 0.02,0 0.039,-0.002 0.059,-0.002 H 408.6 l -5.199,33.476 c -0.452,2.903 0.389,5.859 2.301,8.089 1.911,2.231 4.702,3.515 7.64,3.515 h 9.527 c 5.396,0 10.473,2.105 14.294,5.927 3.822,3.822 5.927,8.898 5.927,14.295 0.001,11.155 -9.071,20.231 -20.221,20.231 z"
   id="path9" />
	</g>
</g>
<g
   id="g19"
   transform="translate(-48.789,3.0625838e-4)">
	<g
   id="g17">
		<path
   d="m 286.18,246.167 c -12.947,0 -12.968,20.121 0,20.121 12.947,0 12.968,-20.121 0,-20.121 z"
   id="path15" />
	</g>
</g>
<g
   id="g21"
   transform="translate(-48.789,3.0625838e-4)">
</g>
<g
   id="g23"
   transform="translate(-48.789,3.0625838e-4)">
</g>
<g
   id="g25"
   transform="translate(-48.789,3.0625838e-4)">
</g>
<g
   id="g27"
   transform="translate(-48.789,3.0625838e-4)">
</g>
<g
   id="g29"
   transform="translate(-48.789,3.0625838e-4)">
</g>
<g
   id="g31"
   transform="translate(-48.789,3.0625838e-4)">
</g>
<g
   id="g33"
   transform="translate(-48.789,3.0625838e-4)">
</g>
<g
   id="g35"
   transform="translate(-48.789,3.0625838e-4)">
</g>
<g
   id="g37"
   transform="translate(-48.789,3.0625838e-4)">
</g>
<g
   id="g39"
   transform="translate(-48.789,3.0625838e-4)">
</g>
<g
   id="g41"
   transform="translate(-48.789,3.0625838e-4)">
</g>
<g
   id="g43"
   transform="translate(-48.789,3.0625838e-4)">
</g>
<g
   id="g45"
   transform="translate(-48.789,3.0625838e-4)">
</g>
<g
   id="g47"
   transform="translate(-48.789,3.0625838e-4)">
</g>
<g
   id="g49"
   transform="translate(-48.789,3.0625838e-4)">
</g>
</svg>
