<?xml version="1.0" encoding="UTF-8" standalone="no"?>
<!-- Created with Inkscape (http://www.inkscape.org/) -->

<svg
   version="1.1"
   id="svg291"
   width="102.99141"
   height="7.6460524"
   viewBox="0 0 102.99141 7.6460523"
   sodipodi:docname="divider.svg"
   inkscape:export-filename="/Users/johanforsell/Documents/WebDev/WebApp/app/static/divider.png"
   inkscape:export-xdpi="96"
   inkscape:export-ydpi="96"
   inkscape:version="1.1.1 (c3084ef, 2021-09-22)"
   xmlns:inkscape="http://www.inkscape.org/namespaces/inkscape"
   xmlns:sodipodi="http://sodipodi.sourceforge.net/DTD/sodipodi-0.dtd"
   xmlns="http://www.w3.org/2000/svg"
   xmlns:svg="http://www.w3.org/2000/svg">
  <defs
     id="defs295">
    <clipPath
       clipPathUnits="userSpaceOnUse"
       id="clipPath1550">
      <rect
         style="fill:#1321ed;fill-opacity:0.497976;stroke-width:3;stroke-linecap:round"
         id="rect1552"
         width="118.58694"
         height="21.113403"
         x="20.761513"
         y="219.22749" />
    </clipPath>
  </defs>
  <sodipodi:namedview
     id="namedview293"
     pagecolor="#ffffff"
     bordercolor="#666666"
     borderopacity="1.0"
     inkscape:pageshadow="2"
     inkscape:pageopacity="0.0"
     inkscape:pagecheckerboard="0"
     showgrid="false"
     inkscape:zoom="2.0094538"
     inkscape:cx="-78.628333"
     inkscape:cy="14.680607"
     inkscape:window-width="1306"
     inkscape:window-height="1081"
     inkscape:window-x="0"
     inkscape:window-y="25"
     inkscape:window-maximized="0"
     inkscape:current-layer="g297" />
  <g
     inkscape:groupmode="layer"
     inkscape:label="Image"
     id="g297"
     transform="translate(-108.95857,-117.28914)">
    <path
       style="fill:#fca311;fill-opacity:1;stroke-width:0.16"
       d="m 166.13471,124.79546 c -1.71643,-0.35185 -2.84618,-0.99453 -4.46406,-2.53947 -0.88183,-0.84206 -1.08268,-0.97376 -0.99783,-0.65427 0.43008,1.61947 0.26118,2.27243 -0.7468,2.88704 -0.99773,0.60835 -2.31304,0.18654 -2.76094,-0.88541 -0.3047,-0.72925 -0.29828,-0.77637 0.18386,-1.34936 0.59671,-0.70915 1.12226,-0.66682 1.33736,0.10773 0.0917,0.33 0.16703,0.726 0.16752,0.88 10e-4,0.34529 0.1459,0.3527 0.60529,0.0309 0.5473,-0.38335 0.45326,-1.01888 -0.30152,-2.03765 -0.46711,-0.63048 -0.93631,-1.03576 -1.62268,-1.40159 -0.9768,-0.52062 -0.97063,-0.51961 -3.76964,-0.61862 -0.50812,-0.018 -0.29973,-0.28365 0.33128,-0.42234 l 0.51816,-0.1139 -0.39884,-0.14763 c -0.8548,-0.3164 -2.5517,0.39061 -3.9272,1.63627 l -0.87734,0.79453 H 132.2261 c -9.45187,0 -17.29565,0.0424 -17.43062,0.0942 -0.14261,0.0547 -0.28975,0.38984 -0.35126,0.8 -0.0977,0.65175 -0.14216,0.70583 -0.57973,0.70583 -0.26064,0 -1.20647,-0.28136 -2.10184,-0.62523 -0.89536,-0.34388 -1.90204,-0.7108 -2.23705,-0.81541 -0.48405,-0.15114 -0.59902,-0.25973 -0.56,-0.52885 0.0345,-0.23768 0.21609,-0.3791 0.60911,-0.47427 0.308,-0.0746 9.28187,-0.12616 19.94192,-0.11461 l 19.38192,0.021 0.84938,-0.75437 c 3.05565,-2.71384 8.18207,-2.5623 10.83928,0.32045 0.37075,0.40221 0.70535,0.7313 0.74355,0.7313 0.0382,0 0.11332,-0.27 0.16693,-0.6 0.35155,-2.16379 1.39435,-2.91722 2.94366,-2.12682 0.70209,0.35818 0.81336,0.56546 0.81336,1.51511 0,0.74251 -0.34873,1.21171 -0.90059,1.21171 -0.48927,0 -0.69941,-0.32208 -0.69941,-1.072 0,-0.70463 -0.12046,-0.80605 -0.63211,-0.53223 -1.04835,0.56106 -0.0779,2.47823 1.81453,3.58452 1.17252,0.68545 1.8835,0.81793 3.24989,0.6055 0.66964,-0.10411 1.25304,-0.15378 1.29644,-0.11038 0.18957,0.18958 -1.39231,0.71784 -2.1593,0.72107 -0.45681,0.002 -0.88063,0.0845 -0.94183,0.18355 -0.0806,0.13035 0.3032,0.16032 1.39056,0.10854 2.39354,-0.11395 3.10437,-0.53616 5.14979,-3.05876 l 0.60796,-0.74981 h 16.45473 16.45473 l 0.13803,-0.76 c 0.11837,-0.65173 0.19615,-0.76679 0.54596,-0.8076 0.34847,-0.0407 3.91769,1.1519 4.63063,1.5472 0.132,0.0732 0.26172,0.27793 0.28827,0.45496 0.0395,0.26328 -0.0771,0.34771 -0.64,0.46366 -0.37855,0.078 -8.92438,0.14178 -18.99072,0.14178 h -18.30245 l -0.41755,0.54614 c -1.52188,1.99058 -2.87051,2.88719 -4.81756,3.20283 -1.18,0.19132 -1.72522,0.19229 -2.64,0.005 z"
       id="path1673"
       sodipodi:nodetypes="csssssccssssscsscsscssscsscssssssssssssccsscccsssssscsscc" />
  </g>
</svg>
