<?xml version="1.0" encoding="UTF-8" standalone="no"?>
<svg
   id="Capa_1"
   enable-background="new 0 0 512 512"
   height="511.99915"
   viewBox="0 0 485.37982 511.99915"
   width="485.37982"
   version="1.1"
   sodipodi:docname="drink.svg"
   inkscape:version="1.1.1 (c3084ef, 2021-09-22)"
   xmlns:inkscape="http://www.inkscape.org/namespaces/inkscape"
   xmlns:sodipodi="http://sodipodi.sourceforge.net/DTD/sodipodi-0.dtd"
   xmlns="http://www.w3.org/2000/svg"
   xmlns:svg="http://www.w3.org/2000/svg">
  <defs
     id="defs1542" />
  <sodipodi:namedview
     id="namedview1540"
     pagecolor="#ffffff"
     bordercolor="#666666"
     borderopacity="1.0"
     inkscape:pageshadow="2"
     inkscape:pageopacity="0.0"
     inkscape:pagecheckerboard="0"
     showgrid="false"
     inkscape:zoom="1.7050781"
     inkscape:cx="126.97365"
     inkscape:cy="263.0378"
     inkscape:window-width="1296"
     inkscape:window-height="1081"
     inkscape:window-x="0"
     inkscape:window-y="25"
     inkscape:window-maximized="0"
     inkscape:current-layer="Capa_1" />
  <g
     id="g1537"
     transform="translate(-13.310068,1.5539183e-4)">
    <g
       id="g1535">
      <g
         id="g1533">
        <path
           d="m 287.721,277.697 c 0.815,-2.326 2.061,-4.519 3.619,-6.425 L 377.648,163.98 496.481,16.268 c 3.462,-4.303 2.78,-10.598 -1.523,-14.06 -4.303,-3.461 -10.597,-2.779 -14.06,1.523 L 409.984,91.877 H 372.67 c -0.935,-7.526 -4.591,-14.708 -10.735,-19.799 -3.327,-2.757 -7.101,-4.711 -11.063,-5.858 l 13.899,-18.862 c 3.276,-4.446 2.328,-10.706 -2.118,-13.982 -4.445,-3.275 -10.706,-2.328 -13.982,2.118 l -13.824,18.76 c -2.235,-3.394 -5.169,-6.381 -8.719,-8.728 -12.979,-8.581 -30.823,-5.831 -40.622,6.264 -5.401,6.666 -7.767,15.335 -6.503,23.806 l 2.105,16.282 H 100.615 L 43.932,20 h 360.239 c 5.523,0 10,-4.477 10,-10 0,-5.523 -4.477,-10 -10,-10 H 23.31 c -3.832,0 -7.326,2.189 -8.998,5.637 -1.671,3.447 -1.227,7.547 1.146,10.556 l 72.447,91.867 c 0.003,0.004 0.005,0.008 0.008,0.011 l 128.642,163.125 c 3.087,3.894 4.9,8.615 4.9,13.613 v 30.642 c 0,5.523 4.477,10 10,10 5.523,0 10,-4.477 10,-10 v -30.642 c 0,-0.101 -0.006,-0.201 -0.007,-0.301 H 266.5 c -10e-4,0.1 -0.007,0.2 -0.007,0.301 v 144.979 c 0,15.483 8.648,29.598 22.57,36.836 3.872,2.013 26.831,14.277 47.586,25.376 H 170.397 c 21.001,-11.204 44.316,-23.622 48.211,-25.613 14.092,-7.207 22.846,-21.375 22.846,-36.977 v -25.341 c 0,-5.523 -4.477,-10 -10,-10 -5.523,0 -10,4.477 -10,10 v 25.341 c 0,8.054 -4.58,15.4 -11.952,19.169 -7.454,3.812 -80.667,42.937 -83.779,44.601 -4.046,2.162 -6.102,6.799 -4.987,11.249 1.114,4.45 5.113,7.57 9.7,7.57 h 246.098 c 4.585,0 8.583,-3.119 9.699,-7.567 1.116,-4.448 -0.937,-9.084 -4.979,-11.249 -3.083,-1.65 -75.58,-40.466 -82.965,-44.306 -7.276,-3.783 -11.796,-11.099 -11.796,-19.091 V 284.809 c 0.001,-2.432 0.423,-4.836 1.228,-7.112 z M 253.978,176.875 c -11.515,-9.841 -13.93,-26.811 -5.617,-39.473 9.882,-15.052 31.319,-18.121 45.026,-6.407 11.515,9.841 13.93,26.811 5.617,39.473 -4.79,7.295 -12.466,12.181 -21.062,13.404 -8.595,1.224 -17.33,-1.328 -23.964,-6.997 z M 301.047,64.38 c 3.313,-4.09 9.659,-5.074 14.052,-2.17 3.842,2.54 5.618,7.221 4.417,11.65 -1.249,4.61 0.421,9.425 4.253,12.267 3.831,2.841 8.924,3.042 12.976,0.507 3.888,-2.433 8.883,-2.093 12.429,0.845 3.564,2.954 4.698,8.157 2.938,12.35 -1.496,3.546 -4.76,5.712 -8.466,6.334 l -39.664,6.648 -5.156,-39.885 c -0.01,-0.08 -0.021,-0.159 -0.034,-0.238 -0.461,-2.995 0.34,-5.945 2.255,-8.308 z m -29.228,200.128 h -35.687 c -1.14,-2.019 -2.457,-3.952 -3.917,-5.753 L 116.387,111.878 h 129.855 c -5.747,3.752 -10.743,8.674 -14.599,14.547 -12.235,18.637 -10.489,42.876 3.344,59.552 l -11.654,15.52 c -3.316,4.417 -2.424,10.685 1.992,14.001 1.8,1.352 3.907,2.004 5.997,2.004 3.039,0 6.04,-1.379 8.004,-3.996 l 11.249,-14.981 c 22.644,11.723 51.183,4.189 65.148,-17.082 10.216,-15.562 10.681,-35.031 2.506,-50.741 l 28.617,-4.794 c 8.813,-1.298 16.737,-6.494 21.469,-14.031 h 25.577 l -118.105,146.81 c -1.479,1.816 -2.818,3.78 -3.968,5.821 z"
           id="path1527" />
        <path
           d="m 223.14,364.84 c 2.99,4.562 9.362,5.755 13.87,2.76 4.539,-3.015 5.772,-9.337 2.76,-13.86 -3.019,-4.533 -9.34,-5.791 -13.87,-2.77 -4.53,3.021 -5.775,9.345 -2.76,13.87 z"
           id="path1529" />
        <path
           d="m 441.79,18.61 c 7.549,5.031 17.6,-2.258 15.175,-10.974 -1.144,-4.112 -4.869,-7.107 -9.139,-7.319 -4.259,-0.212 -8.284,2.417 -9.815,6.391 -1.649,4.284 -0.087,9.374 3.779,11.902 z"
           id="path1531" />
      </g>
    </g>
  </g>
</svg>
