<?xml version="1.0" encoding="UTF-8" standalone="no"?>
<svg
   height="511.99844pt"
   viewBox="-126 0 259.60471 511.99998"
   width="259.60471pt"
   version="1.1"
   id="svg1819"
   sodipodi:docname="energydrink.svg"
   inkscape:version="1.1.1 (c3084ef, 2021-09-22)"
   xmlns:inkscape="http://www.inkscape.org/namespaces/inkscape"
   xmlns:sodipodi="http://sodipodi.sourceforge.net/DTD/sodipodi-0.dtd"
   xmlns="http://www.w3.org/2000/svg"
   xmlns:svg="http://www.w3.org/2000/svg">
  <defs
     id="defs1823" />
  <sodipodi:namedview
     id="namedview1821"
     pagecolor="#ffffff"
     bordercolor="#666666"
     borderopacity="1.0"
     inkscape:pageshadow="2"
     inkscape:pageopacity="0.0"
     inkscape:pagecheckerboard="0"
     inkscape:document-units="pt"
     showgrid="false"
     inkscape:zoom="1.2788086"
     inkscape:cx="-102.83009"
     inkscape:cy="273.30126"
     inkscape:window-width="1296"
     inkscape:window-height="1081"
     inkscape:window-x="0"
     inkscape:window-y="25"
     inkscape:window-maximized="0"
     inkscape:current-layer="svg1819" />
  <path
     d="m 132.20626,458.93747 c 0.92188,-5.67188 1.39844,-11.42969 1.39844,-17.17578 V 122.43356 c 0,-1.79687 -0.15235,-3.57422 -0.4375,-5.32812 -0.0117,-0.0664 -0.0195,-0.12891 -0.0312,-0.19531 -0.13281,-0.78125 -0.28906,-1.55079 -0.47656,-2.32032 -0.0352,-0.14843 -0.0781,-0.30078 -0.11329,-0.44922 -0.18359,-0.70312 -0.38281,-1.40625 -0.60937,-2.09765 -0.0625,-0.19531 -0.13672,-0.39063 -0.20313,-0.58594 -0.1914,-0.53906 -0.39062,-1.07422 -0.60937,-1.60547 -0.10938,-0.27344 -0.22266,-0.54687 -0.34375,-0.8164 -0.23047,-0.53125 -0.48047,-1.05469 -0.74219,-1.57032 -0.11719,-0.23437 -0.23047,-0.46875 -0.35547,-0.69922 -0.3125,-0.58984 -0.64843,-1.16796 -1,-1.74218 -0.11718,-0.19141 -0.23437,-0.38282 -0.35937,-0.57032 -0.38672,-0.60937 -0.79297,-1.20312 -1.22266,-1.78906 -0.082,-0.10937 -0.16797,-0.21875 -0.25,-0.32812 -0.48437,-0.64453 -0.98437,-1.27344 -1.51562,-1.87891 -6.26953,-7.17969 -16.125,-20.878909 -18.9375,-38.531253 h 1.375 c 5.51953,0 10,-4.476562 10,-10 0,-5.523437 -4.48047,-10 -10,-10 h -19.0586 c 5.6875,-5.625 8.28125,-13.617187 6.9336,-21.535156 C 94.2649,12.257778 88.93287,5.4101221 81.386,2.0780911 72.71412,-1.7539399 62.50319,-0.19925294 55.36256,6.0234041 L 14.19454,41.921841 h -114.35937 c -5.52344,0 -10,4.480469 -10,10.003906 0,5.519531 4.47656,10 10,10 h 1.371091 c -2.574221,16.152344 -11.039061,28.988281 -17.265621,36.554688 -0.57813,0.703125 -1.14063,1.363281 -1.67188,1.972655 v 0.004 c -0.004,0.004 -0.008,0.008 -0.0117,0.0117 -0.52343,0.59766 -1.01562,1.21875 -1.49218,1.84766 -0.0898,0.12109 -0.1836,0.23828 -0.27344,0.35937 -0.42188,0.57422 -0.82031,1.16406 -1.20703,1.76172 -0.125,0.19922 -0.25,0.39844 -0.375,0.59766 -0.34375,0.5664 -0.67578,1.14062 -0.98438,1.72265 -0.1289,0.23828 -0.24609,0.48047 -0.36719,0.71875 -0.2539,0.50781 -0.49609,1.01563 -0.72656,1.53516 -0.125,0.28125 -0.24219,0.5664 -0.35937,0.85547 -0.21094,0.51953 -0.41016,1.05078 -0.59766,1.58203 -0.0703,0.19922 -0.14453,0.39453 -0.21094,0.59765 -0.22656,0.6875 -0.42187,1.38672 -0.60547,2.08985 -0.0391,0.15234 -0.0781,0.30469 -0.11328,0.45312 -0.1875,0.76953 -0.34375,1.53907 -0.47656,2.32032 -0.0117,0.0664 -0.0195,0.1289 -0.0312,0.19531 -0.28516,1.74993 -0.4375,3.53118 -0.4375,5.32805 v 319.32813 c 0,5.74609 0.47656,11.5039 1.40234,17.17969 0.0312,0.20312 0.0664,0.40625 0.10157,0.60937 0.21484,1.28125 0.44531,2.5625 0.71093,3.83594 l 7.14454,34.53125 c 1.6875,8.16015 8.96093,14.08203 17.292964,14.08203 H 106.95235 c 8.33204,0 15.60547,-5.92188 17.29297,-14.08203 l 7.14453,-34.53125 c 0.004,-0.004 0.004,-0.008 0.004,-0.0117 0.26172,-1.26953 0.49219,-2.54297 0.70703,-3.82031 0.0352,-0.20703 0.0703,-0.41016 0.10547,-0.61719 z M -105.99686,435.94138 V 130.48825 H 113.6047 V 435.94138 Z M 68.51095,21.101528 c 1.3125,-1.148437 3.19922,-1.433593 4.79297,-0.730468 1.93359,0.855468 2.47656,2.480468 2.6289,3.375 0.15235,0.894531 0.17578,2.609375 -1.36328,4.054687 l -15.0664,14.125 h -14.875 z m 17.6914,40.824219 c 0.15235,1.25 0.33594,2.484375 0.53907,3.703125 0.0234,0.148438 0.0469,0.296875 0.0703,0.445313 0.19922,1.152343 0.42187,2.289062 0.66406,3.414062 0.043,0.195313 0.082,0.390625 0.12891,0.585938 0.24219,1.101562 0.50781,2.1875 0.78906,3.257812 0.0508,0.191407 0.10156,0.378907 0.15234,0.566407 0.29297,1.082031 0.60157,2.148437 0.92969,3.199218 0.043,0.136719 0.0859,0.269532 0.12891,0.402344 0.34375,1.078125 0.69922,2.144531 1.07422,3.191406 0.0117,0.02734 0.0195,0.05469 0.0273,0.08203 0.38281,1.054687 0.78125,2.089843 1.19141,3.109374 0.0547,0.140626 0.10547,0.277344 0.16406,0.417969 0.39062,0.964844 0.80078,1.914063 1.21484,2.847657 0.0781,0.171874 0.15235,0.34375 0.23047,0.515624 0.41016,0.914063 0.83594,1.8125 1.26563,2.695313 0.0781,0.160156 0.16015,0.320313 0.23828,0.484375 0.4414,0.886719 0.89062,1.765625 1.34375,2.617188 0.0625,0.113281 0.12109,0.222656 0.17969,0.335937 0.46484,0.859375 0.93359,1.707031 1.40625,2.53125 0.0273,0.04297 0.0508,0.08984 0.0742,0.132813 0.48438,0.839843 0.97266,1.652343 1.46485,2.453124 0.0742,0.121094 0.14453,0.246094 0.21875,0.363282 0.46875,0.761712 0.9414,1.496092 1.41015,2.218742 0.0937,0.14454 0.1875,0.28516 0.28125,0.42579 0.46485,0.70703 0.92969,1.39453 1.39454,2.0664 0.0859,0.12891 0.17578,0.25391 0.26562,0.38281 0.47266,0.67579 0.94141,1.33594 1.41016,1.96875 0.0586,0.0859 0.12109,0.16407 0.18359,0.25 0.46484,0.63282 0.92969,1.25 1.38672,1.84375 0.0312,0.043 0.0664,0.0898 0.0977,0.12891 0.46875,0.60938 0.92968,1.19141 1.38671,1.75781 0.043,0.0508 0.0898,0.11328 0.13282,0.16407 h -207.68748 c 0.0273,-0.0352 0.05859,-0.0742 0.08594,-0.10938 0.476563,-0.59375 0.960937,-1.20312 1.453125,-1.84375 0.0039,0 0.0039,-0.004 0.0078,-0.008 0.496094,-0.64453 1,-1.3125 1.507813,-2.00391 0.03516,-0.0508 0.07422,-0.0977 0.109375,-0.14844 0.484375,-0.66015 0.972656,-1.34765 1.464844,-2.05078 0.07031,-0.10156 0.140625,-0.19922 0.207031,-0.29687 0.480469,-0.69531 0.964844,-1.40625 1.445313,-2.14063 0.07422,-0.11328 0.148437,-0.22656 0.222656,-0.33984 0.488281,-0.74609 0.972656,-1.50781 1.457031,-2.28906 0.05859,-0.09766 0.117187,-0.195312 0.179687,-0.292968 0.503907,-0.820313 1.003907,-1.65625 1.5,-2.519532 0.01172,-0.01953 0.01953,-0.03516 0.03125,-0.05469 0.492188,-0.855469 0.976563,-1.734375 1.457032,-2.628907 0.05078,-0.09375 0.101562,-0.183593 0.152344,-0.277343 0.460937,-0.871094 0.917968,-1.757813 1.363281,-2.664063 0.07422,-0.144531 0.144531,-0.292968 0.21875,-0.441406 0.4375,-0.894531 0.863281,-1.800781 1.285156,-2.730469 0.07031,-0.160156 0.140625,-0.320312 0.210937,-0.480469 0.421876,-0.941406 0.832032,-1.894531 1.226563,-2.871093 0.05469,-0.132813 0.105469,-0.265625 0.160156,-0.398438 0.410157,-1.027343 0.8125,-2.066406 1.195313,-3.128906 0.0039,-0.01953 0.01172,-0.03906 0.01953,-0.05469 0.375,-1.054688 0.734375,-2.128907 1.082031,-3.21875 0.04297,-0.128907 0.08594,-0.261719 0.125,-0.394532 0.328125,-1.050781 0.636719,-2.121094 0.929688,-3.203125 0.05078,-0.1875 0.101562,-0.375 0.152344,-0.5625 0.285156,-1.070312 0.546874,-2.15625 0.792968,-3.257812 0.04297,-0.195313 0.08594,-0.390625 0.125,-0.585938 0.242188,-1.125 0.464844,-2.261719 0.664063,-3.414062 0.02734,-0.148438 0.05078,-0.300781 0.07422,-0.449219 0.203124,-1.21875 0.386718,-2.449219 0.535156,-3.699219 z M 105.0461,491.99997 H -97.43827 l -6.76172,-32.66797 c -0.23047,-1.125 -0.42187,-2.25781 -0.60937,-3.39062 H 112.4172 c -0.1875,1.13281 -0.37891,2.26953 -0.61328,3.39062 z m 0,0"
     id="path1811" />
  <path
     d="m 3.80392,187.08591 c -9.04297,0 -18.01172,1.21875 -26.64844,3.625 -5.320312,1.48047 -8.433594,6.99218 -6.953125,12.3164 1.480469,5.32032 7.000005,8.4336 12.316405,6.94922 6.89453,-1.91797 14.05469,-2.89062 21.28516,-2.89062 43.65234,0 79.16406,35.51562 79.16406,79.16797 0,43.65234 -35.51172,79.16796 -79.16406,79.16796 -43.652346,0 -79.167971,-35.51562 -79.167971,-79.16796 0,-14.74219 4.078125,-29.1211 11.789062,-41.58594 2.90625,-4.69922 1.453125,-10.85938 -3.242187,-13.76563 -4.699219,-2.90625 -10.859375,-1.45312 -13.765625,3.24219 -9.671875,15.62891 -14.78125,33.64844 -14.78125,52.10938 0,54.67968 44.484375,99.16796 99.167971,99.16796 54.67968,0 99.16797,-44.48828 99.16797,-99.16796 0,-54.6836 -44.48829,-99.16797 -99.16797,-99.16797 z m 0,0"
     id="path1813" />
  <path
     d="m -28.403114,293.332 22.335934,13.59375 -10.48046,36.36328 c -1.23438,4.28516 0.51953,8.8711 4.29687,11.24219 1.63672,1.02344 3.47656,1.52734 5.3125,1.52734 2.40625,0 4.79688,-0.86718 6.67969,-2.55859 l 53.62109,-48.125 c 3.38281,-3.03125 5.06641,-7.53516 4.50391,-12.04297 -0.5586,-4.50781 -3.29688,-8.46094 -7.31641,-10.57422 L 16.90157,265.07809 15.32345,225.69138 c -0.17578,-4.40625 -3.21875,-8.17969 -7.48828,-9.28125 -4.26953,-1.10547 -8.75781,0.71875 -11.04688,4.48828 L -33.789832,271.207 c -4.613282,7.58203 -2.195313,17.50781 5.386718,22.125 z M -3.33671,259.60544 -2.93046,269.832 c 0.19141,4.67578 2.87891,8.93359 7.01953,11.10938 l 29.36719,15.42968 -21.13281,18.96485 1.51172,-5.2461 C 15.9211,302.84372 12.88204,295.04294 6.43673,291.12497 L -14.68046,278.2695 Z m 0,0"
     id="path1815" />
  <path
     d="m -55.387489,223.34372 c 0.539063,0.35937 1.117188,0.66797 1.71875,0.91797 0.609375,0.25 1.238281,0.4414 1.871094,0.57031 0.648437,0.12891 1.300781,0.19141 1.957031,0.19141 0.652344,0 1.3125,-0.0625 1.953125,-0.19141 0.640625,-0.12891 1.269531,-0.32031 1.867188,-0.57031 0.601562,-0.25 1.191406,-0.5586 1.730469,-0.91797 0.550781,-0.37109 1.0625,-0.79297 1.519531,-1.25 1.863281,-1.85938 2.933593,-4.44141 2.933593,-7.07031 0,-2.63282 -1.070312,-5.21094 -2.933593,-7.07032 -0.457031,-0.46093 -0.96875,-0.88281 -1.519531,-1.24218 -0.539063,-0.35938 -1.128907,-0.66797 -1.730469,-0.91797 -0.597657,-0.25 -1.226563,-0.44141 -1.867188,-0.57031 -1.292969,-0.26172 -2.621093,-0.26172 -3.910156,0 -0.632813,0.1289 -1.261719,0.32031 -1.871094,0.57031 -0.601562,0.25 -1.179687,0.55859 -1.71875,0.91797 -0.550781,0.35937 -1.0625,0.78125 -1.523437,1.24218 -1.867188,1.85938 -2.929688,4.4375 -2.929688,7.07032 0,2.6289 1.0625,5.21093 2.929688,7.07031 0.460937,0.46094 0.972656,0.87891 1.523437,1.25 z m 0,0"
     id="path1817" />
</svg>
