<?xml version="1.0" encoding="UTF-8" standalone="no"?>
<svg
   id="Capa_1"
   enable-background="new 0 0 512 512"
   height="512"
   viewBox="0 0 270.0007 512"
   width="270.0007"
   version="1.1"
   sodipodi:docname="firecocktail.svg"
   inkscape:version="1.1.1 (c3084ef, 2021-09-22)"
   xmlns:inkscape="http://www.inkscape.org/namespaces/inkscape"
   xmlns:sodipodi="http://sodipodi.sourceforge.net/DTD/sodipodi-0.dtd"
   xmlns="http://www.w3.org/2000/svg"
   xmlns:svg="http://www.w3.org/2000/svg">
  <defs
     id="defs18" />
  <sodipodi:namedview
     id="namedview16"
     pagecolor="#ffffff"
     bordercolor="#666666"
     borderopacity="1.0"
     inkscape:pageshadow="2"
     inkscape:pageopacity="0.0"
     inkscape:pagecheckerboard="0"
     showgrid="false"
     inkscape:zoom="1.7050781"
     inkscape:cx="135.18442"
     inkscape:cy="263.0378"
     inkscape:window-width="1312"
     inkscape:window-height="1081"
     inkscape:window-x="0"
     inkscape:window-y="25"
     inkscape:window-maximized="0"
     inkscape:current-layer="Capa_1" />
  <g
     id="g13"
     transform="translate(-121.00027)">
    <path
       d="M 388.492,205.376 C 386.594,203.229 383.866,202 381,202 h -11.82 c 1.707,-8.775 2.59,-17.231 2.59,-25.24 0,-0.61 -0.01,-1.28 -0.02,-2.04 -0.05,-2.64 -1.11,-5.11 -2.99,-6.95 -1.93,-1.89 -4.5,-2.93 -7.19,-2.86 -5.51,0.1 -9.92,4.66 -9.82,10.18 0.01,0.59 0.02,1.14 0.02,1.67 0,7.87 -1.01,16.36 -3,25.24 h -34.304 c 3.79,-22.287 -2.662,-43.409 -19.032,-61.726 -14.192,-15.881 -30.962,-23.967 -31.669,-24.303 -2.932,-1.397 -6.361,-1.273 -9.194,0.317 -2.833,1.59 -4.716,4.465 -5.051,7.696 -1.197,11.546 -6.65,29.874 -14.556,32.541 -25.354,8.555 -34.15,23.837 -37.065,35.151 -0.955,3.706 -1.337,7.206 -1.402,10.324 H 163.31 c -1.42,-5.7 -3.1,-14.57 -3.08,-24.5 0,-11.87 2.31,-22.5 6.88,-31.58 5.9,-11.64 15.16,-20.58 28.33,-27.35 21.47,-10.9 32.11,-28.18 37.25,-40.76 5.32,-12.94 8.03,-27.85 8.05,-44.31 0,-2.56 -0.06,-5.15 -0.2,-7.71 2.84,2.59 5.88,6.08 8.79,10.1 5.54,7.55 10.97,17.14 16.22,26.41 1.75,3.09 12.24,20.9 16.35,26.2 3.65,4.61 7.86,9.28 13.95,12.22 5.92,2.78 11.44,5.78 16.38,8.9 1.61,1.02 3.45,1.55 5.34,1.55 3.45,0 6.62,-1.74 8.46,-4.66 2.94,-4.66 1.55,-10.85 -3.11,-13.79 -5.67,-3.58 -11.91,-6.98 -18.57,-10.1 -0.93,-0.41 -2.73,-1.79 -4.66,-3.99 C 296.48,75.07 284.28,54.79 282.73,52.06 277.04,41.99 271.15,31.59 264.22,22.4 259.07,15.62 254.28,10.74 249.15,7.06 242.74,2.44 235.67,0 228.72,0 h -0.06 c -2.98,0 -5.89,1.39 -7.77,3.71 -1.88,2.32 -2.63,5.45 -2.01,8.37 l 0.01,0.03 c 0.02,0.09 1.86,8.98 1.85,21.39 0.02,9.5 -1.11,23.58 -6.54,36.68 -5.82,13.93 -14.93,23.93 -27.85,30.58 -8.74,4.44 -16.42,9.95 -22.83,16.39 -5.87,5.9 -10.67,12.56 -14.29,19.8 -5.96,11.91 -8.99,25.55 -9,40.55 0.015,9.469 1.204,17.915 2.567,24.5 H 131 c -2.866,0 -5.594,1.229 -7.492,3.376 -1.898,2.147 -2.784,5.005 -2.432,7.85 l 35.809,289.999 c 0.619,5.011 4.876,8.775 9.925,8.775 h 178.382 c 5.049,0 9.306,-3.764 9.925,-8.775 l 35.809,-289.999 c 0.35,-2.844 -0.536,-5.703 -2.434,-7.85 z M 241.357,175.475 c 14.65,-4.943 21.813,-21.655 25.213,-34.382 4.314,3.136 9.306,7.31 13.951,12.508 13.026,14.576 17.571,30.829 13.559,48.399 h -77.69 c 0.299,-7.589 4.359,-19.571 24.967,-26.525 z M 369.688,222 363.511,272 H 148.489 l -6.177,-50 z m -19.53,158.157 C 346.276,409.734 321.926,432 293.385,432 h -74.77 c -28.541,0 -52.891,-22.266 -56.773,-51.843 L 150.958,292 H 361.041 Z M 336.35,492 h -160.7 l -7.325,-59.33 c 13.613,12.087 31.257,19.33 50.29,19.33 h 74.77 c 19.033,0 36.676,-7.243 50.29,-19.33 z"
       id="path9" />
    <circle
       cx="349.63501"
       cy="132.17"
       r="10"
       id="circle11" />
  </g>
</svg>
