<?xml version="1.0" encoding="UTF-8" standalone="no"?>
<!-- Created with Inkscape (http://www.inkscape.org/) -->

<svg
   version="1.1"
   id="svg1322"
   width="680.61786"
   height="682.29889"
   viewBox="0 0 680.61786 682.2989"
   sodipodi:docname="fish.svg"
   inkscape:version="1.1.1 (c3084ef, 2021-09-22)"
   xmlns:inkscape="http://www.inkscape.org/namespaces/inkscape"
   xmlns:sodipodi="http://sodipodi.sourceforge.net/DTD/sodipodi-0.dtd"
   xmlns="http://www.w3.org/2000/svg"
   xmlns:svg="http://www.w3.org/2000/svg">
  <defs
     id="defs1326" />
  <sodipodi:namedview
     id="namedview1324"
     pagecolor="#ffffff"
     bordercolor="#666666"
     borderopacity="1.0"
     inkscape:pageshadow="2"
     inkscape:pageopacity="0.0"
     inkscape:pagecheckerboard="0"
     showgrid="false"
     inkscape:zoom="1.7050781"
     inkscape:cx="243.97709"
     inkscape:cy="385.61283"
     inkscape:window-width="3440"
     inkscape:window-height="1301"
     inkscape:window-x="0"
     inkscape:window-y="25"
     inkscape:window-maximized="1"
     inkscape:current-layer="g1328" />
  <g
     inkscape:groupmode="layer"
     inkscape:label="Image"
     id="g1328"
     transform="translate(138.55214,121.8099)">
    <path
       style="fill:#000000;stroke-width:1.33333"
       d="M 57.375991,559.38507 C 53.508031,557.81851 42.116697,545.03072 34.843657,534.0905 10.535856,497.52636 4.0708957,451.5186 17.198136,408.51656 l 1.8764,-6.14667 -6.146667,1.8764 c -45.466109,13.87944 -94.659966,5.6564 -131.594189,-21.99676 -16.29987,-12.20392 -19.88582,-16.50116 -19.88582,-23.83023 0,-5.75186 0.45139,-6.507 8,-13.38301 46.391551,-42.258 114.486026,-50.38518 169.666677,-20.24995 5.316667,2.90354 9.680987,5.11364 9.698493,4.91135 0.01747,-0.20229 0.605107,-11.16157 1.305787,-24.35395 3.28788,-61.90431 13.339934,-122.16422 27.995574,-167.82751 l 4.219521,-13.147 -24.097055,-24.32164 C 30.349537,71.900375 28.169696,68.465069 28.169696,52.663215 c 0,-16.718214 6.321721,-26.637454 26.574521,-41.697375 17.813628,-13.2461628 39.564868,-22.880022 60.718163,-26.892733 12.53617,-2.378072 39.85002,-2.750507 50.96936,-0.694987 l 7.47362,1.381575 13.10459,-10.509402 c 71.49543,-57.336721 157.12665,-92.062323 236.2977,-95.824623 40.25259,-1.91285 76.44293,7.93153 94.11125,25.599862 8.43668,8.43667 16.27553,23.515246 20.77964,39.971012 4.16401,15.213274 5.21424,61.7545812 1.92298,85.218003 -9.48516,67.619789 -44.18873,144.557073 -92.02987,204.028763 l -11.42432,14.20167 1.39028,7.52067 c 0.76464,4.13636 1.39027,14.84418 1.39027,23.79516 0,25.89416 -4.70573,45.27069 -16.57585,68.25343 -7.01284,13.57816 -21.38947,32.1659 -29.84607,38.58841 -7.5455,5.73056 -18.64162,8.93244 -27.71135,7.99636 -13.21281,-1.36368 -17.87629,-4.59041 -43.90403,-30.3778 l -24.30788,-24.08343 -15.16075,4.72568 c -28.71533,8.95072 -64.35621,16.6729 -98.49408,21.34035 -20.93161,2.86185 -57.32097,6.11159 -68.66667,6.13225 -5.13333,0.009 -12.46703,0.39344 -16.297114,0.85352 l -6.963801,0.83651 4.513694,8.15189 c 25.378481,45.83445 24.882721,101.37806 -1.30364,146.05829 -6.639907,11.32928 -19.949468,27.72635 -25.010321,30.81212 -4.542654,2.76981 -7.9062,3.13403 -12.344027,1.33668 z m 11.184267,-40.38851 c 7.597853,-11.66973 13.148987,-24.48461 16.484307,-38.05432 3.95644,-16.09673 3.899014,-41.76811 -0.127333,-56.94568 -3.14728,-11.86372 -11.102147,-29.41232 -17.640748,-38.91586 l -4.282293,-6.22409 -3.80884,4.56239 c -5.73328,6.86754 -15.265681,27.21521 -18.385001,39.24423 -7.19396,27.74212 -3.99384,58.15009 8.820481,83.81304 4.18684,8.38491 12.000333,20.85363 13.067867,20.85363 0.245306,0 2.887533,-3.75 5.871613,-8.33334 z M -1.2187978,380.65698 C 10.826243,377.519 31.17147,367.98108 38.02543,362.25913 l 4.562387,-3.80884 -6.224094,-4.28229 C 26.86019,347.6294 9.3115892,339.67453 -2.5521309,336.52725 c -8.1475771,-2.16144 -14.7601901,-2.84765 -28.0000011,-2.90567 -19.747901,-0.0865 -34.189669,2.74719 -49.612351,9.73474 -8.039319,3.64237 -25.720987,14.2286 -25.720987,15.39946 0,2.4305 25.574495,16.13091 37.1221,19.88654 20.267617,6.59165 46.92411,7.38673 67.5445722,2.01466 z M 381.99958,359.76044 c 13.35227,-14.58996 24.21985,-35.58152 28.70579,-55.44747 2.49042,-11.02871 4.09708,-31.64975 2.46596,-31.64975 -0.69224,0 -2.7132,1.55464 -4.49104,3.45476 -10.50833,11.23113 -42.83072,32.60441 -67.72463,44.78312 l -16.49222,8.06839 15.15889,15.32205 c 20.38945,20.60892 24.32979,23.46514 31.15888,22.58602 4.23815,-0.54559 6.54181,-2.00707 11.21837,-7.11712 z m -236.13575,-17.1668 c 101.36235,-8.84874 184.49185,-36.56306 236.4989,-78.84573 27.44428,-22.31268 65.7097,-70.26853 85.71208,-107.41803 l 6.28168,-11.66666 h -17.27965 c -29.54907,0 -53.69961,-5.86439 -80.58938,-19.56924 -19.40584,-9.89052 -23.80293,-15.57374 -19.44666,-25.134684 1.70717,-3.746867 7.31246,-7.29608 11.52272,-7.29608 1.41977,0 9.39956,3.482053 17.73288,7.737904 25.27709,12.90908 43.44652,17.53646 68.99775,17.57228 9.08212,0.0133 20.30837,-0.67618 24.94722,-1.53093 l 8.4343,-1.55408 5.9068,-16.112587 c 24.18815,-65.980469 28.78557,-130.600285 11.69972,-164.447174 -4.88821,-9.683501 -9.48289,-14.278177 -19.16639,-19.166387 -34.49365,-17.412342 -102.59343,-12.11956 -168.57091,13.101502 l -12.23632,4.677549 -1.59109,9.433107 c -3.48587,20.666592 0.0433,55.8164902 7.36316,73.335334 4.73241,11.326253 0.77493,20.481907 -9.44572,21.852787 -10.11194,1.356293 -14.88354,-6.178587 -22.01954,-34.7712448 -1.90907,-7.649309 -2.91409,-17.3084322 -3.44912,-33.1490192 l -0.75503,-22.354289 -11.44445,6.187911 C 222.22446,-23.413761 173.81787,16.58172 151.18887,47.483801 105.90106,109.32868 80.488898,202.02372 75.967458,321.86629 l -0.92572,24.5364 24.536401,-0.95519 c 13.495021,-0.52536 34.323581,-1.8096 46.285691,-2.85386 z M 320.10645,80.327802 c -2.32251,-1.997746 -3.73583,-4.833893 -4.22455,-8.477547 -0.63198,-4.71184 -0.19701,-6.076907 3.11898,-9.788133 2.95788,-3.310454 5.00568,-4.345347 8.8118,-4.453241 8.80917,-0.249706 15.74494,7.789774 13.71116,15.893041 -2.33515,9.304 -14.1564,13.071507 -21.41739,6.82588 z m 104.5722,-83.5620248 c -5.20081,-5.200812 -5.43025,-12.8727772 -0.53149,-17.7715462 3.98189,-3.981886 7.72243,-4.909508 13.6272,-3.379427 8.98492,2.328225 11.73901,14.6192732 4.82504,21.5332572 -5.05168,5.051675 -12.64885,4.889612 -17.92075,-0.382284 z M 100.62103,80.329882 c 12.09611,-24.724987 29.01409,-50.521015 43.30311,-66.027268 2.88584,-3.131671 4.86934,-6.0715678 4.4078,-6.5331088 -0.46154,-0.461541 -7.3246,-0.178868 -15.25124,0.628161 -27.85053,2.8355298 -50.826348,12.7831208 -71.252589,30.8494678 -6.607467,5.84408 -8.88856,11.606547 -6.98028,17.633494 0.768693,2.427814 35.909614,39.782588 37.424841,39.782588 0.19672,0 3.95348,-7.35 8.348358,-16.333334 z"
       id="path2667" />
  </g>
</svg>
