<?xml version="1.0" encoding="UTF-8" standalone="no"?>
<!-- Created with Inkscape (http://www.inkscape.org/) -->

<svg
   version="1.1"
   id="svg1322"
   width="406.30737"
   height="512.04895"
   viewBox="0 0 406.30737 512.04896"
   sodipodi:docname="fries.svg"
   inkscape:version="1.1.1 (c3084ef, 2021-09-22)"
   xmlns:inkscape="http://www.inkscape.org/namespaces/inkscape"
   xmlns:sodipodi="http://sodipodi.sourceforge.net/DTD/sodipodi-0.dtd"
   xmlns="http://www.w3.org/2000/svg"
   xmlns:svg="http://www.w3.org/2000/svg">
  <defs
     id="defs1326" />
  <sodipodi:namedview
     id="namedview1324"
     pagecolor="#ffffff"
     bordercolor="#666666"
     borderopacity="1.0"
     inkscape:pageshadow="2"
     inkscape:pageopacity="0.0"
     inkscape:pagecheckerboard="0"
     showgrid="false"
     inkscape:zoom="1.7050781"
     inkscape:cx="87.972509"
     inkscape:cy="243.09737"
     inkscape:window-width="3440"
     inkscape:window-height="1301"
     inkscape:window-x="0"
     inkscape:window-y="25"
     inkscape:window-maximized="1"
     inkscape:current-layer="g1328" />
  <g
     inkscape:groupmode="layer"
     inkscape:label="Image"
     id="g1328"
     transform="translate(-17.197499,72.922649)">
    <path
       style="fill:#000000"
       d="m 70.375695,437.56716 c -4.18231,-1.81157 -8.635373,-5.86572 -10.623124,-9.67149 -1.69441,-3.24414 -4.920851,-27.59461 -22.423563,-169.23421 -7.136292,-57.75 -14.588496,-117.15 -16.560452,-132 -1.971957,-14.85 -3.578919,-29.37257 -3.571028,-32.27237 0.01788,-6.572 3.541347,-13.0469 8.919319,-16.3906 3.515123,-2.1855 5.023235,-2.36945 23.258848,-2.83703 l 19.5,-0.5 0.5,-31.22368 C 70.005935,4.0809393 67.695645,7.7825743 91.900905,7.3470023 L 109.37569,7.0325443 V -18.855945 c 0,-17.941668 0.36672,-26.693362 1.19469,-28.510537 2.27692,-4.997316 4.776,-5.472058 28.80532,-5.472058 23.39985,0 26.61804,0.549276 28.97036,4.944609 0.58733,1.097437 1.02964,9.040205 1.02964,18.48965 v 16.565741 h 10.5 10.5 l 0.0222,-26.75 c 0.024,-28.919749 0.0879,-29.282343 5.66202,-32.13296 3.46813,-1.773618 45.65635,-1.509387 49.17071,0.307964 4.48429,2.318895 5.14507,5.224253 5.14507,22.622049 v 15.952947 h 10.5 10.5 v -6.565741 c 0,-12.888085 1.21966,-13.434259 30,-13.434259 24.02931,0 26.52839,0.474742 28.80531,5.472058 0.82797,1.817175 1.19469,10.568869 1.19469,28.510537 V 7.0325443 l 17.47479,0.314458 c 24.20526,0.435572 21.89497,-3.266063 22.52521,36.0907777 l 0.5,31.22368 19.5,0.5 c 18.23561,0.46758 19.74373,0.65153 23.25885,2.83703 5.40586,3.36104 8.88738,9.78722 8.87025,16.37271 -0.021,8.07947 -10.03284,83.66326 -11.36447,85.79553 -2.51474,4.02675 -9.15273,5.46294 -13.78673,2.9829 -4.60969,-2.46703 -4.9341,-5.91868 -2.39552,-25.48817 3.28108,-25.2934 4.15282,-22.5 -7.02162,-22.5 h -9.43923 l -7.81077,5.61208 c -47.96918,34.46615 -110.67183,52.70841 -166.49619,48.4392 -26.10598,-1.99647 -52.44966,-7.52141 -74.47392,-15.61906 -20.54908,-7.55527 -48.197795,-22.33595 -63.380425,-33.88244 l -5.982565,-4.54978 h -9.488832 c -7.457349,0 -9.488833,0.29912 -9.488833,1.39713 0,1.63035 28.68421,233.28523 29.57549,238.85287 l 0.60031,3.75 H 220.3757 368.1999 l 0.59502,-3.75 c 0.32726,-2.0625 3.96517,-30.975 8.08425,-64.25 l 7.48923,-60.5 3.01943,-2.75 c 3.97302,-3.61851 8.73169,-3.67789 12.91114,-0.16111 2.56265,2.15632 3.07673,3.31182 3.07673,6.91549 0,4.35412 -8.10068,71.28078 -16.42609,135.71001 -2.56302,19.83485 -5.10929,35.90838 -5.94054,37.5 -2.05056,3.92631 -6.49561,7.91311 -10.85125,9.73256 -3.3052,1.38066 -19.95492,1.54871 -150,1.51391 -128.451475,-0.0344 -146.708745,-0.22393 -149.782125,-1.55516 z m 293.849745,-26.6557 c 0.63405,-4.5375 1.15224,-9.0375 1.15154,-10 -10e-4,-1.65861 -7.57319,-1.75 -145.00128,-1.75 -137.428095,0 -145.000075,0.0914 -145.001285,1.75 -7e-4,0.9625 0.51749,5.4625 1.15154,10 l 1.15282,8.25 H 220.3757 363.07262 Z M 253.38396,167.60124 c 14.17604,-2.03642 34.55486,-7.14513 47.63503,-11.94148 21.18752,-7.76923 54.64003,-26.30302 68.45072,-37.92395 2.97618,-2.50429 3.45031,-2.57435 17.42144,-2.57435 h 14.362 l 0.64952,-4.75 c 0.35724,-2.6125 0.99169,-7.1125 1.40989,-10 l 0.76037,-5.25 h -19.36376 -19.36376 l -7.73485,6.17078 c -34.45138,27.4849 -76.789,44.18363 -121.3493,47.86237 -52.63095,4.34503 -111.05501,-13.87854 -153.161105,-47.77385 l -7.77555,-6.2593 H 56.00154 36.67847 l 0.760365,5.25 c 0.418201,2.8875 1.05265,7.3875 1.409886,10 l 0.64952,4.75 h 14.073772 14.073772 l 8.61496,6.4125 c 37.454115,27.87878 77.297395,42.63035 129.614955,47.98863 7.98951,0.81827 36.29268,-0.35021 47.50826,-1.96135 z M 230.3757,38.66146 v -91.5 h -10 -10 v 91.5 91.5 h 10 10 z m -40,28.5 V 7.1614603 h -10.5 -10.5 V 65.14241 123.12336 l 2.25,0.52487 c 1.2375,0.28868 4.95,1.15976 8.25,1.93574 3.3,0.77597 7.0125,1.44836 8.25,1.49418 l 2.25,0.0833 z m 69,58.93039 c 2.475,-0.56139 6.1875,-1.46773 8.25,-2.01409 l 3.75,-0.99339 V 55.12292 -12.83854 h -10.5 -10.5 v 70 70 l 2.25,-0.0245 c 1.2375,-0.0134 4.275,-0.48376 6.75,-1.04516 z m -110,-84.43039 v -74.5 h -10 -10 v 70.35913 70.35913 l 8.75,4.07879 c 4.8125,2.24333 9.3125,4.10672 10,4.14087 0.98937,0.0491 1.25,-15.47148 1.25,-74.43792 z m 152.95726,70.35757 9.04274,-4.14244 V 37.51903 -32.83854 h -10 -10 v 74.5 c 0,46.78267 0.35614,74.5 0.95726,74.5 0.5265,0 5.0265,-1.86409 10,-4.14243 z M 109.37569,61.66146 v -34.5 H 98.859365 88.343025 l 0.26634,26.731 0.26633,26.73101 9.97857,7.76899 c 5.488215,4.27295 10.100715,7.769 10.249995,7.769 0.14929,0 0.27143,-15.525 0.27143,-34.5 z m 226.34564,31.32865 c 1.7349,-1.19424 6.19187,-4.58863 9.90437,-7.5431 l 6.75,-5.37175 v -26.4569 -26.4569 h -10.5 -10.5 v 34 c 0,18.7 0.26803,34 0.59563,34 0.3276,0 2.0151,-0.97711 3.75,-2.17135 z M 204.09548,352.59447 c -8.16922,-1.97915 -19.15308,-7.32223 -26.50617,-12.89387 -10.94843,-8.29594 -18.82896,-19.55415 -23.82672,-34.03914 -2.46011,-7.13011 -2.76083,-9.41357 -2.76564,-21 -0.005,-11.41343 0.31964,-13.97892 2.65787,-21.02108 6.26373,-18.8648 19.57761,-34.06925 37.0701,-42.33405 11.58066,-5.4716 24.37399,-7.51323 37.72193,-6.01987 16.17427,1.80957 29.80943,8.4965 41.42885,20.31747 8.25952,8.40279 13.55515,17.04377 17.1951,28.05753 2.30523,6.97517 2.64679,9.66535 2.66629,21 0.02,11.63792 -0.26739,13.83821 -2.74308,21 -8.25571,23.8825 -25.95629,40.57615 -49.37416,46.56544 -9.02551,2.30833 -24.79969,2.48128 -33.52437,0.36757 z m 32.38679,-20.80738 c 35.07295,-12.3811 45.18956,-56.97402 18.7866,-82.80931 -27.61869,-27.02487 -73.5712,-13.8641 -83.40408,23.88687 -6.59443,25.31773 8.51253,51.14202 35.01091,59.84872 6.84712,2.24979 21.94778,1.77735 29.60657,-0.92628 z M 395.63084,223.94777 c -1.78461,-0.46244 -3.88536,-1.84104 -4.66834,-3.06355 -4.51486,-7.04934 -0.30773,-15.72276 7.62649,-15.72276 8.50139,0 13.138,10.37598 7.26225,16.25174 -2.98642,2.98641 -5.79182,3.68213 -10.2204,2.53457 z"
       id="path2880" />
  </g>
</svg>
