<svg id="Capa_1" enable-background="new 0 0 512.5 512.5" height="512" viewBox="0 0 512.5 512.5" width="512" xmlns="http://www.w3.org/2000/svg"><path d="m509.612 103.111c-1.888-1.986-4.508-3.111-7.249-3.111h-143.19l-12.348-49.395c-7.445-29.795-34.097-50.605-64.811-50.605h-49.65c-16.542 0-30 13.458-30 30s13.458 30 30 30h48.27c4.663 0 8.708 3.159 9.839 7.686l8.08 32.314h-36.159c-2.741 0-5.361 1.125-7.249 3.111s-2.877 4.661-2.738 7.397l10.675 209.492h-252.946c-2.657 0-5.205 1.058-7.081 2.938-1.876 1.882-2.927 4.432-2.919 7.089.133 48.771 19.226 94.602 53.76 129.047 34.541 34.452 80.433 53.426 129.221 53.426 32.503 0 63.715-8.432 91.147-24.24 6.373 14.314 21.11 24.24 38.199 24.24h139.83c22.187 0 40.423-16.722 41.517-38.071l18.54-363.92c.14-2.738-.849-5.411-2.738-7.398zm-277.248-83.111c5.514 0 10 4.486 10 10s-4.486 10-10 10-10-4.486-10-10 4.486-10 10-10zm77.512 42.837c-3.358-13.446-15.383-22.837-29.242-22.837h-19.99c1.11-3.13 1.72-6.494 1.72-10s-.61-6.87-1.72-10h21.37c21.519 0 40.191 14.579 45.408 35.455l11.136 44.545h-19.389zm48.68 117.163h-19.385l-15.002-60h19.388zm-55.003-60 15.002 60h-42.582l-3.057-60zm-26.56 80h54.371 40 20c5.523 0 10-4.478 10-10s-4.477-10-10-10h-12.192l-14.999-60h127.669l-3.057 60h-16.421c-5.523 0-10 4.478-10 10s4.477 10 10 10h15.402l-12.227 240h-146.531c23.952-31.495 36.982-69.729 37.092-109.973.007-2.657-1.043-5.207-2.919-7.089-1.876-1.881-4.424-2.938-7.081-2.938h-72.992zm-5.732 213.73-65.813-73.73h98.822c-2.302 28.453-14.442 54.168-33.009 73.73zm-160.772 13.796 62.628-71.057v94.783c-23.353-1.91-44.861-10.445-62.628-23.726zm-48.524-87.526h99.009l-65.471 74.281c-18.865-19.629-31.214-45.56-33.538-74.281zm131.152 16.22 63.236 70.843c-17.884 13.543-39.614 22.257-63.236 24.19zm-172.648-16.22h21.443c2.622 37.807 20.153 71.57 46.743 95.441.254.281.522.554.813.811.273.241.559.459.85.665 24.866 21.634 57.329 34.75 92.8 34.75 35.771 0 68.48-13.344 93.427-35.307.305-.216.603-.445.888-.699.278-.248.535-.51.779-.78 26.239-23.837 43.51-57.372 46.112-94.881h21.443c-5.432 84.963-76.395 152.5-162.649 152.5-86.255 0-157.217-67.537-162.649-152.5zm431.825 152.5h-10.93v-14.5c0-5.522-4.477-10-10-10s-10 4.478-10 10v14.5h-30v-14.5c0-5.522-4.477-10-10-10s-10 4.478-10 10v14.5h-30v-14.5c0-5.522-4.477-10-10-10s-10 4.478-10 10v14.5h-8.9c-10.207 0-18.78-6.574-20.997-15.484 6.978-5.148 13.632-10.831 19.921-17.016h163.132l-.683 13.408c-.549 10.706-10.011 19.092-21.543 19.092z"/><circle cx="431.364" cy="190.002" r="10.064"/><circle cx="421.3" cy="369.967" r="10.064"/><circle cx="440.961" cy="410.096" r="10.064"/></svg>