<?xml version="1.0" encoding="UTF-8" standalone="no"?>
<!-- Created with Inkscape (http://www.inkscape.org/) -->

<svg
   version="1.1"
   id="svg1322"
   width="545.57507"
   height="505.48938"
   viewBox="0 0 545.57507 505.48939"
   sodipodi:docname="fruit.svg"
   inkscape:version="1.1.1 (c3084ef, 2021-09-22)"
   xmlns:inkscape="http://www.inkscape.org/namespaces/inkscape"
   xmlns:sodipodi="http://sodipodi.sourceforge.net/DTD/sodipodi-0.dtd"
   xmlns="http://www.w3.org/2000/svg"
   xmlns:svg="http://www.w3.org/2000/svg">
  <defs
     id="defs1326" />
  <sodipodi:namedview
     id="namedview1324"
     pagecolor="#ffffff"
     bordercolor="#666666"
     borderopacity="1.0"
     inkscape:pageshadow="2"
     inkscape:pageopacity="0.0"
     inkscape:pagecheckerboard="0"
     showgrid="false"
     inkscape:zoom="1.7050781"
     inkscape:cx="100.28866"
     inkscape:cy="245.4433"
     inkscape:window-width="3440"
     inkscape:window-height="1301"
     inkscape:window-x="0"
     inkscape:window-y="25"
     inkscape:window-maximized="1"
     inkscape:current-layer="g1328" />
  <g
     inkscape:groupmode="layer"
     inkscape:label="Image"
     id="g1328"
     transform="translate(-4.8211127,-17.936304)">
    <path
       style="fill:#000000;stroke-width:1.06667"
       d="M 117.59961,522.22141 C 28.336708,507.99134 -21.275125,411.84265 18.957167,331.05043 38.635063,291.5344 77.545308,264.34717 122.96118,258.38112 l 4.82824,-0.63426 1.25522,-6.60493 c 1.3834,-7.27943 0.92008,-8.22322 -4.05143,-8.25286 -1.50685,-0.009 -5.34685,-0.77768 -8.53333,-1.70821 -20.01626,-5.84524 -37.760097,-24.27552 -43.096642,-44.76391 -1.886989,-7.24464 -2.133258,-21.49393 -0.502866,-29.09618 1.99162,-9.28661 7.397844,-11.84114 25.160221,-11.88861 16.533247,-0.0442 29.827407,5.31521 42.360667,17.07727 7.53885,7.07497 12.56458,14.87273 16.09216,24.96806 1.36126,3.89565 2.65152,7.09165 2.86727,7.1022 0.21574,0.0107 3.22115,-1.27591 6.67867,-2.85882 3.45754,-1.58292 8.35463,-3.11114 10.88241,-3.39607 4.04816,-0.45627 4.98347,-0.13052 7.8469,2.73291 6.55349,6.55347 3.58185,14.39433 -7.19051,18.97265 -13.05642,5.54904 -25.19979,20.44516 -27.49507,33.72785 -0.61431,3.55493 -0.43071,3.99906 1.82679,4.41899 16.25631,3.02404 22.31315,4.40926 28.54053,6.52733 l 7.3341,2.49449 4.98998,-7.30306 c 5.0092,-7.33125 14.49089,-17.43584 34.00817,-36.24239 15.10336,-14.55338 16.59477,-17.5924 19.35884,-39.4475 6.89645,-54.52919 25.57525,-88.125219 56.63249,-101.860203 5.69293,-2.517681 20.89669,-5.873116 26.61159,-5.873116 2.13906,0 2.62355,-0.91551 4.17506,-7.889268 0.96537,-4.339098 3.6779,-11.865166 6.02786,-16.724598 8.00448,-16.552231 26.93145,-32.207493 40.83268,-33.774364 3.75306,-0.423023 5.06176,-0.03131 7.91419,2.368853 2.84884,2.397148 3.41361,3.614292 3.39383,7.3142 -0.0311,5.840048 -2.14085,8.202785 -10.9187,12.228607 -9.83049,4.508595 -17.76605,12.228107 -22.48695,21.874721 -2.06406,4.217684 -4.06809,9.860177 -4.4534,12.538875 l -0.70057,4.87036 4.625,1.38408 c 25.90382,7.751978 43.45619,29.003053 50.26824,60.860963 3.08758,14.43968 3.06876,43.68049 -0.0419,65.08089 -3.33292,22.92977 -2.45276,26.31266 13.61529,52.3303 4.86964,7.885 9.69341,15.73656 10.71948,17.44791 l 1.86557,3.11154 5.29773,-10.57821 c 2.91379,-5.81802 7.05637,-15.37821 9.20578,-21.24487 6.4379,-17.57179 6.83434,-18.26746 11.95818,-20.9848 5.69892,-3.02232 6.34915,-4.76738 7.88017,-21.14853 0.63056,-6.74667 1.37977,-13.78296 1.66493,-15.63621 1.50592,-9.78719 23.69646,-20.7796 38.98293,-19.31077 7.10939,0.68313 10.11234,3.62071 11.60903,11.35636 2.07625,10.73107 6.24188,22.94572 9.65942,28.32379 1.84067,2.89657 6.21225,8.25072 9.71464,11.89809 6.10598,6.35875 6.42928,6.97587 7.85834,15.00016 3.57039,20.04803 3.0292,58.32114 -1.17091,82.80714 -4.22489,24.63049 -17.21119,59.6593 -31.72033,85.56142 -42.30889,75.53103 -112.29473,117.86666 -194.84761,117.86666 -32.9451,0 -64.10974,-6.09816 -96.85308,-18.95178 l -10.54498,-4.13951 -3.64794,2.59416 c -5.37475,3.82217 -21.68146,11.4486 -30.87605,14.44032 -16.90849,5.50167 -43.46688,7.63089 -60.77188,4.87217 z m 40.73026,-21.7709 c 9.92001,-2.06231 20.22071,-5.4153 26.878,-8.74908 l 5.20827,-2.60815 -8.10812,-4.62124 c -17.51835,-9.98464 -42.32049,-27.44742 -51.62707,-36.3498 -3.87414,-3.70589 -4.54801,-4.98452 -4.54801,-8.62963 0,-7.1913 5.59517,-16.80947 15.52223,-26.68293 10.99455,-10.93519 11.99496,-11.18516 29.60177,-7.39657 14.23569,3.06319 32.12473,5.43409 33.6922,4.46534 1.8031,-1.11437 3.61269,-15.8121 2.96189,-24.05685 -0.34799,-4.40854 -1.82959,-11.99055 -3.29245,-16.84889 -2.59769,-8.62727 -2.63791,-10.09483 -0.40507,-14.78216 2.28104,-4.78848 10.43123,-6.11987 15.0797,-2.46338 3.21616,2.52984 7.46603,14.74395 9.36916,26.92692 1.15449,7.39058 0.78631,20.78644 -0.78014,28.38425 l -0.74887,3.63227 10.00498,-0.75527 c 5.50275,-0.4154 10.31217,-1.25231 10.68762,-1.8598 1.46491,-2.37026 2.00736,-18.14983 0.96967,-28.20693 -1.50054,-14.54307 -4.40684,-24.53321 -11.14478,-38.30921 -18.97008,-38.78508 -57.02521,-62.4 -100.55674,-62.4 -50.553968,0 -94.374773,34.21073 -107.77541,84.13986 -2.418314,9.01033 -2.753753,12.33906 -2.753753,27.3268 0,15.13214 0.323109,18.27291 2.850521,27.70829 11.607262,43.33242 46.68087,75.18885 91.384142,83.00178 6.81947,1.19187 30.23082,0.65189 37.53026,-0.86562 z m 31.80307,-157.99676 c -4.16356,-2.94018 -5.26283,-4.86164 -5.29941,-9.26307 -0.0462,-5.55503 4.57023,-10.31795 10.00053,-10.31795 5.79991,0 10.71706,4.84395 10.71706,10.5575 0,7.98832 -9.23251,13.39165 -15.41818,9.02352 z m 158.39999,158.05463 c 67.49102,-9.65072 120.50968,-49.72831 153.85638,-116.30232 9.56199,-19.08973 19.53225,-46.92688 22.73147,-63.46666 3.84526,-19.87977 5.17246,-50.14924 3.08903,-70.4517 l -1.12311,-10.94441 -6.44831,-7.03528 c -7.07335,-7.7172 -14.4388,-21.51734 -17.56053,-32.90194 -1.04983,-3.82862 -2.41931,-6.66666 -3.21696,-6.66666 -0.76392,0 -3.0679,0.80064 -5.11997,1.77921 -3.17438,1.51375 -3.80939,2.42883 -4.25617,6.13333 -0.28882,2.39476 -1.0316,8.74927 -1.65063,14.12113 -1.75608,15.23894 -5.54328,23.42895 -12.82226,27.72874 -2.47743,1.46346 -4.00616,4.05929 -7.09723,12.0514 -17.09965,44.21178 -43.45183,81.57328 -79.31505,112.45098 -41.42759,35.66855 -87.24114,56.29104 -140.26665,63.13959 -23.52157,3.03794 -55.62425,1.5137 -83.62962,-3.97073 l -6.82963,-1.33749 -4.63704,5.12177 c -2.55038,2.81698 -4.63704,5.45268 -4.63704,5.85709 0,1.12868 20.63748,16.12563 32,23.25393 34.87661,21.87989 69.01691,34.95277 106.66666,40.84438 15.54637,2.43278 45.35835,2.72743 60.26666,0.59564 z m -40.73781,-23.97892 c -3.40969,-1.47111 -5.87552,-5.83413 -5.87552,-10.3961 0,-3.06735 0.72455,-4.6356 3.13795,-6.79198 2.72771,-2.4372 4.43338,-2.90155 13.04653,-3.55176 19.09413,-1.44142 41.15044,-7.26062 55.96523,-14.76555 8.49915,-4.30551 14.43492,-4.53035 18.27378,-0.69219 3.38401,3.38339 3.85863,8.97888 1.11657,13.16379 -3.55765,5.42965 -31.25514,16.35816 -52.3934,20.67268 -12.5401,2.55956 -29.94792,3.79492 -33.27114,2.36111 z m 95.58909,-37.30802 c -8.17925,-8.17924 0.84816,-21.07523 11.59103,-16.5582 9.69265,4.07546 6.06474,19.67615 -4.57565,19.67615 -2.88547,0 -4.70701,-0.80957 -7.01538,-3.11795 z M 283.9996,401.20474 c 42.22817,-12.10911 83.47092,-38.37056 115.24229,-73.38089 5.24849,-5.78356 12.26027,-14.12635 15.58173,-18.53954 l 6.03902,-8.02398 -4.00829,-8.12713 c -2.20455,-4.46993 -7.87036,-14.36713 -12.59068,-21.9938 -19.31975,-31.2151 -21.7814,-40.95143 -17.25995,-68.26666 2.70937,-16.36799 2.77985,-45.68422 0.13978,-58.13333 -6.30619,-29.73637 -26.67132,-46.892834 -55.67724,-46.904901 -14.79463,-0.0062 -25.50296,4.570121 -36.26666,15.498811 -15.19528,15.4282 -23.67788,38.46086 -28.74721,78.05686 -2.84946,22.25682 -7.83896,31.51361 -26.52824,49.2166 -17.7295,16.79387 -25.11963,24.56758 -29.29486,30.81537 -2.06419,3.08885 -3.56031,5.75883 -3.32471,5.93329 0.23559,0.17447 3.78836,2.6611 7.89502,5.52586 15.44711,10.7757 32.88247,31.21586 41.85563,49.06899 8.90234,17.71224 13.29975,37.00651 13.31504,58.42166 0.01,13.08301 0.2021,14.64641 1.75323,14.21889 0.95852,-0.26418 6.30277,-1.78793 11.8761,-3.3861 z m 64.84538,-187.18919 c -3.64046,-3.64045 -3.63999,-3.62386 -0.80141,-28.20948 1.41412,-12.24795 0.68837,-28.6942 -1.60206,-36.30473 -1.15443,-3.83587 -3.00069,-6.53875 -6.94069,-10.16098 -4.7373,-4.35522 -5.36789,-5.43865 -5.36789,-9.22251 0,-8.67674 8.49802,-12.73891 17.22014,-8.23146 7.43786,3.84376 13.51984,13.30583 16.5687,25.77683 3.20881,13.12527 2.08716,48.78622 -1.94569,61.8595 -2.44544,7.92739 -11.35889,10.26505 -17.1311,4.49283 z m -209.9247,4.05719 c -0.0572,-20.48828 -15.84869,-38.44906 -36.35346,-41.34739 -9.556679,-1.35083 -9.852003,-1.09102 -9.25922,8.14581 1.332364,20.76107 19.02191,37.17231 40.55868,37.62776 l 5.06666,0.10715 -0.0127,-4.53333 z"
       id="path2241" />
  </g>
</svg>
