<?xml version="1.0" encoding="UTF-8" standalone="no"?>
<!-- Created with Inkscape (http://www.inkscape.org/) -->

<svg
   width="111.33602mm"
   height="211.53943mm"
   viewBox="0 0 111.33602 211.53943"
   version="1.1"
   id="svg5"
   inkscape:version="1.1.1 (c3084ef, 2021-09-22)"
   sodipodi:docname="gintonic.svg"
   xmlns:inkscape="http://www.inkscape.org/namespaces/inkscape"
   xmlns:sodipodi="http://sodipodi.sourceforge.net/DTD/sodipodi-0.dtd"
   xmlns="http://www.w3.org/2000/svg"
   xmlns:svg="http://www.w3.org/2000/svg">
  <sodipodi:namedview
     id="namedview7"
     pagecolor="#ffffff"
     bordercolor="#666666"
     borderopacity="1.0"
     inkscape:pageshadow="2"
     inkscape:pageopacity="0.0"
     inkscape:pagecheckerboard="0"
     inkscape:document-units="mm"
     showgrid="false"
     inkscape:zoom="0.5499273"
     inkscape:cx="-182.75143"
     inkscape:cy="639.1754"
     inkscape:window-width="3440"
     inkscape:window-height="1301"
     inkscape:window-x="0"
     inkscape:window-y="25"
     inkscape:window-maximized="0"
     inkscape:current-layer="layer1"
     fit-margin-top="0"
     fit-margin-left="0"
     fit-margin-right="0"
     fit-margin-bottom="0" />
  <defs
     id="defs2" />
  <g
     inkscape:label="Layer 1"
     inkscape:groupmode="layer"
     id="layer1"
     transform="translate(-46.264917,-47.276807)">
    <path
       style="fill:#000000;stroke-width:0.409054"
       d="m 54.968113,258.33944 c -3.98454,-1.10522 -7.5178,-4.93047 -8.34855,-9.03847 -0.30449,-1.50574 -0.40573,-17.31151 -0.3312,-51.70937 l 0.10735,-49.54076 1.11205,-1.13784 c 1.55192,-1.5879 3.90713,-1.58797 5.45917,-1.6e-4 l 1.11205,1.13768 0.20219,35.47242 c 0.20066,35.20374 0.20878,35.48698 1.07128,37.39614 1.1109,2.45898 3.74415,5.15342 6.14729,6.29014 1.78708,0.84531 2.55488,0.89541 15.527956,1.01317 7.506353,0.0681 13.647914,0.045 13.647914,-0.0514 0,-0.0964 -0.315119,-0.99008 -0.700265,-1.9859 -0.619684,-1.60224 -0.701094,-3.59611 -0.707492,-17.32732 -0.0072,-15.42022 -0.0012,-15.53206 0.961938,-17.97918 0.672767,-1.70937 1.723915,-3.24409 3.437074,-5.01831 2.900722,-3.00409 5.530835,-4.18521 10.223362,-4.5911 l 3.03026,-0.2621 -7.271505,-7.48775 c -3.999332,-4.11826 -7.758905,-8.29728 -8.354614,-9.28669 -1.517728,-2.52081 -2.318006,-6.73077 -1.84489,-9.70526 0.746696,-4.69449 1.399176,-5.59095 12.064059,-16.57524 5.49327,-5.65779 10.71566,-10.84854 11.6053,-11.53499 1.59011,-1.22693 1.59696,-1.24339 0.40439,-0.97079 -2.61888,0.59861 -11.50427,0.7538 -14.82183,0.25887 -8.977157,-1.33924 -17.252484,-5.49108 -23.950019,-12.01604 -3.979804,-3.87726 -6.276698,-6.91087 -8.53989,-11.27903 -7.137258,-13.775511 -7.201118,-29.206286 -0.177463,-42.882882 1.097886,-2.137825 1.996158,-3.953283 1.996158,-4.034351 0,-0.08107 -3.090098,-0.147398 -6.866883,-0.147398 h -6.86688 l -0.10872,30.61042 -0.10872,30.610431 -1.11205,1.13775 c -1.55205,1.58793 -3.90723,1.58787 -5.45917,-1.3e-4 l -1.11205,-1.13791 V 83.068739 49.571403 l 1.12125,-1.147298 1.12124,-1.147298 h 53.360127 53.36013 l 1.12124,1.147308 1.12124,1.147308 V 149.59323 249.61504 l -0.86908,1.92373 c -1.1109,2.45898 -3.74416,5.15343 -6.1473,6.29014 l -1.88004,0.88928 -45.89743,0.0799 c -36.616886,0.0637 -46.290017,-0.029 -47.838977,-0.45864 z m 93.372457,-9.0968 1.3749,-1.40685 v -7.70149 -7.7015 l -1.5857,1.02427 c -0.87213,0.56335 -2.73735,1.45014 -4.14492,1.97065 l -2.55922,0.94637 h -39.4273 -39.427307 l -2.55922,-0.94637 c -1.40757,-0.52051 -3.27279,-1.4073 -4.14492,-1.97065 l -1.58571,-1.02427 v 7.7015 7.70149 l 1.3749,1.40685 1.37491,1.40685 h 44.967347 44.96734 z m -15.83746,-22.33658 c 2.66831,-2.08334 2.69769,-2.29603 2.56817,-18.58819 l -0.11577,-14.56308 -0.97095,-1.393 c -1.96108,-2.81351 -2.67819,-2.93242 -17.74474,-2.9426 -10.46835,-0.007 -13.75202,0.11632 -14.77884,0.55532 -1.68311,0.71959 -3.357695,2.75166 -3.893065,4.72413 -0.554607,2.04335 -0.554607,26.27487 0,28.31821 0.52108,1.91983 2.185523,3.98277 3.803785,4.7145 0.97171,0.43937 4.24111,0.53741 15.41868,0.46238 l 14.18547,-0.0952 z m 12.2913,-1.08017 c 0.91873,-0.68098 2.14134,-1.96632 2.71693,-2.85629 2.19778,-3.39825 2.20413,-3.48717 2.20413,-30.83087 v -25.27685 l -7.58217,7.80181 c -4.49697,4.62724 -7.37205,7.8833 -7.06577,8.00208 1.32307,0.51312 4.71787,3.69458 5.79761,5.43329 2.33752,3.76412 2.43146,4.65796 2.27566,21.65393 -0.0779,8.49698 -0.28942,15.868 -0.47008,16.38005 -0.44585,1.26374 0.11355,1.18284 2.12369,-0.30715 z m -20.69413,-45.12971 c 1.50332,-0.58484 19.74775,-19.1774 20.58061,-20.97333 0.82094,-1.7702 0.84103,-4.61465 0.0435,-6.16199 -0.33565,-0.65122 -4.94561,-5.58931 -10.24436,-10.97355 -13.92832,-14.15301 -12.22565,-14.17937 -26.4838,0.4101 -14.25726,14.58858 -14.230053,12.85816 -0.42537,27.05473 5.24843,5.39742 10.09959,10.09475 10.78034,10.43851 1.44921,0.7318 4.14827,0.8283 5.74906,0.20553 z m 25.61519,-68.66286 V 77.689608 h -14.39556 c -12.15751,0 -14.60068,-0.09959 -15.71489,-0.64061 -2.95299,-1.433845 -2.95299,-5.560527 0,-6.994372 1.11421,-0.541015 3.55738,-0.64061 15.71489,-0.64061 h 14.39556 V 62.379763 55.345509 H 117.87153 86.027603 l 25.557487,26.17156 c 14.05663,14.39436 25.73587,26.663631 25.95388,27.265051 0.21802,0.60141 0.29327,1.53242 0.16724,2.0689 -0.65005,2.76707 -8.51052,8.88083 -15.07777,11.72728 l -2.21751,0.96114 2.01531,0.28024 c 2.95125,0.41039 4.6226,0.99071 6.66572,2.31444 1.00085,0.64844 6.0036,5.46837 11.11723,10.71095 5.11362,5.24258 9.34447,9.53196 9.40189,9.53196 0.0574,0 0.10439,-15.45467 0.10439,-34.34371 z m -36.9874,5.15623 c 3.69031,-0.77997 7.80522,-2.46087 11.45357,-4.67868 4.04962,-2.46175 4.04151,-2.43365 1.45647,-5.0459 l -2.21551,-2.23884 -1.10805,0.74127 c -2.40101,1.60623 -7.7254,3.92282 -10.48868,4.56352 -3.33273,0.77274 -9.1943,0.882 -12.33503,0.22993 -7.649112,-1.58808 -14.622913,-6.3463 -19.057551,-13.002931 -6.468327,-9.70932 -6.655961,-23.656884 -0.446977,-33.225596 l 1.470639,-2.26641 -2.282995,-2.322308 -2.28299,-2.322308 -1.189767,1.448229 c -1.803684,2.195509 -4.696451,8.469188 -5.723765,12.413388 -1.193301,4.581481 -1.291873,13.613445 -0.194181,17.792525 3.822678,14.553531 14.076843,24.795751 27.969057,27.936471 3.38789,0.76593 11.30199,0.75411 14.97576,-0.0223 z m -2.01939,-14.90139 c 2.35195,-0.62651 6.65618,-2.612361 6.65618,-3.070981 0,-0.12642 -2.33373,-2.61253 -5.18608,-5.52467 l -5.18607,-5.29481 -1.74758,6.74901 c -0.96116,3.71195 -1.83141,6.981761 -1.93388,7.266231 -0.27136,0.75333 4.39652,0.67459 7.39743,-0.12478 z M 96.074312,98.275149 c 1.517353,-5.46185 2.793985,-10.685 2.647529,-10.83194 -0.143131,-0.1436 -12.479519,3.05731 -12.843851,3.33258 -0.297019,0.22442 1.789821,3.31445 3.571584,5.28853 1.660427,1.83964 4.982447,4.383171 5.724724,4.383171 0.163087,0 0.568092,-0.977561 0.900014,-2.172341 z M 90.473422,80.98797 c 3.336157,-0.913733 6.328326,-1.758309 6.64926,-1.876836 0.396165,-0.146309 -1.094219,-1.936051 -4.641815,-5.574162 l -5.225344,-5.35866 -0.914596,1.548856 c -1.44934,2.454428 -2.547833,6.246081 -2.816311,9.721003 -0.200299,2.592455 -0.139443,3.20625 0.317651,3.203963 0.310978,-0.0016 3.294998,-0.75043 6.631155,-1.664164 z M 65.922746,211.79655 c -2.712613,-2.48004 -1.124617,-6.8509 2.489027,-6.8509 2.984534,0 4.758998,2.91472 3.468528,5.69738 -1.185104,2.55545 -3.858065,3.073 -5.957555,1.15352 z m 14.945885,-29.63771 c -1.702722,-1.74229 -1.711125,-4.02178 -0.02119,-5.75098 2.346617,-2.40116 6.593111,-0.5561 6.593111,2.86464 0,3.402 -4.245657,5.26666 -6.571921,2.88634 z M 62.514533,162.32402 c -1.13562,-0.8139 -1.91434,-2.86122 -1.5905,-4.18151 0.1454,-0.59276 0.7385,-1.52738 1.31801,-2.07693 2.942676,-2.79055 7.718055,0.61141 6.182602,4.40446 -0.666475,1.64641 -1.865049,2.45817 -3.62952,2.45817 -0.790662,0 -1.816932,-0.27189 -2.280592,-0.60419 z m -13.69252,-25.83943 c -2.57702,-1.12916 -3.25845,-4.54711 -1.30505,-6.5459 2.45557,-2.51263 6.54364,-0.7736 6.54364,2.78361 0,2.72477 -2.88224,4.79476 -5.23859,3.76229 z m 23.049808,-0.084 c -3.011781,-1.77215 -2.933962,-5.77584 0.143677,-7.39178 2.940549,-1.54395 6.465128,1.91574 5.173283,5.07804 -0.297702,0.72875 -0.82619,1.56676 -1.174412,1.86224 -0.899262,0.76308 -3.188909,1.01263 -4.142548,0.4515 z"
       id="path831" />
  </g>
</svg>
