<?xml version="1.0" encoding="UTF-8" standalone="no"?>
<!-- Created with Inkscape (http://www.inkscape.org/) -->

<svg
   width="58.208328mm"
   height="135.33131mm"
   viewBox="0 0 58.208328 135.33132"
   version="1.1"
   id="svg5"
   inkscape:version="1.1.1 (c3084ef, 2021-09-22)"
   sodipodi:docname="glasswithstraw.svg"
   xmlns:inkscape="http://www.inkscape.org/namespaces/inkscape"
   xmlns:sodipodi="http://sodipodi.sourceforge.net/DTD/sodipodi-0.dtd"
   xmlns="http://www.w3.org/2000/svg"
   xmlns:svg="http://www.w3.org/2000/svg">
  <sodipodi:namedview
     id="namedview7"
     pagecolor="#ffffff"
     bordercolor="#666666"
     borderopacity="1.0"
     inkscape:pageshadow="2"
     inkscape:pageopacity="0.0"
     inkscape:pagecheckerboard="0"
     inkscape:document-units="mm"
     showgrid="false"
     inkscape:zoom="0.27496365"
     inkscape:cx="-280.03702"
     inkscape:cy="-65.463198"
     inkscape:window-width="1720"
     inkscape:window-height="1302"
     inkscape:window-x="0"
     inkscape:window-y="25"
     inkscape:window-maximized="0"
     inkscape:current-layer="layer1" />
  <defs
     id="defs2" />
  <g
     inkscape:label="Layer 1"
     inkscape:groupmode="layer"
     id="layer1"
     transform="translate(-76.389442,-79.533104)">
    <path
       style="fill:#000000;stroke-width:0.264583"
       d="m 79.841502,214.52444 c -1.24444,-0.39673 -2.73459,-1.95166 -3.12768,-3.26367 -0.25137,-0.83901 -0.32438,-12.85748 -0.32438,-53.39979 v -52.31711 l 0.89958,-0.89958 c 0.87679,-0.87678 0.95458,-0.89958 3.06917,-0.89958 2.11459,0 2.19239,0.0228 3.06917,0.89958 1.22063,1.22063 1.22063,2.27187 0,3.4925 -0.49477,0.49477 -1.09009,0.89958 -1.32292,0.89958 -0.3607,0 -0.42333,0.40388 -0.42333,2.72981 v 2.72981 l 1.38906,0.44453 c 0.76398,0.2445 2.10344,0.86338 2.97656,1.3753 2.89172,1.69543 3.90163,2.08143 5.74214,2.1947 2.16423,0.1332 3.24458,-0.20716 6.39248,-2.01396 2.689128,-1.54347 5.208068,-2.23331 7.810428,-2.13897 l 1.7068,0.0619 0.71807,-2.69154 0.71808,-2.69155 h -2.11047 c -2.32333,0 -3.38949,-0.41431 -3.88936,-1.51139 -0.50857,-1.1162 -0.33483,-1.93341 0.61246,-2.8807 l 0.89958,-0.89958 h 2.92948 2.92949 l 0.39773,-1.38906 c 0.21875,-0.76399 1.59046,-5.853912 3.04823,-11.310942 1.48218,-5.54836 2.86734,-10.21344 3.14242,-10.58333 0.96658,-1.29973 1.41974,-1.27897 7.50685,0.34395 3.09445,0.82502 5.92499,1.72163 6.29009,1.99246 1.35864,1.00782 1.29615,1.52174 -1.40483,11.55421 l -2.49313,9.260422 3.03123,0.13229 c 3.02237,0.13191 3.03349,0.13482 3.80225,0.99636 l 0.77102,0.86407 v 52.28647 c 0,40.51813 -0.073,52.53016 -0.32438,53.36916 -0.41518,1.38577 -1.89877,2.86936 -3.28454,3.28455 -1.46372,0.43855 -49.768088,0.41882 -51.147348,-0.0209 z m 49.464598,-8.91516 v -3.96875 H 105.49361 81.681112 v 3.96875 3.96875 h 23.812498 23.81249 z m 0,-11.90625 v -2.64584 h -6.37645 -6.37646 l -0.89958,-0.89958 c -0.64823,-0.64823 -0.89959,-1.13615 -0.89959,-1.74625 0,-0.6101 0.25136,-1.09802 0.89959,-1.74625 l 0.89958,-0.89958 h 6.37646 6.37645 V 152.9572 c 0,-22.18705 -0.0876,-32.80833 -0.27066,-32.80833 -0.14886,0 -1.19066,0.53314 -2.3151,1.18475 -5.31143,3.07797 -9.63428,3.29345 -14.5607,0.72582 -1.26522,-0.65943 -2.74404,-1.42964 -3.28626,-1.71158 -1.25631,-0.65323 -3.79228,-0.88697 -5.35473,-0.49354 -0.66681,0.1679 -2.24084,0.89499 -3.49785,1.61575 -3.332548,1.91084 -4.480808,2.24288 -7.756358,2.24288 -3.27735,0 -4.42335,-0.33177 -7.76571,-2.24825 -1.26215,-0.7237 -2.41245,-1.31583 -2.55622,-1.31583 -0.17094,0 -0.2614,13.18578 -0.2614,38.09999 v 38.1 h 23.812498 23.81249 z m -25.55874,-3.54542 c -1.22064,-1.22063 -1.22064,-2.27186 0,-3.4925 0.64823,-0.64823 1.13615,-0.89958 1.74625,-0.89958 0.61009,0 1.09802,0.25135 1.74625,0.89958 0.64823,0.64823 0.89958,1.13615 0.89958,1.74625 0,0.6101 -0.25135,1.09802 -0.89958,1.74625 -0.64823,0.64823 -1.13616,0.89958 -1.74625,0.89958 -0.6101,0 -1.09802,-0.25135 -1.74625,-0.89958 z m 14.95669,-76.02801 c 0.64409,-2.43747 1.22219,-4.5806 1.28466,-4.7625 0.0861,-0.25073 -0.55521,-0.33073 -2.65141,-0.33073 h -2.765 l -0.85023,3.24115 c -0.46762,1.78263 -0.90164,3.41998 -0.96448,3.63856 -0.16987,0.5909 3.16309,2.53187 4.51039,2.62665 0.14575,0.0102 0.79198,-1.97565 1.43607,-4.41313 z m 6.69034,1.9403 c 0.91452,-0.49718 2.16877,-1.05181 2.78724,-1.2325 l 1.12447,-0.32854 v -2.74784 -2.74783 l -1.90117,0.0777 -1.90118,0.0777 -1.00397,3.70417 c -1.03973,3.83605 -1.09732,4.10104 -0.89132,4.10104 0.0677,0 0.87142,-0.40679 1.78593,-0.90397 z m -1.66902,-20.593422 c 1.21489,-4.54753 2.25667,-8.39776 2.31507,-8.55608 0.0625,-0.16952 -0.95751,-0.56657 -2.48127,-0.96585 -1.42309,-0.3729 -2.60158,-0.66009 -2.61885,-0.63819 -0.0597,0.0757 -4.86338,18.130392 -4.86338,18.279132 0,0.0821 1.2239,0.14922 2.71977,0.14922 h 2.71977 z M 92.218402,108.58337 c -0.80357,-0.49852 -1.27688,-1.3748 -1.27688,-2.36403 0,-1.00252 1.57396,-2.47463 2.64584,-2.47463 1.17646,0 2.64583,1.46937 2.64583,2.64583 0,0.6101 -0.25135,1.09802 -0.89958,1.74625 -1.01556,1.01556 -1.97611,1.15326 -3.11521,0.44658 z"
       id="path1262" />
  </g>
</svg>
