<?xml version="1.0" encoding="UTF-8" standalone="no"?>
<!-- Generator: Adobe Illustrator 19.0.0, SVG Export Plug-In . SVG Version: 6.00 Build 0)  -->

<svg
   version="1.1"
   id="Capa_1"
   x="0px"
   y="0px"
   viewBox="0 0 413.6044 512"
   xml:space="preserve"
   sodipodi:docname="glass.svg"
   width="413.6044"
   height="512"
   inkscape:version="1.1.1 (c3084ef, 2021-09-22)"
   xmlns:inkscape="http://www.inkscape.org/namespaces/inkscape"
   xmlns:sodipodi="http://sodipodi.sourceforge.net/DTD/sodipodi-0.dtd"
   xmlns="http://www.w3.org/2000/svg"
   xmlns:svg="http://www.w3.org/2000/svg"><defs
   id="defs54" /><sodipodi:namedview
   id="namedview52"
   pagecolor="#ffffff"
   bordercolor="#666666"
   borderopacity="1.0"
   inkscape:pageshadow="2"
   inkscape:pageopacity="0.0"
   inkscape:pagecheckerboard="0"
   showgrid="false"
   inkscape:zoom="1.7050781"
   inkscape:cx="206.7354"
   inkscape:cy="263.0378"
   inkscape:window-width="1312"
   inkscape:window-height="1081"
   inkscape:window-x="0"
   inkscape:window-y="25"
   inkscape:window-maximized="0"
   inkscape:current-layer="Capa_1" />
<g
   id="g13"
   transform="translate(-49.197519)">
	<g
   id="g11">
		<path
   d="M 460.264,3.348 C 458.366,1.218 455.649,0 452.795,0 H 59.205 c -2.856,0 -5.577,1.221 -7.476,3.355 -1.898,2.134 -2.795,4.978 -2.464,7.815 l 57.594,491.987 c 0.59,5.042 4.862,8.843 9.939,8.843 h 279.405 c 5.084,0 9.36,-3.812 9.941,-8.863 L 462.736,11.15 c 0.327,-2.835 -0.573,-5.672 -2.472,-7.802 z m -274.31,488.639 h -20.013 v -86.389 c 0,-5.518 4.489,-10.007 10.007,-10.007 5.518,0 10.006,4.489 10.006,10.007 z m 80.053,0 h -20.013 v -86.389 c 0,-5.518 4.489,-10.007 10.006,-10.007 5.518,0 10.007,4.489 10.007,10.007 z m 80.052,0 h -20.013 v -86.389 c 0,-5.518 4.489,-10.007 10.006,-10.007 5.518,0 10.007,4.489 10.007,10.007 z m 77.634,-316.54 h -46.577 c -5.526,0 -10.007,4.48 -10.007,10.006 0,5.527 4.481,10.007 10.007,10.007 h 44.275 l -34.109,296.527 h -21.209 v -86.389 c 0,-16.553 -13.467,-30.02 -30.02,-30.02 -16.553,0 -30.02,13.467 -30.02,30.02 v 86.389 H 286.02 v -86.389 c 0,-16.553 -13.467,-30.02 -30.02,-30.02 -16.553,0 -30.02,13.467 -30.02,30.02 v 86.389 h -20.013 v -86.389 c 0,-16.553 -13.467,-30.02 -30.02,-30.02 -16.553,0 -30.02,13.467 -30.02,30.02 v 86.389 H 125.7 L 90.99,195.46 h 206.074 c 5.526,0 10.006,-4.48 10.006,-10.007 0,-5.527 -4.481,-10.006 -10.006,-10.006 H 88.647 L 70.452,20.013 h 371.12 z"
   id="path9" />
	</g>
</g>
<g
   id="g19"
   transform="translate(-49.197519)">
	<g
   id="g17">
		<path
   d="m 346.899,183.502 c -0.13,-0.64 -0.32,-1.271 -0.57,-1.881 -0.25,-0.6 -0.56,-1.181 -0.921,-1.721 -0.359,-0.55 -0.781,-1.061 -1.241,-1.521 -2.331,-2.322 -5.783,-3.392 -9.035,-2.732 -0.641,0.13 -1.272,0.32 -1.871,0.57 -0.601,0.25 -1.181,0.56 -1.731,0.921 -0.54,0.36 -1.051,0.781 -1.521,1.241 -0.46,0.46 -0.871,0.971 -1.241,1.521 -0.36,0.54 -0.67,1.121 -0.921,1.721 -0.25,0.61 -0.44,1.241 -0.57,1.881 -0.13,0.64 -0.189,1.301 -0.189,1.951 0,0.65 0.06,1.311 0.189,1.951 0.13,0.64 0.32,1.271 0.57,1.881 0.25,0.6 0.56,1.181 0.921,1.721 0.37,0.55 0.781,1.061 1.241,1.521 0.47,0.46 0.98,0.881 1.521,1.241 0.551,0.36 1.131,0.67 1.731,0.921 0.6,0.25 1.23,0.45 1.871,0.58 0.649,0.13 1.301,0.19 1.961,0.19 2.632,0 5.203,-1.071 7.074,-2.932 0.46,-0.46 0.882,-0.971 1.241,-1.521 0.36,-0.54 0.67,-1.121 0.921,-1.721 0.25,-0.61 0.44,-1.241 0.57,-1.881 0.13,-0.64 0.2,-1.301 0.2,-1.951 0,-0.65 -0.07,-1.31 -0.2,-1.951 z"
   id="path15" />
	</g>
</g>
<g
   id="g21"
   transform="translate(-49.197519)">
</g>
<g
   id="g23"
   transform="translate(-49.197519)">
</g>
<g
   id="g25"
   transform="translate(-49.197519)">
</g>
<g
   id="g27"
   transform="translate(-49.197519)">
</g>
<g
   id="g29"
   transform="translate(-49.197519)">
</g>
<g
   id="g31"
   transform="translate(-49.197519)">
</g>
<g
   id="g33"
   transform="translate(-49.197519)">
</g>
<g
   id="g35"
   transform="translate(-49.197519)">
</g>
<g
   id="g37"
   transform="translate(-49.197519)">
</g>
<g
   id="g39"
   transform="translate(-49.197519)">
</g>
<g
   id="g41"
   transform="translate(-49.197519)">
</g>
<g
   id="g43"
   transform="translate(-49.197519)">
</g>
<g
   id="g45"
   transform="translate(-49.197519)">
</g>
<g
   id="g47"
   transform="translate(-49.197519)">
</g>
<g
   id="g49"
   transform="translate(-49.197519)">
</g>
</svg>
