<?xml version="1.0" encoding="UTF-8" standalone="no"?>
<!-- Created with Inkscape (http://www.inkscape.org/) -->

<svg
   version="1.1"
   id="svg1322"
   width="682.12506"
   height="674.59113"
   viewBox="0 0 682.12506 674.59113"
   sodipodi:docname="hamburger.svg"
   inkscape:version="1.1.1 (c3084ef, 2021-09-22)"
   xmlns:inkscape="http://www.inkscape.org/namespaces/inkscape"
   xmlns:sodipodi="http://sodipodi.sourceforge.net/DTD/sodipodi-0.dtd"
   xmlns="http://www.w3.org/2000/svg"
   xmlns:svg="http://www.w3.org/2000/svg">
  <defs
     id="defs1326" />
  <sodipodi:namedview
     id="namedview1324"
     pagecolor="#ffffff"
     bordercolor="#666666"
     borderopacity="1.0"
     inkscape:pageshadow="2"
     inkscape:pageopacity="0.0"
     inkscape:pagecheckerboard="0"
     showgrid="false"
     inkscape:zoom="1.7050781"
     inkscape:cx="231.66094"
     inkscape:cy="320.51317"
     inkscape:window-width="3440"
     inkscape:window-height="1301"
     inkscape:window-x="0"
     inkscape:window-y="25"
     inkscape:window-maximized="1"
     inkscape:current-layer="g1328" />
  <g
     inkscape:groupmode="layer"
     inkscape:label="Image"
     id="g1328"
     transform="translate(127.31934,57.230677)">
    <path
       style="fill:#000000;stroke-width:1.33333"
       d="m -10.869526,617.04842 c -34.32622,-2.9649 -62.601282,-21.85888 -77.198163,-51.58543 -8.554208,-17.42062 -10.135174,-26.91329 -10.135174,-60.85512 v -28.08834 l -4.578137,-6.65545 c -8.7703,-12.74977 -11.05913,-29.64016 -6.15277,-45.40432 l 2.60244,-8.36162 -4.29206,-4.75718 c -17.78723,-19.71474 -21.80748,-50.49537 -9.90897,-75.867 5.47848,-11.68196 17.33514,-24.00335 28.992974,-30.12936 l 9.336524,-4.90621 v -17.81855 -17.81855 l -4.475303,-2.76589 c -7.140919,-4.41334 -16.750605,-15.56198 -20.538345,-23.82751 -4.93627,-10.77183 -5.65419,-25.83303 -1.77754,-37.29076 l 2.81953,-8.33333 -2.68084,-7.95794 c -3.53395,-10.49038 -3.38165,-18.79412 0.63538,-34.64121 10.792371,-42.57564 32.952391,-79.519179 67.671257,-112.816486 53.485997,-51.296016 126.179614,-83.267773 211.012533,-92.806523 18.88172,-2.12309 67.78495,-2.12309 86.66667,0 109.69438,12.33421 200.68402,63.3507651 250.37856,140.383579 13.31944,20.64681 22.17609,41.06009 28.30524,65.23943 3.56702,14.07188 4.11793,22.99207 1.91077,30.93969 -1.24432,4.48063 -0.92983,5.95296 2.99041,14 4.05746,8.3287 4.38171,9.97742 4.39086,22.32612 0.008,11.69667 -0.43047,14.27486 -3.57748,21.00352 -4.58768,9.80896 -15.19939,21.02827 -24.47207,25.87328 l -7.25328,3.78987 -0.003,16.26063 -0.003,16.26063 9.33652,4.90621 c 24.9876,13.1306 39.12285,41.51671 34.94559,70.17691 -1.65071,11.32548 -6.82206,24.24457 -12.8885,32.19808 l -3.42013,4.48403 3.56354,7.78384 c 8.72197,19.05125 3.46574,44.91666 -12.02258,59.16209 l -3.51544,3.23243 v 25.15712 c 0,30.75296 -1.7753,40.89901 -10.13518,57.92389 -12.13394,24.71079 -32.82604,41.29565 -61.86482,49.58511 -6.52223,1.86186 -32.33023,2.11372 -233.33335,2.27719 -124.299999,0.10107 -228.4000029,-0.0235 -231.333336,-0.27687 z m 463.602176,-29.3706 c 23.23033,-8.88 38.52233,-25.41817 44.41239,-48.0316 1.31013,-5.02995 1.98545,-14.10331 1.98545,-26.67588 v -19.0532 l -10.33333,-0.0435 c -6.77052,-0.0285 -12.86179,-0.94285 -17.66667,-2.65188 -19.28279,-6.85857 -31.2668,-4.96265 -51.52231,8.1511 -18.55344,12.01178 -28.35236,15.20313 -46.47769,15.13702 -17.31511,-0.0632 -26.45131,-3.1254 -45.3203,-15.19032 -11.35456,-7.26014 -16.10271,-9.49473 -22.90024,-10.77733 -15.0378,-2.83743 -25.94901,-0.042 -41.76912,10.70125 -12.77138,8.67287 -23.55075,13.15198 -35.83082,14.8886 -19.8187,2.80274 -36.7411,-1.68118 -56.18988,-14.8886 -11.089,-7.5304 -18.25748,-10.51948 -27.55979,-11.49176 -12.95101,-1.35365 -21.02632,1.15784 -37.27714,11.59351 -18.752669,12.04227 -28.524939,15.23016 -46.486059,15.16465 -17.243466,-0.0629 -26.568826,-3.16213 -44.85644,-14.9078 -20.4798679,-13.1537 -28.990834,-14.65613 -50.236436,-8.8682 -10.554551,2.87539 -14.833197,3.38552 -24.513388,2.92271 l -11.727072,-0.56075 v 19.46384 c 0,12.93624 0.665861,22.02026 1.985453,27.08651 6.884289,26.43056 28.242773,46.05628 54.681216,50.24507 3.666666,0.58093 108.666667,0.9744 233.333336,0.87437 l 226.66668,-0.18185 z M 78.562181,484.67766 c 3.12838,-1.38383 9.18603,-4.888 13.46146,-7.78704 32.143139,-21.79534 63.686129,-21.61887 93.974569,0.52571 12.97506,9.48636 25.82296,12.59701 40.55119,9.818 6.78376,-1.28002 11.47079,-3.47258 22.25407,-10.41036 16.14952,-10.39034 26.49979,-14.44882 39.95903,-15.66846 18.31989,-1.66011 36.17249,3.47799 52.2717,15.04412 12.54487,9.01259 20.07142,11.67886 32.76295,11.60624 12.76584,-0.0731 18.48948,-2.05262 31.55983,-10.91525 23.93019,-16.22636 44.49039,-19.81311 69.42568,-12.11139 9.52519,2.94204 20.31504,3.43157 26.21272,1.18927 11.66702,-4.43579 18.84288,-15.49843 17.84655,-27.51303 -0.33291,-4.01436 -1.16272,-7.85628 -1.84404,-8.5376 -0.76277,-0.76277 -3.48444,-0.46504 -7.08335,0.77488 -3.21452,1.10749 -10.10597,2.56752 -15.31432,3.24451 -5.20836,0.67698 -61.68159,1.2494 -125.49607,1.27204 l -116.02633,0.0412 -12.55537,12.60777 c -13.39664,13.45259 -17.85188,16.23518 -23.66021,14.77738 -2.05327,-0.51534 -9.54347,-6.71312 -17.10192,-14.15104 L 186.31175,435.2505 65.721101,435.2398 c -79.900102,-0.006 -124.414801,-0.50454 -131.923962,-1.47649 -19.382897,-2.50881 -17.944019,-2.93848 -18.375853,5.48716 -0.283732,5.53596 0.36986,8.79955 2.666667,13.31549 6.781078,13.3329 21.938463,17.89935 40.639893,12.24355 25.025942,-7.56848 47.3972951,-3.92469 68.616496,11.17607 7.975387,5.67573 15.766627,9.63449 22.098759,11.22849 7.06667,1.77891 22.37876,0.44515 29.11908,-2.53641 z M 326.89771,324.25047 c 0.25024,-0.55 -48.04223,-1 -107.31662,-1 h -107.7716 l 53.96474,53.97708 53.96473,53.97707 53.35187,-52.97707 c 29.34353,-29.1374 53.55663,-53.42708 53.80688,-53.97708 z m -169.10056,83.31944 c 0,-1.50851 -47.14527,-48.31944 -48.66455,-48.31944 -0.71731,0 -10.400199,9.08181 -21.517559,20.18181 -28.36212,28.31784 -21.44942,30.10411 -69.6587,-18 l -38.265298,-38.18181 h -19.36874 c -10.652807,0 -22.928935,0.64629 -27.280286,1.4362 -13.75405,2.49678 -24.429387,10.7184 -30.163557,23.23046 -4.22821,9.22603 -4.33488,26.55323 -0.218528,35.49654 5.771327,12.53897 16.587218,21.10139 29.979525,23.73332 7.207872,1.41653 225.157693,1.82592 225.157693,0.42292 z m 344.25938,-2.10161 c 8.81105,-3.40386 17.5984,-11.63446 21.99193,-20.59858 5.06012,-10.32416 5.36115,-26.76213 0.6767,-36.95259 -5.75592,-12.52132 -16.4237,-20.73456 -30.17288,-23.23046 -4.88786,-0.88731 -30.80091,-1.4362 -67.80186,-1.4362 H 366.8601 l -42.19814,41.47282 c -23.20898,22.81006 -42.40496,42.03047 -42.65772,42.71206 -0.28148,0.759 41.05426,1.08651 106.66667,0.84513 99.71015,-0.36681 107.55957,-0.56149 113.38562,-2.81218 z m -425.601709,-52.20882 13.94336,-13.99097 -7.92545,-8.00903 -7.92544,-8.00901 h -28.69326 -28.69325 l 21.969694,22 c 12.083336,12.1 22.287226,22 22.675336,22 0.38811,0 6.98016,-6.29595 14.64901,-13.99099 z M 483.13049,283.25047 c 0,-12.19735 -0.21523,-13.33334 -2.52621,-13.33334 -1.38943,0 -6.63943,-1.27283 -11.66667,-2.82849 -10.05695,-3.11211 -22.13192,-3.63088 -30.64994,-1.3168 -3.03021,0.82322 -10.23021,4.58706 -16,8.3641 -19.74184,12.92349 -31.80804,17.11453 -49.27354,17.11453 -16.75762,0 -27.21557,-3.75631 -47.71463,-17.13825 -12.1365,-7.92278 -17.86307,-9.76372 -30.37191,-9.76372 -11.74227,0 -16.78329,1.73828 -30.15027,10.39664 -6.06089,3.92591 -13.39201,8.34822 -16.29135,9.82735 -12.57877,6.41722 -33.2808,8.38511 -49.06413,4.66395 -9.55968,-2.25384 -16.30637,-5.44591 -27.4002,-12.96391 -13.24948,-8.97881 -20.96231,-11.87023 -31.88634,-11.95365 -13.03729,-0.0996 -18.80762,1.71717 -31.18097,9.81706 -19.741839,12.92349 -31.808039,17.11453 -49.273549,17.11453 -16.3058,0 -28.737653,-4.35639 -46.122773,-16.16239 -12.86372989,-8.7356 -17.7434789,-10.44207 -29.953755,-10.475 -6.937532,-0.0187 -13.919932,0.89285 -19.333334,2.52398 -4.660578,1.4043 -11.02378,2.95703 -14.140447,3.45054 l -5.666666,0.89726 v 12.54947 12.54947 H 213.79715 483.13049 Z M 76.187341,262.14484 c 3.53035,-1.34143 9.98679,-4.82784 14.34764,-7.74759 20.362429,-13.63336 28.956029,-16.56181 48.595499,-16.55988 18.77871,0.001 27.32021,2.94603 48.38884,16.67925 13.07843,8.52495 20.27124,10.6361 33.3318,9.78318 10.59508,-0.69192 14.93304,-2.51119 31.00427,-13.0026 17.17908,-11.21462 22.30989,-12.69827 43.94176,-12.70639 l 18.66667,-0.007 10.57705,5.05003 c 5.81737,2.77751 13.61737,7.24625 17.33333,9.93053 10.63457,7.68206 19.87994,10.95108 31.07531,10.98779 11.4207,0.0375 19.07646,-2.53399 30.41882,-10.21713 11.37076,-7.70239 22.91288,-13.40375 30.56049,-15.09571 11.21363,-2.48089 28.23016,-1.80449 38.7184,1.53904 12.15319,3.87431 23.54496,3.95172 30.64994,0.20829 9.73021,-5.1266 15.33333,-13.73624 15.33333,-23.5609 0,-9.7908 -0.35887,-10.09036 -8.71035,-7.27092 -6.97864,2.35597 -18.76405,2.43905 -298.94402,2.10749 -160.423449,-0.19019 -292.728982,-0.85971 -294.012315,-1.48817 -2.068289,-1.01286 -2.333334,-0.36166 -2.333334,5.73288 0,10.63714 5.352459,19.28601 14.995735,24.23112 8.46665,4.34173 15.024082,4.49113 28.279957,0.6443 13.681147,-3.97024 31.482559,-4.65794 42.7243111,-1.65052 8.283374,2.216 19.2620269,7.68123 28.0000009,13.93856 15.016346,10.75332 32.684656,13.93503 47.056866,8.47402 z M 504.50746,183.89456 c 4.64703,-2.40307 7.95636,-8.23548 7.95636,-14.0224 0,-2.29756 -1.18301,-8.81079 -2.62892,-14.47383 C 496.37661,102.68738 459.37948,55.533001 404.21149,20.776904 325.8423,-28.596059 217.18755,-44.234719 121.13048,-19.966918 15.930088,6.6108501 -61.242275,73.155952 -82.240615,155.39833 c -3.155341,12.35824 -3.291389,17.37015 -0.612152,22.55121 4.379144,8.46834 -18.566033,7.85564 296.382797,7.9142 254.05558,0.0472 287.51598,-0.1792 290.97743,-1.96918 z M 455.3577,155.5838 c -1.50417,-1.28334 -5.50842,-7.78388 -8.89835,-14.44567 -17.31821,-34.03335 -51.12728,-65.440364 -92.4997,-85.927796 -25.31682,-12.536765 -46.21063,-19.58282 -77.00551,-25.968691 -12.37296,-2.565752 -16.40528,-3.966756 -19.0612,-6.622672 -6.73825,-6.738241 -2.9486,-19.2776859 6.44992,-21.3419469 4.55405,-1.00023798 28.14485,3.556429 47.97133,9.2658779 72.18014,20.785782 131.03092,65.116717 157.7191,118.806148 6.63571,13.34923 6.81852,14.01525 5.26788,19.19087 -2.54295,8.48758 -13.65233,12.41133 -19.94347,7.04388 z M 240.46381,142.88696 c -5.01809,-2.49531 -8.43361,-10.32241 -6.60414,-15.13427 3.10898,-8.17727 9.9982,-11.51464 17.42176,-8.43971 9.64413,3.99473 10.26119,18.57599 0.98901,23.37082 -4.48769,2.32066 -7.44589,2.37157 -11.80663,0.20316 z M 9.6945811,131.35302 c -6.822503,-6.82249 -4.98682,-17.33592 3.6575599,-20.94777 5.625747,-2.35059 12.599667,-0.62168 15.774201,3.91058 5.769613,8.2373 -0.697454,20.93463 -10.662534,20.93463 -3.60684,0 -5.88376,-1.01196 -8.7692269,-3.89744 z m 133.3333389,0 c -6.82251,-6.82249 -4.98682,-17.33592 3.65756,-20.94777 5.62574,-2.35059 12.59967,-0.62168 15.7742,3.91058 5.76961,8.2373 -0.69745,20.93463 -10.66254,20.93463 -3.60684,0 -5.88376,-1.01196 -8.76922,-3.89744 z M 76.231801,83.634299 c -11.46446,-7.112306 -6.1338,-24.383841 7.52578,-24.383841 4.28811,0 10.89591,5.797727 11.7601,10.318377 1.00329,5.248384 -2.16987,11.822678 -6.88262,14.259731 -5.09526,2.634867 -7.9141,2.59072 -12.40326,-0.194267 z m 104.898679,1.072814 c -4.97901,-2.132094 -7.9394,-6.74312 -7.9394,-12.366267 0,-4.365414 0.80452,-6.082118 4.32407,-9.226835 2.37824,-2.124954 5.78637,-3.863553 7.57362,-3.863553 7.7655,0 14.04171,6.218582 14.04171,13.912748 0,7.391693 -11.08892,14.503334 -18,11.543907 z M 203.41303,17.64799 c -4.5486,-1.210537 -9.60147,-7.588023 -9.6109,-12.1304129 -0.008,-4.039607 3.60623,-9.661937 7.2911,-11.340874 7.27742,-3.315822 14.3319,-0.954192 17.8812,5.98609902 5.01466,9.80566898 -4.45138,20.44194988 -15.5614,17.48518788 z"
       id="path1602" />
  </g>
</svg>
