<?xml version="1.0" encoding="UTF-8" standalone="no"?>
<!-- Created with Inkscape (http://www.inkscape.org/) -->

<svg
   version="1.1"
   id="svg856"
   width="511.22769"
   height="507.14447"
   viewBox="0 0 511.22769 507.14447"
   sodipodi:docname="hot-dog.svg"
   inkscape:version="1.1.1 (c3084ef, 2021-09-22)"
   xmlns:inkscape="http://www.inkscape.org/namespaces/inkscape"
   xmlns:sodipodi="http://sodipodi.sourceforge.net/DTD/sodipodi-0.dtd"
   xmlns="http://www.w3.org/2000/svg"
   xmlns:svg="http://www.w3.org/2000/svg">
  <defs
     id="defs860" />
  <sodipodi:namedview
     id="namedview858"
     pagecolor="#ffffff"
     bordercolor="#666666"
     borderopacity="1.0"
     inkscape:pageshadow="2"
     inkscape:pageopacity="0.0"
     inkscape:pagecheckerboard="0"
     showgrid="false"
     inkscape:zoom="1.75"
     inkscape:cx="107.42857"
     inkscape:cy="254"
     inkscape:window-width="3440"
     inkscape:window-height="1301"
     inkscape:window-x="0"
     inkscape:window-y="25"
     inkscape:window-maximized="1"
     inkscape:current-layer="g862" />
  <g
     inkscape:groupmode="layer"
     inkscape:label="Image"
     id="g862"
     transform="translate(-1.1287936,-1.8547495)">
    <path
       style="fill:#000000"
       d="m 344.07143,508.0385 c -52.6569,-8.77497 -123.26556,-50.51462 -194,-114.68129 C 79.401454,329.24902 25.614529,256.31996 7.7643071,200.40464 c -5.149993,-16.13221 -6.6447135,-25.1373 -6.635471,-39.97606 0.0098,-15.7273 1.4350561,-22.38191 7.40189,-34.5598 l 3.9490829,-8.0598 -2.42857,-7.64762 C 3.1046274,88.286336 4.9981491,63.563996 15.238995,42.428576 19.041319,34.581196 21.253709,31.520606 27.956751,24.834986 47.629502,5.2133757 72.993493,1.3336957 104.51485,13.124656 c 9.02934,3.37753 9.55553,3.46037 12,1.88916 6.3533,-4.08364 16.62142,-8.7551203 23.76509,-10.8119303 10.98007,-3.16139 28.46623,-3.12481 39.77334,0.0832 23.43558,6.6490503 45.50773,21.9831003 74.51815,51.7695403 13.82657,14.19643 23.69918,25.43332 60.99252,69.420964 27.9441,32.96016 42.64309,47.24037 89.00748,86.47157 31.28576,26.47242 48.00326,41.6224 62.62423,56.75224 43.19308,44.69638 55.03245,82.89666 37.10752,119.72918 -2.27513,4.675 -4.05211,8.725 -3.94883,9 7.57878,20.17981 9.17969,30.12704 6.92043,43 -2.00666,11.43365 -4.94553,18.80273 -11.11784,27.87747 -6.427,9.4492 -16.49518,18.05238 -27.08551,23.14437 -11.20188,5.38604 -19.11502,7.2371 -31,7.25162 -8.47216,0.0104 -11.34774,-0.44262 -18.82121,-2.96475 l -8.82121,-2.97698 -3.67879,2.96843 c -4.78576,3.86164 -16.09883,9.22062 -23.67879,11.21659 -8.26056,2.17518 -29.01593,2.75695 -39,1.09317 z m 30.14714,-19.543 c 19.00945,-3.60507 31.06781,-15.55382 32.89262,-32.59362 1.35259,-12.63031 -4.34315,-30.45813 -14.51774,-45.44087 -6.68789,-9.84835 -15.26536,-18.27957 -38.02202,-37.37368 C 276.59188,307.6581 219.76741,252.1262 166.63781,189.42858 c -6.75797,-7.975 -12.70611,-15.59068 -13.2181,-16.92372 -2.09882,-5.46469 3.13385,-13.08253 8.97845,-13.07102 4.39103,0.009 7.25662,2.65303 23.29283,21.49474 50.1786,58.95724 107.76002,115.02202 181.38044,176.60308 30.76338,25.73255 42.94348,39.5889 51.96667,59.11842 9.27022,20.06417 10.6727,40.61599 3.9646,58.09701 -0.80804,2.10572 7.73903,4.20228 16.56873,4.06424 22.72616,-0.35528 43.50906,-17.60145 48.02157,-39.84948 1.44618,-7.13011 0.69987,-16.12326 -1.98579,-23.92928 -2.1965,-6.38424 -8.16634,-17.97847 -11.02101,-21.40427 l -1.91679,-2.30029 -5.12229,3.52352 c -12.74555,8.76739 -27.22012,7.47533 -38.10859,-3.40175 -5.32991,-5.32433 -5.83295,-6.26962 -9.35197,-17.5741 -4.6261,-14.86086 -7.43137,-17.99438 -21.30315,-23.79587 -12.80925,-5.35711 -28.41308,-15.91051 -36.60169,-24.75497 -7.66844,-8.28263 -12.22482,-17.01303 -15.60281,-29.89626 -2.63232,-10.03936 -4.25663,-13.47643 -7.27829,-15.40096 -1.22605,-0.78089 -8.02552,-2.81605 -15.10992,-4.52258 -21.54677,-5.19031 -35.67561,-13.03426 -49.2856,-27.36204 -9.57537,-10.08038 -15.24911,-21.47456 -19.61916,-39.3998 -3.71538,-15.23988 -2.90894,-14.43905 -16.93146,-16.81361 -32.89922,-5.57113 -45.95665,-17.58505 -59.77827,-55.00101 -6.33697,-17.15454 -11.3445,-26.8968 -15.41687,-29.99384 -4.51485,-3.43354 -11.64177,-5.97402 -25.12846,-8.957374 -6.5777,-1.45503 -14.29117,-3.76679 -17.14105,-5.13724 -17.42733,-8.38044 -21.344433,-32.51964 -7.57103,-46.65651 3.5377,-3.63105 3.58943,-3.78994 1.70065,-5.22368 -4.10452,-3.1157 -17.246613,-9.424 -23.948022,-11.49524 -9.896423,-3.05874 -22.317196,-3.72256 -30.466736,-1.62828 -19.615906,5.04091 -32.678283,24.00589 -34.68866,50.36371 -0.482481,6.32576 0.888276,21.79466 2.03272,22.939114 0.162051,0.16205 3.920995,-1.884874 8.353207,-4.548714 12.303246,-7.39447 20.345678,-9.66195 34.269469,-9.66195 8.666779,0 12.855019,0.46536 17,1.88892 8.805449,3.02415 18.014252,7.81373 20.085172,10.44648 2.78265,3.537574 2.54276,9.627584 -0.49905,12.669394 -4.27204,4.27204 -6.76052,4.17868 -16.887305,-0.63354 -9.061965,-4.30622 -9.356148,-4.37125 -19.774208,-4.37125 -10.487632,0 -10.649451,0.0366 -19.5,4.41243 -11.47702,5.67437 -21.114932,14.92251 -25.399803,24.37259 -19.4752649,42.95178 21.323967,125.20594 104.464106,210.6071 61.67832,63.35568 132.44199,114.01561 187.01109,133.88182 9.46079,3.44425 23.88499,7.24781 32.5,8.57001 5.14163,0.78911 19.90007,0.62323 24.64714,-0.27703 z M 127.76683,141.93954 c -5.65526,-4.75858 -4.41035,-13.26972 2.35437,-16.0962 10.07619,-4.2101 18.24539,7.94392 10.52715,15.66216 -3.78815,3.78815 -8.69875,3.95361 -12.88152,0.43404 z m 328.6092,236 c 1.62693,-1.36897 3.18676,-3.68541 3.46628,-5.14765 0.7616,-3.98406 -3.8319,-19.67589 -8.74791,-29.8837 -5.80032,-12.044 -12.0334,-17.99118 -25.2874,-24.12748 -23.20638,-10.74403 -24.61887,-11.56769 -31.32818,-18.26818 -6.85082,-6.84182 -6.89182,-6.92385 -11.7866,-23.58395 -4.06457,-13.83435 -14.7586,-27.72942 -25.31701,-32.89518 -2.96669,-1.45146 -11.59132,-4.15939 -19.16584,-6.01761 -15.69518,-3.85042 -24.33811,-7.71394 -31.34048,-14.00968 -6.83749,-6.14749 -9.70735,-12.09235 -14.32016,-29.664 -4.53074,-17.25901 -6.74205,-21.71851 -14.00942,-28.2525 -7.10966,-6.39219 -13.7108,-9.31653 -27.52364,-12.19308 -14.50675,-3.02107 -18.37912,-4.63813 -23.59329,-9.85229 -4.8749,-4.8749 -7.46271,-9.83139 -12.91243,-24.73148 -13.73924,-37.564464 -26.82868,-49.853334 -62.93852,-59.089184 -15.11917,-3.86705 -20.02752,-4.05268 -23.40203,-0.88507 -5.11277,4.79928 -3.95512,13.54117 2.10487,15.89469 1.53844,0.59748 8.64716,2.47843 15.79716,4.17988 30.01594,7.14273 38.0868,14.81079 50.01148,47.515504 8.72992,23.94273 15.7137,34.53999 26.29662,39.90276 2.82837,1.43324 11.20133,3.77328 19.6078,5.47992 24.05718,4.88394 26.23525,6.82889 31.68489,28.29371 2.13975,8.42799 5.26485,18.12438 6.94467,21.54755 5.48735,11.18226 18.48331,23.08199 31.49086,28.83454 3.17773,1.40535 11.44455,3.93198 18.37069,5.61475 6.92614,1.68276 14.42613,3.91944 16.66663,4.9704 8.26116,3.87508 14.62742,13.02317 17.90048,25.72237 5.74034,22.27209 13.83952,30.86904 42.1272,44.71633 20.95801,10.2593 25.72995,15.60055 31.84295,35.64194 1.88762,6.18854 3.40486,9.2985 5.24108,10.74287 3.5544,2.79589 8.47448,2.6107 12.11925,-0.45618 z m 34.64216,-10.57668 c 3.18259,-13.9928 1.42529,-26.36753 -5.88397,-41.43428 -12.01677,-24.77047 -34.93344,-49.0526 -92.06279,-97.54823 -48.31383,-41.01236 -64.73854,-56.98071 -93.50433,-90.90631 -30.65139,-36.14941 -36.16657,-42.509424 -49.8049,-57.434074 -20.94538,-22.92088 -41.0686,-40.37221 -56.32081,-48.84274 -19.80684,-11 -38.22005,-12.58103 -56.24443,-4.82936 l -4.87447,2.09634 6.15526,4.71368 c 5.38588,4.12449 7.68259,5.10812 18.37447,7.86936 23.49453,6.06761 35.97187,12.18608 48.33673,23.7027 11.88253,11.06738 18.01745,21.45266 27.53161,46.605914 3.20944,8.48501 6.82439,16.48008 8.03322,17.76682 2.35305,2.50471 3.95371,3.03539 19.11969,6.33883 22.55006,4.91185 39.7876,18.45557 46.96337,36.89964 1.48579,3.81897 3.82006,11.67779 5.18726,17.46403 3.21547,13.6084 4.61174,16.79794 8.69122,19.85352 5.66598,4.24389 9.45735,5.73222 23.66389,9.2894 17.74897,4.44417 28.20128,9.52504 36.66314,17.82194 10.93158,10.71848 17.94894,23.48098 22.97368,41.78238 1.99136,7.25302 5.91908,10.77033 18.53784,16.60077 24.54205,11.33955 30.03839,14.94805 37.94775,24.91371 7.41392,9.34143 15.24372,27.61926 18.24199,42.58401 0.9163,4.57333 2.20581,7.38762 4.79079,10.45565 4.30068,5.10434 5.16295,4.44025 7.48379,-5.7637 z"
       id="path964" />
  </g>
</svg>
