<svg id="Layer_1" enable-background="new 0 0 512 512" height="512" viewBox="0 0 512 512" width="512" xmlns="http://www.w3.org/2000/svg"><g><g><path d="m422.24 329.725c49.494 0 89.76-40.1 89.76-89.39s-40.266-89.391-89.76-89.391c-14.524 0-28.542 3.416-41.201 9.955-.562-2.013-1.122-4.018-1.672-5.983-1.181-4.22-2.333-8.338-3.441-12.342-4.671-16.887-15.229-26.571-28.964-26.571h-11.819c-4.141-11.639-15.291-20-28.368-20h-40.294c-.562-3.627-1.793-7.147-3.674-10.391l-20.093-34.642c-8.296-14.301-26.727-19.223-41.081-10.973l-33.047 18.991c-8.665-4.155-19.176-4.125-28.111 1.009l-34.802 20c-6.959 3.999-11.938 10.482-14.021 18.254-1.606 5.993-1.327 12.178.731 17.873-12.459 1.156-21.984 10.648-26.354 26.448-1.108 4.004-2.26 8.122-3.441 12.342-10.63 37.998-23.861 85.287-27.802 132.109-4.054 48.171 2.323 87.299 19.452 118.979h-34.192c-11.054 0-20.046 8.972-20.046 20 0 27.57 22.514 50 50.187 50h341.582c27.673 0 50.186-22.43 50.186-50 0-11.028-8.993-20-20.047-20h-34.191c11.911-22.028 18.619-47.662 20.237-77.431 4.715.759 9.488 1.154 14.286 1.154zm0-158.78c38.466 0 69.76 31.128 69.76 69.391 0 38.262-31.294 69.39-69.76 69.39-4.699 0-9.368-.481-13.953-1.412-.132-6.776-.494-13.745-1.09-20.918 4.814 1.525 9.876 2.33 15.043 2.33 27.335 0 49.573-22.156 49.573-49.39s-22.238-49.39-49.573-49.39c-11.128 0-21.803 3.815-30.372 10.419-1.759-7.038-3.566-13.912-5.373-20.617 10.777-6.425 23.007-9.803 35.745-9.803zm-17.75 92.891c-1.898-13.26-4.372-26.423-7.179-39.276 5.375-8.355 14.829-13.615 24.929-13.615 16.307 0 29.573 13.185 29.573 29.39s-13.267 29.39-29.573 29.39c-6.459 0-12.649-2.076-17.75-5.889zm-87.622-137.833v87.188c0 5.514-4.528 10-10.093 10s-10.093-4.486-10.093-10v-40.776c0-16.542-13.5-30-30.093-30s-30.093 13.458-30.093 30v10c0 5.514-4.528 10-10.093 10s-10.093-4.486-10.093-10v-56.412c0-5.514 4.528-10 10.093-10h80.372c5.565 0 10.093 4.486 10.093 10zm-105.27-68.665c4.835-2.777 11.032-1.132 13.815 3.667l20.093 34.642c.067.116.122.237.184.355h-19.287c-9.63 0-18.212 4.539-23.724 11.577-.322-.666-.658-1.325-1.03-1.968l-18.514-31.917zm-100.628 46.091c.696-2.598 2.354-4.761 4.668-6.09l34.802-20c4.835-2.777 11.031-1.132 13.814 3.668l20.093 34.641c.069.119.12.237.182.355h-69.66l-2.919-5.032c-1.323-2.282-1.672-4.961-.98-7.542zm310.984 322.574c0 16.542-13.542 30-30.186 30h-341.581c-16.645 0-30.187-13.458-30.15-30h.01zm-344.442-20c-15.475-23.538-22.296-50.992-23.735-79.929h27.084c5.523 0 10-4.477 10-10s-4.477-10-10-10h-27.268c1.431-49.865 16.116-102.379 28.255-145.77 1.186-4.238 2.343-8.375 3.456-12.397 1.502-5.431 4.402-11.904 9.688-11.904h101.318v46.412c0 16.542 13.5 30 30.093 30 16.594 0 30.093-13.458 30.093-30v-10c0-5.514 4.528-10 10.093-10s10.093 4.486 10.093 10v40.776c0 16.542 13.5 30 30.093 30s30.093-13.458 30.093-30v-77.188h10.094c5.286 0 8.186 6.473 9.688 11.904 1.113 4.022 2.27 8.159 3.456 12.398 5.559 19.87 11.651 41.655 16.763 64.222.066.406.158.805.273 1.199 3.199 14.242 5.992 28.787 8.009 43.351.003.877.123 1.75.355 2.601 1.519 11.51 2.53 23.021 2.856 34.396h-217.501c-5.523 0-10 4.477-10 10s4.477 10 10 10h217.317c-1.439 28.937-8.259 56.391-23.734 79.929z"/><path d="m125.864 306.074h-.007c-5.523 0-9.996 4.477-9.996 10s4.48 10 10.003 10 10-4.477 10-10-4.477-10-10-10z"/></g></g></svg>