<?xml version="1.0" encoding="UTF-8" standalone="no"?>
<!-- Generator: Adobe Illustrator 19.0.0, SVG Export Plug-In . SVG Version: 6.00 Build 0)  -->

<svg
   version="1.1"
   id="Capa_1"
   x="0px"
   y="0px"
   viewBox="0 0 449.06252 512.00088"
   xml:space="preserve"
   sodipodi:docname="martini.svg"
   width="449.0625"
   height="512.00085"
   inkscape:version="1.1.1 (c3084ef, 2021-09-22)"
   xmlns:inkscape="http://www.inkscape.org/namespaces/inkscape"
   xmlns:sodipodi="http://sodipodi.sourceforge.net/DTD/sodipodi-0.dtd"
   xmlns="http://www.w3.org/2000/svg"
   xmlns:svg="http://www.w3.org/2000/svg"><defs
   id="defs54" /><sodipodi:namedview
   id="namedview52"
   pagecolor="#ffffff"
   bordercolor="#666666"
   borderopacity="1.0"
   inkscape:pageshadow="2"
   inkscape:pageopacity="0.0"
   inkscape:pagecheckerboard="0"
   showgrid="false"
   inkscape:zoom="1.7050748"
   inkscape:cx="224.33034"
   inkscape:cy="263.03831"
   inkscape:window-width="1312"
   inkscape:window-height="1081"
   inkscape:window-x="0"
   inkscape:window-y="25"
   inkscape:window-maximized="0"
   inkscape:current-layer="Capa_1" />
<g
   id="g13"
   transform="translate(-31.469009,-1.7284955e-4)">
	<g
   id="g11">
		<path
   d="m 296.911,326.029 c 0.582,-0.736 1.153,-1.484 1.702,-2.257 0.239,-0.337 0.446,-0.686 0.638,-1.041 L 478.688,69.787 c 2.164,-3.051 2.444,-7.054 0.728,-10.376 -1.716,-3.322 -5.144,-5.41 -8.885,-5.41 H 425 c -5.522,0 -10,4.477 -10,10 0,5.523 4.478,10 10,10 h 26.177 L 280.934,313.984 c -6.096,7.479 -15.002,11.731 -24.772,11.735 h -0.014 c -10.518,0 -20.042,-4.918 -26.132,-13.494 -0.539,-0.759 -1.169,-1.411 -1.858,-1.97 L 102.755,133.22 h 104.912 c 5.522,0 10,-4.477 10,-10 0,-5.523 -4.478,-10 -10,-10 H 88.588 L 60.807,74.001 h 306.707 l -35.695,46.012 c -6.778,-2.484 -14.167,-3.799 -21.78,-3.799 -0.084,0 -0.168,0 -0.251,0 -13.97,0.052 -27.181,4.498 -37.198,12.517 -10.693,8.559 -16.557,20.114 -16.51,32.536 0.021,5.446 1.216,10.663 3.379,15.488 -26.828,2.637 -47.682,21.724 -47.595,44.732 0.046,12.262 5.854,23.63 16.35,32.076 l -10.876,14.02 c -3.385,4.363 -2.592,10.646 1.771,14.031 1.823,1.414 3.981,2.099 6.123,2.099 2.984,0 5.938,-1.33 7.908,-3.871 l 12.98,-16.732 c 6.152,1.982 12.755,3.025 19.536,3.025 0.084,0 0.168,0 0.251,0 13.97,-0.052 27.181,-4.498 37.198,-12.517 10.693,-8.559 16.557,-20.114 16.51,-32.536 -0.021,-5.445 -1.215,-10.662 -3.378,-15.488 26.828,-2.638 47.68,-21.724 47.594,-44.732 -0.044,-11.575 -5.218,-22.356 -14.626,-30.632 l 88.516,-114.1 c 3.385,-4.364 2.592,-10.646 -1.771,-14.031 -4.364,-3.385 -10.646,-2.591 -14.031,1.772 L 383.004,54.033 C 382.789,54.019 382.575,54 382.357,54 H 41.469 c -3.739,0 -7.165,2.085 -8.883,5.407 -1.717,3.321 -1.438,7.323 0.723,10.374 L 226,341.809 v 110.944 l -70.331,29.429 c -6.901,2.888 -10.693,10.027 -9.221,17.362 1.472,7.335 7.726,12.457 15.207,12.457 h 188.647 c 7.483,0 13.737,-5.125 15.208,-12.462 1.471,-7.337 -2.324,-14.477 -9.229,-17.361 L 286,452.82 V 341.41 Z m -6.302,-88.025 c -6.507,5.208 -15.306,8.095 -24.776,8.131 -0.06,0 -0.117,0 -0.177,0 -9.403,0 -18.154,-2.818 -24.658,-7.945 -5.867,-4.624 -9.11,-10.582 -9.134,-16.778 -0.051,-13.47 15.42,-24.908 33.781,-24.977 0.057,0 0.111,0 0.167,0 18.29,0 33.753,11.294 33.804,24.723 0.023,6.195 -3.176,12.178 -9.007,16.846 z m 19.44,-52.089 c -0.057,0 -0.111,0 -0.167,0 -18.289,0 -33.752,-11.294 -33.803,-24.723 -0.023,-6.195 3.176,-12.178 9.007,-16.846 6.507,-5.208 15.306,-8.095 24.776,-8.131 0.06,0 0.118,0 0.177,0 7.249,0 14.105,1.681 19.849,4.797 0.153,0.089 0.306,0.175 0.462,0.255 1.535,0.863 2.993,1.824 4.347,2.892 5.867,4.624 9.11,10.583 9.134,16.778 0.051,13.47 -15.42,24.908 -33.782,24.978 z m 17.86,306.086 H 184.015 l 55.846,-23.367 c 3.719,-1.556 6.14,-5.193 6.14,-9.225 V 344.736 c 3.296,0.639 6.687,0.983 10.148,0.983 0,0 0.015,0 0.021,0 3.35,-10e-4 6.634,-0.32 9.83,-0.92 V 459.48 c 0,4.034 2.424,7.672 6.146,9.227 z"
   id="path9" />
	</g>
</g>
<g
   id="g19"
   transform="translate(-31.469009,-1.7284955e-4)">
	<g
   id="g17">
		<path
   d="m 248.74,116.151 c -1.86,-1.86 -4.44,-2.93 -7.07,-2.93 -2.63,0 -5.21,1.07 -7.07,2.93 -1.859,1.86 -2.93,4.44 -2.93,7.07 0,2.63 1.07,5.21 2.93,7.07 1.86,1.86 4.44,2.93 7.07,2.93 2.63,0 5.21,-1.07 7.07,-2.93 1.859,-1.86 2.93,-4.44 2.93,-7.07 0,-2.63 -1.07,-5.21 -2.93,-7.07 z"
   id="path15" />
	</g>
</g>
<g
   id="g21"
   transform="translate(-31.469009,-1.7284955e-4)">
</g>
<g
   id="g23"
   transform="translate(-31.469009,-1.7284955e-4)">
</g>
<g
   id="g25"
   transform="translate(-31.469009,-1.7284955e-4)">
</g>
<g
   id="g27"
   transform="translate(-31.469009,-1.7284955e-4)">
</g>
<g
   id="g29"
   transform="translate(-31.469009,-1.7284955e-4)">
</g>
<g
   id="g31"
   transform="translate(-31.469009,-1.7284955e-4)">
</g>
<g
   id="g33"
   transform="translate(-31.469009,-1.7284955e-4)">
</g>
<g
   id="g35"
   transform="translate(-31.469009,-1.7284955e-4)">
</g>
<g
   id="g37"
   transform="translate(-31.469009,-1.7284955e-4)">
</g>
<g
   id="g39"
   transform="translate(-31.469009,-1.7284955e-4)">
</g>
<g
   id="g41"
   transform="translate(-31.469009,-1.7284955e-4)">
</g>
<g
   id="g43"
   transform="translate(-31.469009,-1.7284955e-4)">
</g>
<g
   id="g45"
   transform="translate(-31.469009,-1.7284955e-4)">
</g>
<g
   id="g47"
   transform="translate(-31.469009,-1.7284955e-4)">
</g>
<g
   id="g49"
   transform="translate(-31.469009,-1.7284955e-4)">
</g>
</svg>
