<?xml version="1.0" encoding="UTF-8" standalone="no"?>
<svg
   width="16px"
   height="16px"
   viewBox="0 0 16 16"
   fill="currentColor"
   class="bi bi-person"
   version="1.1"
   id="svg826"
   sodipodi:docname="person.svg"
   inkscape:version="1.1.1 (c3084ef, 2021-09-22)"
   xmlns:inkscape="http://www.inkscape.org/namespaces/inkscape"
   xmlns:sodipodi="http://sodipodi.sourceforge.net/DTD/sodipodi-0.dtd"
   xmlns="http://www.w3.org/2000/svg"
   xmlns:svg="http://www.w3.org/2000/svg">
  <defs
     id="defs830" />
  <sodipodi:namedview
     id="namedview828"
     pagecolor="#ffffff"
     bordercolor="#666666"
     borderopacity="1.0"
     inkscape:pageshadow="2"
     inkscape:pageopacity="0.0"
     inkscape:pagecheckerboard="0"
     showgrid="false"
     inkscape:zoom="38.581514"
     inkscape:cx="8.3330064"
     inkscape:cy="7.9701383"
     inkscape:window-width="1312"
     inkscape:window-height="1081"
     inkscape:window-x="0"
     inkscape:window-y="25"
     inkscape:window-maximized="0"
     inkscape:current-layer="svg826" />
  <path
     d="m 7.9999999,7.9999999 a 2.4427383,2.481617 0 1 0 0,-4.9632339 2.4427383,2.481617 0 0 0 0,4.9632339 z m 1.6284922,-2.481617 a 1.6284921,1.6544114 0 1 1 -3.2569843,0 1.6284922,1.6544114 0 0 1 3.2569843,0 z m 3.2569849,6.6176461 c 0,0.827206 -0.814246,0.827206 -0.814246,0.827206 H 3.9287695 c 0,0 -0.8142461,0 -0.8142461,-0.827206 0,-0.827206 0.8142461,-3.3088234 4.8854765,-3.3088234 4.0712311,0 4.8854771,2.4816174 4.8854771,3.3088234 z m -0.814246,-0.0033 c -8.15e-4,-0.203502 -0.125395,-0.815635 -0.677453,-1.37648 -0.530889,-0.539338 -1.5299688,-1.1018378 -3.3937781,-1.1018378 -1.8646235,0 -2.8628893,0.5624998 -3.3937777,1.1018378 -0.5520588,0.560845 -0.6758243,1.172978 -0.6774527,1.37647 z"
     id="path824"
     style="fill:#ffffff;fill-opacity:1;stroke-width:0.8207" />
</svg>
