<?xml version="1.0" encoding="UTF-8" standalone="no"?>
<!-- Created with Inkscape (http://www.inkscape.org/) -->

<svg
   version="1.1"
   id="svg1322"
   width="511.6828"
   height="511.84171"
   viewBox="0 0 511.6828 511.84171"
   sodipodi:docname="pizza.svg"
   inkscape:version="1.1.1 (c3084ef, 2021-09-22)"
   xmlns:inkscape="http://www.inkscape.org/namespaces/inkscape"
   xmlns:sodipodi="http://sodipodi.sourceforge.net/DTD/sodipodi-0.dtd"
   xmlns="http://www.w3.org/2000/svg"
   xmlns:svg="http://www.w3.org/2000/svg">
  <defs
     id="defs1326" />
  <sodipodi:namedview
     id="namedview1324"
     pagecolor="#ffffff"
     bordercolor="#666666"
     borderopacity="1.0"
     inkscape:pageshadow="2"
     inkscape:pageopacity="0.0"
     inkscape:pagecheckerboard="0"
     showgrid="false"
     inkscape:zoom="1.7050781"
     inkscape:cx="102.63459"
     inkscape:cy="259.5189"
     inkscape:window-width="3440"
     inkscape:window-height="1301"
     inkscape:window-x="0"
     inkscape:window-y="25"
     inkscape:window-maximized="1"
     inkscape:current-layer="g1328" />
  <g
     inkscape:groupmode="layer"
     inkscape:label="Image"
     id="g1328"
     transform="translate(-1.4901591,-3.6032686)">
    <path
       style="fill:#000000"
       d="m 307.43049,514.46277 c -14.6867,-2.89756 -59.22287,-24.93172 -91.97256,-45.5032 C 148.90721,427.15624 89.580775,367.79609 47.244531,300.6506 31.548212,275.75616 11.686941,236.95313 4.7939121,217.71469 -6.1387714,187.20157 11.016047,154.29728 42.180529,146.00421 c 11.420725,-3.03913 27.210237,-1.41973 37.759239,3.87265 l 4.733199,2.37462 50.999993,-18.22345 C 325.97589,66.028536 500.01944,4.1127453 501.9308,3.7322363 c 5.11571,-1.018428 11.24216,4.16606 11.24216,9.5136507 0,1.004468 -32.62877,97.214313 -72.50838,213.799663 l -72.50837,211.97335 1.60647,4.5 c 2.1938,6.1452 2.98934,22.36279 1.42906,29.13212 -6.57034,28.50557 -35.3958,47.40801 -63.76125,41.81175 z m 25.07488,-22.31808 c 6.95208,-3.40133 12.82661,-9.08529 16.37257,-15.84144 2.49095,-4.746 2.77459,-6.3031 2.78426,-15.28435 0.009,-8.59922 -0.3325,-10.70039 -2.43976,-15 -3.70648,-7.56265 -11.28624,-14.51763 -19.54948,-17.93807 C 258.63312,398.67498 191.80275,346.87588 145.03089,284.96785 123.03687,255.8562 101.8809,219.12434 88.616528,187.0189 84.74145,177.63957 77.024403,169.73594 68.665595,166.5856 c -8.435169,-3.17912 -20.652735,-2.62162 -28.27678,1.29029 -6.997961,3.59067 -12.820009,9.5675 -16.067886,16.49505 -2.222542,4.74056 -2.644306,7.01356 -2.625208,14.14796 0.02695,10.06625 1.028166,12.85452 14.901885,41.5 53.698386,110.87265 140.990984,195.55354 254.731064,247.10975 15.96478,7.23654 20.28044,8.45506 28.51704,8.05175 5.23241,-0.2562 8.65705,-1.07741 12.65966,-3.03571 z M 97.172963,286.41118 c -9.810786,-3.84954 -6.836054,-18.89228 3.735987,-18.89228 10.34284,0 13.26109,14.59631 3.71564,18.58466 -3.88209,1.62204 -4.08084,1.63025 -7.451627,0.30762 z M 78.324177,258.64093 c -6.209332,-6.74043 -29.15121,-55.14469 -29.15121,-61.50512 0,-7.00522 7.196628,-11.32417 13.701004,-8.22245 2.854125,1.36104 4.056519,2.97977 6.599683,8.88489 1.710348,3.97136 8.192381,17.33696 14.404518,29.70134 6.481918,12.90133 11.294795,23.6935 11.294795,25.32692 0,4.48793 -4.847515,8.69239 -10.021867,8.69239 -3.319531,0 -4.719314,-0.5901 -6.826923,-2.87797 z m 301.260993,85.49564 c 14.07329,-41.18529 25.58779,-75.1665 25.58779,-75.51381 0,-0.34731 -6.72549,-5.76039 -14.94553,-12.02907 -9.29021,-7.08479 -15.3801,-12.4467 -16.09396,-14.17014 -2.60846,-6.29736 2.15328,-13.3592 9.008,-13.3592 3.32589,0 5.51034,1.26805 15.89574,9.22728 6.62199,5.075 12.39903,9.22488 12.83787,9.22195 0.65146,-0.004 18.60175,-51.32266 19.52545,-55.82156 0.17034,-0.82968 -1.86435,-2.00144 -5.42987,-3.12703 -3.13627,-0.99008 -7.64258,-2.93722 -10.01402,-4.32697 -5.34785,-3.13405 -13.89812,-12.06094 -16.56294,-17.29249 -12.94833,-25.42009 -0.92573,-55.42183 25.82493,-64.44473 8.68829,-2.930533 20.22505,-2.960463 28.45433,-0.0738 3.3,1.15756 6.37641,2.21429 6.83647,2.34829 0.94513,0.27529 26.20603,-73.047197 25.43254,-73.82068 -0.41311,-0.413109 -128.83853,44.871217 -130.94376,46.172327 -0.37121,0.22942 0.41625,3.10253 1.74991,6.38469 1.33366,3.28216 2.42484,6.89885 2.42484,8.03709 0,5.29142 -4.91349,9.970213 -10.47033,9.970213 -3.83418,0 -8.06829,-4.418343 -10.52219,-10.980013 -1.23823,-3.31099 -2.76927,-6.01999 -3.4023,-6.01999 -1.08656,0 -116.52939,40.890603 -121.38055,42.993773 l -2.27536,0.98647 2.17788,4.25988 c 12.24927,23.95929 0.0306,53.93232 -25.57742,62.74277 -12.13245,4.17418 -23.32369,3.39061 -35.19439,-2.46418 -11.84266,-5.84095 -22.10784,-18.86509 -23.95034,-30.38743 -0.36334,-2.2722 -1.03272,-4.13128 -1.48751,-4.13128 -0.63939,0 -15.28222,5.03193 -24.64129,8.46784 -1.31984,0.48454 0.46629,4.60246 15.41193,35.53216 21.13752,43.7437 46.53761,79.3321 81.75869,114.55318 39.85292,39.85292 78.80307,66.26827 134.76044,91.39234 6.439,2.89102 13.41084,6.52662 15.493,8.07911 2.08215,1.55249 3.86188,2.74456 3.95495,2.64904 0.0931,-0.0955 11.68372,-33.87072 25.757,-75.056 z m -85.18206,0.83193 c -21.00343,-5.65464 -35.44046,-25.34615 -33.96128,-46.3218 0.98307,-13.94054 6.91272,-25.23099 17.47745,-33.27818 27.52321,-20.96455 66.2473,-5.84727 72.33904,28.24003 3.2361,18.1081 -6.59307,38.33761 -22.95434,47.24252 -9.61641,5.23391 -22.68094,6.86889 -32.90087,4.11743 z m 22.29926,-21.22911 c 9.07831,-4.6762 13.9193,-12.58087 13.9145,-22.72049 -0.004,-7.96811 -2.06026,-12.88703 -7.60628,-18.19342 -19.40217,-18.56387 -49.94925,1.46568 -41.23585,27.03812 1.99197,5.84611 8.8843,12.93154 14.64164,15.05187 5.59201,2.05944 15.07153,1.50986 20.28599,-1.17608 z M 215.06101,298.01926 c -3.51583,-1.91082 -4.55214,-4.93542 -6.40868,-18.70454 -1.43041,-10.60873 -1.43213,-11.98649 -0.0184,-14.72036 1.96013,-3.79046 4.33607,-5.07546 9.38439,-5.07546 6.63759,0 8.51435,3.25817 10.52674,18.27506 1.84472,13.76573 1.49355,16.11226 -2.93228,19.59362 -3.11354,2.44911 -6.80154,2.66989 -10.55177,0.63168 z m 11.03687,-65.83606 c -17.19546,-2.43447 -20.10248,-3.64226 -21.90386,-9.10048 -1.39477,-4.22619 -0.0147,-7.7785 4.24748,-10.93298 l 2.76854,-2.04903 17.45941,2.22049 c 9.60267,1.22126 18.62808,2.75296 20.05645,3.40378 2.98085,1.35816 5.44706,5.53645 5.44706,9.22848 0,3.74289 -4.79262,8.55407 -9,9.03485 -1.925,0.21997 -10.50879,-0.59233 -19.07508,-1.80511 z m 76.02568,-10.80161 c -17.4184,-2.32474 -31.21248,-13.85873 -36.97479,-30.91665 -1.78927,-5.29669 -2.11037,-8.14199 -1.8009,-15.95766 0.33335,-8.41855 0.78889,-10.37972 3.96393,-17.06545 4.66697,-9.82732 11.43527,-16.61527 21.54889,-21.61146 7.59693,-3.75293 7.89363,-3.81147 19.31718,-3.81147 11.4244,0 11.7196,0.0583 19.31227,3.81147 9.91562,4.9015 16.45806,11.43146 21.33015,21.28946 3.36145,6.80142 3.8141,8.63064 4.17443,16.86937 0.29433,6.72946 -0.0582,10.84263 -1.29725,15.13522 -6.22167,21.55478 -27.24864,35.23679 -49.57391,32.25717 z m 17.69955,-22.46075 c 8.49671,-4.0442 13.53055,-12.43273 13.48255,-22.46772 -0.0339,-7.08795 -2.10476,-12.25753 -6.93153,-17.30343 -5.20317,-5.4394 -10.35503,-7.58687 -18.20117,-7.58687 -7.84614,0 -12.998,2.14747 -18.20117,7.58687 -4.81424,5.03281 -7.00214,10.45994 -6.98498,17.32643 0.0306,12.25603 7.11591,21.40224 19.13671,24.70304 5.71286,1.5687 11.10445,0.88078 17.69959,-2.25832 z M 180.08643,176.95196 c 6.75842,-2.00704 13.1534,-7.83645 16.09301,-14.66976 2.9737,-6.91254 2.41004,-15.67047 -1.43029,-22.2235 -1.46327,-2.49689 -2.96297,-4.5398 -3.33265,-4.5398 -0.36968,0 -10.52209,3.4875 -22.5609,7.75 l -21.88874,7.75 0.54784,4.68161 c 1.11873,9.5603 8.49637,18.46758 17.62764,21.28245 5.99455,1.84792 8.63552,1.84244 14.94409,-0.031 z M 446.5591,148.2689 c 4.20411,-12.2375 7.63709,-22.57835 7.62885,-22.97968 -0.038,-1.85158 -8.8233,-5.08642 -14.01499,-5.16048 -7.94912,-0.1134 -14.09001,2.58417 -19.44738,8.54286 -4.94193,5.49662 -6.54365,9.74692 -6.53727,17.3473 0.0101,12.02502 10.93882,24.0998 22.1058,24.42392 2.53252,0.0735 2.87965,-0.67634 10.26499,-22.17392 z"
       id="path1389" />
  </g>
</svg>
