<?xml version="1.0" encoding="UTF-8" standalone="no"?>
<!-- Created with Inkscape (http://www.inkscape.org/) -->

<svg
   version="1.1"
   id="svg1322"
   width="511.54672"
   height="511.82419"
   viewBox="0 0 511.54672 511.8242"
   sodipodi:docname="pokebowl.svg"
   inkscape:version="1.1.1 (c3084ef, 2021-09-22)"
   xmlns:inkscape="http://www.inkscape.org/namespaces/inkscape"
   xmlns:sodipodi="http://sodipodi.sourceforge.net/DTD/sodipodi-0.dtd"
   xmlns="http://www.w3.org/2000/svg"
   xmlns:svg="http://www.w3.org/2000/svg">
  <defs
     id="defs1326" />
  <sodipodi:namedview
     id="namedview1324"
     pagecolor="#ffffff"
     bordercolor="#666666"
     borderopacity="1.0"
     inkscape:pageshadow="2"
     inkscape:pageopacity="0.0"
     inkscape:pagecheckerboard="0"
     showgrid="false"
     inkscape:zoom="1.7050781"
     inkscape:cx="97.356243"
     inkscape:cy="201.45704"
     inkscape:window-width="3440"
     inkscape:window-height="1301"
     inkscape:window-x="0"
     inkscape:window-y="25"
     inkscape:window-maximized="1"
     inkscape:current-layer="g1328" />
  <g
     inkscape:groupmode="layer"
     inkscape:label="Image"
     id="g1328"
     transform="translate(-7.2307643,-61.817986)">
    <path
       style="fill:#000000"
       d="m 170.3483,570.24172 -3.4,-3.4 v -24.1 c 0,-18.61272 -0.28461,-24.10026 -1.25,-24.10114 -0.6875,-6.3e-4 -8.45,-3.54906 -17.25,-7.88541 -15.80104,-7.78623 -35.44366,-20.09876 -47.03914,-29.48541 C 52.869036,441.97608 19.864371,387.75072 8.3742255,328.41706 6.9657745,321.144 6.8964135,319.1812 7.9573365,316.6199 c 2.3722745,-5.72718 3.8962755,-5.97818 36.2974145,-5.97818 h 29.405772 l -0.991372,-5.0139 c -2.999186,-15.1685 8.798689,-34.86712 25.779147,-43.0428 6.230252,-2.99972 7.934692,-3.37382 15.500002,-3.40198 6.85129,-0.0255 9.28909,0.38979 12.56821,2.1411 9.72073,5.19163 15.31771,16.06332 14.01913,27.23102 -0.65209,5.60795 -5.3137,17.02172 -8.29949,20.32098 -1.52228,1.6821 -0.60698,1.76558 19.35924,1.76558 h 20.95706 l 7.94792,-9.05422 c 13.67648,-15.58013 21.51985,-28.95868 28.97184,-49.41761 2.25242,-6.18388 9.33394,-13.88785 15.95629,-17.35879 4.38528,-2.29844 6.22064,-2.63343 14.5198,-2.65019 8.53843,-0.0173 9.67871,-0.2396 11.26564,-2.1968 2.40901,-2.9711 7.75839,-4.64395 10.95899,-3.42708 5.73989,2.1823 8.60489,10.04767 5.35172,14.69223 -1.27574,1.82136 -1.10621,2.67302 1.63169,8.19691 4.20542,8.48474 4.81815,17.2892 1.8244,26.21555 -3.04875,9.09037 -8.24209,19.66487 -13.53222,27.55383 -2.47512,3.69105 -4.50022,6.87642 -4.50022,7.07859 0,0.20217 30.52156,0.36758 67.82569,0.36758 h 67.82568 l 2.10813,-2.25 c 4.32151,-4.61234 7.22028,-12.75929 7.23073,-20.32186 0.0144,-10.40838 -2.17882,-15.77204 -9.41162,-23.01688 -7.61349,-7.62617 -11.88948,-9.14704 -29.19456,-10.38381 -24.98172,-1.78542 -43.61991,-10.31166 -60.53581,-27.69276 -11.76015,-12.08356 -19.15839,-25.52331 -23.43879,-42.57922 -2.47991,-9.88158 -3.0607,-36.7306 -0.99536,-46.01391 3.8196,-17.16837 16.61439,-30.49917 33.50472,-34.90829 5.97359,-1.55937 14.77351,-1.7233 95.31541,-1.77563 l 88.73423,-0.0576 3.24305,2.89766 c 2.68376,2.39794 3.24305,3.62279 3.24305,7.10234 0,3.47955 -0.55929,4.70439 -3.24305,7.10233 l -3.24305,2.89767 -87.73423,0.006 c -56.62808,0.004 -89.03801,0.36769 -91.41153,1.02693 -9.96943,2.76896 -18.26934,12.49966 -19.49599,22.85684 l -0.60528,5.11063 58.88929,0.004 c 64.67235,0.004 69.708,0.35383 86.58433,6.00792 17.81434,5.96836 31.66588,14.68314 45.92977,28.897 18.48336,18.41854 29.53945,40.27461 33.43065,66.0869 2.58478,17.14613 1.21141,35.21506 -3.90001,51.31101 l -2.45898,7.74339 2.76091,1.42772 c 3.69612,1.91134 5.40968,6.31126 4.56232,11.71473 -1.52895,9.74995 -6.9869,30.09079 -11.21794,41.80731 -10.06071,27.85998 -29.20993,62.06247 -36.41933,65.0487 -4.24832,1.75971 -8.82279,0.16234 -11.68674,-4.08093 -3.13079,-4.63862 -2.56904,-6.74608 4.81913,-18.07951 12.59536,-19.32126 24.52403,-46.24569 30.40966,-68.63826 l 2.43126,-9.25 H 262.96486 29.125673 l 1.358331,5.82265 c 2.313661,9.91777 7.493603,25.17114 12.565328,37.00109 24.881882,58.03774 73.842178,105.07952 133.246018,128.02476 l 10.74797,4.1515 h 75.86671 75.86671 l 9.33578,-3.55845 c 13.32116,-5.07753 29.6681,-13.22717 41.83578,-20.8569 12.25518,-7.68461 15.46795,-8.27054 20.07692,-3.66157 2.28534,2.28533 2.92308,3.82247 2.92308,7.04545 0,5.17662 -1.55181,6.78332 -14,14.49518 -9.43246,5.84359 -36.66671,19.53631 -38.85686,19.53631 -0.8259,0 -1.14314,6.68819 -1.14314,24.1 v 24.1 l -3.4,3.4 -3.4,3.4 h -89.2 -89.2 z m 168.6,-30.6 v -14 h -76 -76 v 14 14 h 76 76 z M 230.2748,305.39229 c 7.27473,-7.74856 13.18515,-16.45148 17.93384,-26.40705 3.45364,-7.24053 4.22019,-9.8997 4.22895,-14.67036 0.01,-5.45735 -0.22615,-6.04391 -3.7246,-9.25 -3.19838,-2.93109 -4.44514,-3.42316 -8.67328,-3.42316 -6.85551,0 -10.15155,2.96348 -13.6498,12.2726 -4.50001,11.97487 -13.46261,28.67456 -20.14333,37.53237 -3.46405,4.59291 -6.29828,8.5407 -6.29828,8.77288 0,0.23218 5.71457,0.42215 12.69904,0.42215 h 12.69904 z m 261.69426,-0.50057 c 8.00986,-21.27868 9.00037,-43.76262 2.82546,-64.13636 -2.24454,-7.40574 -7.79632,-20.11364 -8.78717,-20.11364 -0.35468,0 -1.5038,2.52691 -2.5536,5.61536 -6.06853,17.85334 -21.56015,34.91221 -40.17682,44.24144 -6.40244,3.2084 -19.10412,7.1432 -23.05853,7.1432 -2.20315,0 -2.27086,0.28756 -2.29592,9.75 -0.0199,7.50119 -0.55638,11.30687 -2.32614,16.5 l -2.30032,6.75 h 38.25429 38.25429 z m -385.54127,0.19271 c 7.21245,-3.42253 14.44709,-13.24901 14.49855,-19.69271 0.0346,-4.33365 -3.4165,-7.08866 -8.09384,-6.46129 -8.43035,1.13074 -17.428934,9.122 -20.023552,17.78206 -2.838483,9.47402 3.319292,13.25939 13.618842,8.37194 z M 421.9483,257.08475 c 25.55677,-6.0055 44.8943,-28.81826 46.14079,-54.43298 l 0.26716,-5.48994 -6.45397,-5.25204 c -8.21401,-6.6843 -26.11116,-15.71214 -36.45398,-18.38845 -4.9074,-1.26984 -12.79785,-2.28115 -20.41118,-2.61607 -11.89366,-0.52322 -12.37795,-0.46713 -11.61419,1.34523 9.61975,22.82725 9.80127,41.91557 0.58133,61.13046 -2.18009,4.54342 -3.57912,8.26076 -3.10896,8.26076 1.84937,0 13.19094,9.37587 15.79446,13.05699 3.19363,4.51548 4.99669,4.79743 15.25854,2.38604 z m -50.10222,-25.13519 c 7.08451,-8.59473 10.73131,-25.17396 8.20631,-37.30784 -1.42452,-6.84553 -5.16353,-15.02463 -9.19571,-20.11568 l -3.07644,-3.88432 H 330.34522 292.9102 l 0.46176,2.25 c 0.25397,1.2375 0.98094,4.725 1.61548,7.75 0.63455,3.025 3.17786,9.72929 5.65179,14.89842 3.80741,7.95534 5.82708,10.71915 13.15357,18 4.76052,4.73087 11.20478,10.09585 14.32058,11.92217 9.92219,5.81591 23.85535,9.60031 37.01212,10.05291 3.09682,0.10654 4.15753,-0.45623 6.72058,-3.56566 z m -43.82105,-25.89673 c -2.48587,-2.09172 -3.07673,-3.35262 -3.07673,-6.56575 0,-5.29571 1.44692,-7.71632 5.66625,-9.47927 2.77767,-1.16058 4.21331,-1.23091 6.9164,-0.33881 4.44042,1.46547 6.41735,4.42479 6.41735,9.60633 0,3.44958 -0.54284,4.64538 -3.07673,6.7775 -1.96868,1.65654 -4.28193,2.58889 -6.42327,2.58889 -2.14134,0 -4.45459,-0.93235 -6.42327,-2.58889 z M 432.77932,464.1122 c -3.06359,-1.66376 -5.219,-7.07645 -4.29074,-10.77496 1.04942,-4.18122 5.04318,-7.15007 9.61843,-7.15007 3.30056,0 4.57981,0.59748 6.94363,3.24305 7.80896,8.73975 -1.87605,20.32736 -12.27132,14.68198 z M 313.72344,289.13234 c -3.35756,-1.88298 -4.77514,-4.40357 -4.77514,-8.49062 0,-4.23528 1.46242,-6.67065 5.15113,-8.57815 7.94469,-4.10836 16.88906,3.76165 13.49721,11.87598 -0.73619,1.76119 -2.04309,3.78645 -2.90421,4.50056 -2.46864,2.04721 -7.9375,2.39234 -10.96899,0.69223 z m -157.85206,-51.4137 c -3.83134,-3.83133 -3.95638,-8.69547 -0.33419,-13.00019 2.13212,-2.53389 3.32792,-3.07673 6.7775,-3.07673 5.16245,0 8.14028,1.97518 9.5871,6.35906 3.21976,9.75597 -8.74133,17.00695 -16.03041,9.71786 z M 63.948298,226.60295 c -4.125,-1.06075 -11.325,-3.83229 -16,-6.15896 -6.875743,-3.42195 -10.332201,-6.05253 -18.088204,-13.76629 -8.222801,-8.17801 -10.251913,-10.88882 -14.248942,-19.03598 -6.5356978,-13.32174 -8.1124905,-20.02736 -8.1124905,-34.5 0,-14.41348 1.5810912,-21.19064 7.9870715,-34.23561 3.185076,-6.48601 6.390784,-11.17506 10.767621,-15.75 5.624132,-5.878695 6.619711,-6.514393 10.202317,-6.514393 3.906902,0 4.752215,0.782933 53.173986,49.250003 32.022783,32.05274 49.429013,50.18066 49.848443,51.91525 0.95413,3.94585 -1.83504,8.65011 -8.34334,14.07198 -7.38721,6.15408 -19.65979,12.28138 -29.59642,14.77653 -10.56928,2.65401 -27.155154,2.63083 -37.590042,-0.0525 z m 33.94772,-19.62311 c 2.996252,-0.82992 8.125102,-2.86049 11.397462,-4.51237 l 5.94974,-3.00341 -13.367,-13.39457 c -8.370819,-8.38808 -13.594576,-12.93356 -13.975868,-12.16117 -0.334877,0.67837 -2.559843,8.58626 -4.944369,17.57308 -3.627173,13.67013 -4.104499,16.48972 -2.921593,17.25802 1.741317,1.131 10.56354,0.2619 17.861628,-1.75958 z M 64.079217,185.31097 c 2.547006,-9.44309 4.498343,-17.31791 4.336304,-17.49961 -0.371835,-0.41696 -34.65888,8.68868 -35.36106,9.39086 -1.158167,1.15817 3.803832,8.3406 10.393837,15.04494 6.378708,6.48938 14.25289,11.93539 15.5,10.72025 0.275,-0.26795 2.583914,-8.21335 5.130919,-17.65644 z M 45.269493,153.03769 c 9.448343,-2.53222 17.381826,-4.79774 17.629962,-5.03449 0.534426,-0.50991 -25.095679,-26.36148 -26.135647,-26.36148 -1.292551,0 -6.734105,12.55282 -8.274591,19.0882 -1.484125,6.29627 -2.09282,16.9118 -0.969724,16.9118 0.314158,0 8.301658,-2.07182 17.75,-4.60403 z M 207.04562,208.9201 c -6.2388,-3.07308 -16.48393,-14.2557 -20.45718,-22.32911 -3.89924,-7.92306 -6.60541,-18.5542 -6.60541,-25.94927 0,-7.08042 2.65226,-17.80947 6.29661,-25.47131 5.6881,-11.95863 19.0986,-24.52869 26.16866,-24.52869 6.5942,0 19.26904,11.4609 25.40365,22.97061 6.33054,11.8773 8.26787,29.13414 4.66228,41.52939 -3.89599,13.39354 -12.85778,25.92404 -23.25801,32.51968 -5.36473,3.40221 -7.42733,3.61483 -12.2106,1.2587 z m 9.31676,-25.44903 c 11.09098,-12.95732 10.7793,-32.58188 -0.7501,-47.22949 l -3.06986,-3.90014 -3.75603,4.23251 c -5.69874,6.42168 -8.25338,13.85807 -8.26805,24.06777 -0.0102,7.11383 0.42143,9.43534 2.64689,14.23546 2.78812,6.01373 7.4548,12.76454 8.82384,12.76454 0.44186,0 2.40985,-1.87679 4.37331,-4.17065 z M 116.04199,139.31124 c -5.52424,-1.46624 -7.76282,-4.42785 -9.19853,-12.16952 -2.35833,-12.7166 1.11976,-27.86938 9.15428,-39.881983 11.4537,-17.124707 31.09456,-26.828724 51.16808,-25.280765 13.96554,1.076945 16.7603,3.869914 17.53904,17.527775 1.03511,18.154346 -4.08137,31.720423 -16.65332,44.155333 -4.18178,4.1362 -9.9322,8.75854 -12.77872,10.27185 -10.99513,5.84545 -28.45199,8.23823 -39.23083,5.37731 z m 27.27284,-21.97979 c 11.78716,-5.39634 20.56952,-17.657478 21.45938,-29.959655 l 0.43667,-6.036984 -5.69161,0.587426 c -7.48192,0.772202 -17.00465,5.366013 -22.44577,10.827947 -5.46491,5.485816 -9.85291,14.586356 -10.74973,22.294536 l -0.6868,5.903 6.09705,-0.55286 c 3.35337,-0.30407 8.56474,-1.68261 11.58081,-3.06341 z"
       id="path2028" />
  </g>
</svg>
