<?xml version="1.0" encoding="UTF-8" standalone="no"?>
<!-- Created with Inkscape (http://www.inkscape.org/) -->

<svg
   version="1.1"
   id="svg1322"
   width="512"
   height="507.8031"
   viewBox="0 0 512 507.80311"
   sodipodi:docname="sandwich.svg"
   inkscape:version="1.1.1 (c3084ef, 2021-09-22)"
   xmlns:inkscape="http://www.inkscape.org/namespaces/inkscape"
   xmlns:sodipodi="http://sodipodi.sourceforge.net/DTD/sodipodi-0.dtd"
   xmlns="http://www.w3.org/2000/svg"
   xmlns:svg="http://www.w3.org/2000/svg">
  <defs
     id="defs1326" />
  <sodipodi:namedview
     id="namedview1324"
     pagecolor="#ffffff"
     bordercolor="#666666"
     borderopacity="1.0"
     inkscape:pageshadow="2"
     inkscape:pageopacity="0.0"
     inkscape:pagecheckerboard="0"
     showgrid="false"
     inkscape:zoom="1.7050781"
     inkscape:cx="165.9748"
     inkscape:cy="322.27262"
     inkscape:window-width="3440"
     inkscape:window-height="1301"
     inkscape:window-x="0"
     inkscape:window-y="25"
     inkscape:window-maximized="1"
     inkscape:current-layer="g1328" />
  <g
     inkscape:groupmode="layer"
     inkscape:label="Image"
     id="g1328"
     transform="translate(61.231279,152.29691)">
    <path
       style="fill:#000000"
       d="m -32.744336,353.90888 c -11.727429,-4.0659 -20.441978,-11.34179 -25.207593,-21.04613 l -2.77935,-5.65966 -0.322523,-27.36781 c -0.233678,-19.82879 0.01173,-28.17475 0.890854,-30.29715 1.362953,-3.29047 5.500968,-5.83504 9.488998,-5.83504 1.752236,0 2.46925,-0.42554 2.106179,-1.25 -5.012775,-11.38294 -5.771132,-14.19015 -5.819345,-21.54142 -0.08333,-12.70619 3.300304,-21.70399 11.657151,-30.99882 l 4.675287,-5.20004 -5.676573,-6.25486 c -7.015979,-7.73071 -13.780386,-21.2948 -15.939797,-31.9627 -1.2592,-6.22069 -1.560231,-15.42676 -1.560231,-47.71458 V 78.773941 l 22.498725,-93.28543 c 12.374299,-51.30698 23.619478,-97.226201 24.989287,-102.042711 6.857948,-24.11387 18.1569438,-35.74271 34.72889,-35.74271 8.828996,0 14.351148,1.35979 24.283098,5.97955 17.75897,8.26043 400.085779,217.161331 402.750009,220.060011 l 2.75,2.99199 V 116.6309 c 0,42.23416 -0.50668,48.40466 -4.94472,60.21801 -2.63589,7.01631 -8.69124,16.48159 -14.55322,22.74852 l -4.45987,4.76797 4.93984,5.125 c 8.55388,8.8745 12.25896,18.43751 12.17381,31.42127 -0.0482,7.35127 -0.80657,10.15848 -5.81935,21.54142 -0.36307,0.82446 0.35394,1.25 2.10618,1.25 3.98803,0 8.12605,2.54457 9.489,5.83504 0.87913,2.1224 1.12453,10.46836 0.89085,30.29715 l -0.32252,27.36781 -2.81838,5.73943 c -3.90529,7.95287 -10.67196,14.37562 -19.67583,18.67584 l -7.50579,3.58473 -224,0.22191 c -210.493016,0.20852 -224.302292,0.1171 -229.013066,-1.51612 z M 416.84645,334.56166 c 4.99205,-1.49566 10.82271,-6.37603 12.54651,-10.50166 0.99975,-2.39273 1.37577,-8.35778 1.37577,-21.82479 V 283.70309 H 307.84553 184.92232 l -4.63961,6.97898 c -5.4157,8.14636 -9.72974,11.98819 -18.01398,16.04215 -20.82249,10.18967 -43.38694,3.60557 -56.4719,-16.47798 l -4.26303,-6.54315 H 30.151263 -41.231279 v 18.53212 c 0,13.6018 0.371589,19.42146 1.396732,21.87497 1.588598,3.80205 7.024549,8.51084 11.842147,10.25804 4.618853,1.67512 439.26259,1.86413 444.83885,0.19344 z M 153.26873,288.75045 c 2.2,-0.98305 5.19636,-3.08336 6.65857,-4.66736 1.46221,-1.584 20.02741,-29.43 41.25599,-61.88 l 38.59741,-59 -96.16763,-0.25502 c -52.892199,-0.14027 -96.335239,-0.0874 -96.540099,0.11743 -0.69382,0.69383 76.647379,118.11011 80.285899,121.88681 6.36672,6.6085 16.34646,8.07144 25.90986,3.79814 z M 87.602051,262.85298 c -0.18333,-0.46756 -5.50833,-8.80618 -11.83333,-18.53027 -10.71187,-16.46849 -11.67133,-17.63665 -14,-17.04525 -23.613468,5.99694 -50.630248,3.77605 -73.301497,-6.02568 -7.251119,-3.13496 -8.22603,-3.32726 -10.612353,-2.09324 -14.253912,7.37098 -16.407481,28.68435 -3.919625,38.79161 7.00926,5.67306 6.880644,5.66135 62.666808,5.70905 28.233337,0.0241 51.183337,-0.33866 50.999997,-0.80622 z m 324.714579,-2.67355 c 7.32258,-4.52758 10.76563,-10.03643 11.27528,-18.04037 0.51102,-8.02547 -1.44937,-13.72883 -6.43142,-18.71088 -6.00109,-6.00109 -8.08317,-6.37175 -16.07881,-2.86245 -28.80313,12.64178 -62.84762,13.41705 -85.8772,1.95562 l -6.14629,-3.05891 -6.74849,4.0702 c -16.95727,10.22741 -34.62319,14.70402 -54.54097,13.8209 -10.9764,-0.48667 -24.36058,-2.90116 -27.77315,-5.01025 -0.86173,-0.53258 -21.22685,28.96109 -21.22685,30.74167 0,0.35982 46.94797,0.5336 104.32882,0.38618 l 104.32883,-0.26805 z m -141.06759,-44.9448 c 8.98133,-2.4421 17.13296,-6.40488 25.44997,-12.37206 11.67744,-8.37818 13.00448,-8.49743 21.70955,-1.9509 9.43099,7.09246 23.93028,10.48361 40.36017,9.43959 30.34507,-1.92825 56.66741,-16.63844 66.55406,-37.19363 1.89527,-3.94042 3.44594,-7.88157 3.44594,-8.7581 0,-1.40469 -2.79692,-1.62944 -23.58375,-1.89507 l -23.58375,-0.30137 -2.91625,-3.26578 c -3.71846,-4.16413 -3.90608,-8.9711 -0.50461,-12.92846 l 2.41164,-2.80576 24.83836,-0.5 24.83836,-0.5 0.2666,-26.25 0.26661,-26.249999 H 194.76873 -41.264486 l 0.266604,26.249999 0.266603,26.25 170.836659,0.5 170.83664,0.5 2.41336,2.80576 c 3.40337,3.95676 3.21642,8.76334 -0.50284,12.92846 l -2.91619,3.26578 -17.9896,0.32961 -17.98961,0.32962 -16.64843,25.53282 c -9.15664,14.04306 -16.39104,25.79023 -16.07644,26.10483 3.26198,3.26197 28.98526,3.73422 40.01677,0.73466 z m 65.90781,-53.50043 c -6.51526,-2.66695 -8.35476,-11.21831 -3.46504,-16.10803 6.01991,-6.01991 15.61826,-2.76154 16.7514,5.68664 0.4753,3.54364 0.15839,4.52741 -2.31184,7.17643 -3.08117,3.30419 -7.58009,4.63444 -10.97452,3.24496 z M 50.882391,208.98942 c 0.68917,-0.68917 -3.75761,-8.30848 -13.798397,-23.6428 l -14.815273,-22.62593 -31.317388,-0.009 -31.317387,-0.009 0.663816,2.25 c 6.652478,22.54854 27.489864,38.59844 57.487027,44.27914 8.403627,1.59143 31.432302,1.42249 33.097602,-0.24281 z M 398.26873,68.022271 c -1.65,-0.88041 -81.975,-44.58149 -178.5,-97.1135 -96.525,-52.53202 -178.846529,-97.108531 -182.936726,-99.058921 -9.913293,-4.72709 -18.007177,-5.48035 -21.714094,-2.02082 -6.6661272,6.22126 -7.3341472,8.52322 -31.304621,107.874061 -11.478466,47.575 -21.183013,87.7375 -21.565661,89.25 l -0.695723,2.75 219.858415,-0.04 c 202.1767,-0.0368 219.61714,-0.16877 216.85841,-1.64078 z M 39.768721,49.996861 c -5.570046,-2.03616 -8.282453,-8.9131 -5.57815,-14.14264 1.965326,-3.80053 4.348511,-5.15113 9.08933,-5.15113 4.78885,0 9.48882,4.44434 9.48882,8.97274 0,7.38577 -6.63011,12.64958 -13,10.32103 z m 67.388119,-0.23599 c -3.0014,-1.26649 -6.38812,-5.9013 -6.38812,-8.7423 0,-3.21048 2.5537,-8.00626 4.94461,-9.28584 6.44221,-3.44776 15.0554,1.34509 15.0554,8.37766 0,6.62324 -7.75549,12.12167 -13.61189,9.65048 z m 159.0322,-5.94325 c -8.87467,-5.41176 -5.28328,-18.11453 5.12143,-18.11453 10.45492,0 13.10863,15.48602 3.24305,18.92518 -4.1269,1.43864 -4.77965,1.37538 -8.36448,-0.81065 z m -70.20774,-1.62114 c -6.63875,-2.8844 -7.65475,-13.00797 -1.69723,-16.91148 6.44383,-4.22216 15.48466,0.39435 15.48466,7.90691 0,4.92822 -1.51396,7.41015 -5.54837,9.09584 -4.07895,1.70429 -4.10712,1.70398 -8.23906,-0.0913 z M 135.15167,-0.83997936 c -8.94991,-4.53075004 -5.85193,-18.45692964 4.10588,-18.45692964 4.74082,0 7.124,1.3506 9.08933,5.15113 4.39773,8.5042696 -4.65254,17.63039 -13.19521,13.30579964 z M 13.156838,-2.2391294 c -3.4024322,-1.43571 -6.3881172,-6.00182 -6.3881172,-9.7695596 0,-6.91327 8.6762492,-11.67259 15.0553912,-8.25858 2.425293,1.29798 4.944609,6.08986 4.944609,9.40492 0,5.6019996 -8.3043,10.86283004032 -13.611883,8.6232196 z M 89.518701,-47.377019 c -2.29731,-1.33806 -4.74998,-6.16827 -4.74998,-9.354454 0,-1.393635 1.30395,-3.993255 2.89766,-5.776932 2.39795,-2.683766 3.62279,-3.243049 7.10234,-3.243049 3.47955,0 4.70439,0.559283 7.102339,3.243049 3.96656,4.439351 3.95725,9.305756 -0.0254,13.288416 -2.230879,2.23089 -3.829299,2.91588 -6.749999,2.89267 -2.1048,-0.0167 -4.61443,-0.48909 -5.57694,-1.0497 z M 35.691798,-67.219986 c -4.919501,-4.919501 -3.838049,-12.518172 2.228049,-15.655073 4.082714,-2.111253 9.141134,-1.137051 11.827274,2.277816 2.99051,3.801825 3.41389,6.671383 1.56054,10.577022 -2.99944,6.320866 -10.71218,7.703914 -15.615863,2.800235 z"
       id="path3306" />
  </g>
</svg>
