<?xml version="1.0" encoding="UTF-8" standalone="no"?>
<!-- Created with Inkscape (http://www.inkscape.org/) -->

<svg
   width="154.28389mm"
   height="209.54568mm"
   viewBox="0 0 154.28389 209.54568"
   version="1.1"
   id="svg5"
   inkscape:version="1.1.1 (c3084ef, 2021-09-22)"
   sodipodi:docname="shot.svg"
   xmlns:inkscape="http://www.inkscape.org/namespaces/inkscape"
   xmlns:sodipodi="http://sodipodi.sourceforge.net/DTD/sodipodi-0.dtd"
   xmlns="http://www.w3.org/2000/svg"
   xmlns:svg="http://www.w3.org/2000/svg">
  <sodipodi:namedview
     id="namedview7"
     pagecolor="#ffffff"
     bordercolor="#666666"
     borderopacity="1.0"
     inkscape:pageshadow="2"
     inkscape:pageopacity="0.0"
     inkscape:pagecheckerboard="0"
     inkscape:document-units="mm"
     showgrid="false"
     inkscape:zoom="0.5499273"
     inkscape:cx="-582.80431"
     inkscape:cy="631.90171"
     inkscape:window-width="3440"
     inkscape:window-height="1301"
     inkscape:window-x="0"
     inkscape:window-y="25"
     inkscape:window-maximized="0"
     inkscape:current-layer="layer1"
     fit-margin-top="0"
     fit-margin-left="0"
     fit-margin-right="0"
     fit-margin-bottom="0" />
  <defs
     id="defs2" />
  <g
     inkscape:label="Layer 1"
     inkscape:groupmode="layer"
     id="layer1"
     transform="translate(-27.868465,-49.207128)">
    <path
       style="fill:#000000;stroke-width:0.392997"
       d="m 39.416166,258.32941 c -4.221788,-1.09973 -7.957983,-4.42061 -9.989721,-8.87926 l -1.423482,-3.12384 -0.109715,-45.65803 c -0.0753,-31.33568 0.01969,-46.73196 0.302814,-49.08159 0.777117,-6.44928 3.398133,-13.57944 6.866122,-18.67845 0.918637,-1.35068 4.036172,-5.12925 6.927858,-8.39684 2.92896,-3.3097 5.712787,-6.86039 6.285313,-8.01673 2.141118,-4.32448 2.168084,-4.76665 2.174166,-35.650136 0.0042,-21.077241 0.120925,-28.599111 0.45639,-29.397712 0.904055,-2.152185 1.484298,-2.239694 14.850729,-2.239694 h 12.320246 l 1.282979,1.391608 1.282979,1.391608 0.0056,28.58936 c 0.006,30.986306 0.02928,31.384296 2.091599,35.798636 0.602446,1.28952 2.969342,4.31975 6.240837,7.98985 2.898673,3.25185 6.047651,7.05621 6.997731,8.45415 3.453014,5.08069 6.085509,12.12255 6.896669,18.44842 0.64895,5.06082 0.5529,92.34295 -0.10456,95.0126 -1.22284,4.9654 -3.864486,8.47667 -8.076239,10.73489 l -2.879696,1.544 -25.491004,0.0681 c -14.089794,0.0376 -26.124593,-0.097 -26.907593,-0.30092 z m 52.965869,-9.18472 c 0.918436,-0.70026 1.992444,-2.02638 2.489342,-3.0737 l 0.873958,-1.84205 -0.09865,-16.67039 -0.09865,-16.67039 -14.445696,10.43259 c -10.684436,7.71623 -14.734435,10.43258 -15.554655,10.43258 -0.819201,0 -4.784554,-2.65294 -15.176029,-10.15322 -7.736889,-5.58428 -14.284709,-10.29543 -14.550711,-10.46923 -0.390898,-0.25541 -0.463258,2.97993 -0.377347,16.87189 l 0.106294,17.18789 1.132041,1.74281 c 0.622622,0.95855 1.887093,2.1752 2.809935,2.70366 l 1.677894,0.96084 24.798442,-0.11082 24.798444,-0.11083 z M 80.64361,211.83573 95.736717,200.92264 v -16.85488 -16.85488 l -1.947012,-3.03159 c -2.559506,-3.98527 -8.498371,-10.37289 -11.89047,-12.78893 -9.07147,-6.46121 -19.687677,-7.29895 -29.083379,-2.29501 -5.215069,2.77742 -12.080497,9.49382 -15.720567,15.37931 l -1.734063,2.80375 v 16.8211 16.82111 l 14.999536,10.88542 c 8.249745,5.98699 15.042335,10.89788 15.094639,10.9131 0.05231,0.0152 6.887002,-4.88322 15.188209,-10.88541 z M 62.056974,194.49841 c -4.285136,-1.17445 -7.962928,-4.4506 -9.989721,-8.89876 -1.347657,-2.95768 -1.423481,-3.33346 -1.423481,-7.05485 0,-3.7214 0.07582,-4.09718 1.423481,-7.05486 1.681125,-3.68953 3.850529,-5.97408 7.444169,-7.83929 2.215686,-1.15002 2.801132,-1.27306 6.057118,-1.27306 3.408269,0 3.761065,0.084 6.484585,1.544 11.286654,6.05047 11.360373,23.15643 0.125751,29.179 -2.302167,1.23413 -3.243051,1.502 -5.729891,1.63134 -1.636482,0.0851 -3.612885,-0.02 -4.392011,-0.23352 z m 7.710135,-9.22649 c 4.717284,-3.60401 4.280796,-11.03422 -0.822016,-13.99295 -3.566267,-2.0678 -8.103829,-0.45763 -10.094775,3.58216 -1.90639,3.86822 -0.421915,8.78997 3.302532,10.94949 2.368308,1.3732 5.391754,1.15929 7.614259,-0.5387 z M 42.908162,146.15058 c 3.405484,-2.81448 10.052052,-6.28182 14.150506,-7.38195 4.796731,-1.28758 12.197887,-1.28692 16.957943,0.002 6.421085,1.73801 13.135835,5.86754 18.649072,11.46907 l 2.777839,2.82233 -0.248902,-2.0352 c -0.346657,-2.83446 -2.156412,-8.0252 -3.856782,-11.062 -0.786459,-1.40475 -3.902751,-5.33037 -6.925096,-8.72376 -5.86875,-6.58925 -7.81498,-9.38534 -9.309398,-13.37452 -1.540858,-4.11315 -2.007436,-7.8553 -2.007436,-16.10047 v -7.535976 h -7.546937 -7.546936 v 7.535976 c 0,8.24517 -0.466578,11.98732 -2.007436,16.10047 -1.494418,3.98918 -3.440648,6.78527 -9.309399,13.37452 -3.022343,3.39339 -6.138636,7.31901 -6.925095,8.72361 -1.701107,3.03811 -3.510166,8.22786 -3.857185,11.06531 l -0.249309,2.0385 2.400898,-2.44522 c 1.320495,-1.34488 3.504638,-3.35743 4.853653,-4.47232 z M 73.095908,71.718432 V 57.393057 h -7.546937 -7.546936 v 14.325375 14.325372 h 7.546936 7.546937 z M 131.56268,258.16462 c -0.53095,-0.31324 -1.14765,-1.00348 -1.37045,-1.53388 -0.2228,-0.5304 -2.9981,-17.84254 -6.16732,-38.47143 -6.29494,-40.97453 -6.11676,-39.06302 -3.78077,-40.55975 0.91804,-0.58823 2.22231,-0.69195 8.70071,-0.69195 h 7.62079 l 1.28298,1.39161 c 0.9245,1.00278 1.28298,1.75757 1.28298,2.70136 0,0.94378 -0.35848,1.69858 -1.28298,2.70135 l -1.28298,1.39161 h -4.99041 -4.99041 l 0.19911,1.12557 c 0.10951,0.61906 1.52941,9.82823 3.15533,20.46482 l 2.9562,19.33925 h 17.55654 17.55654 l 2.95621,-19.33925 c 1.62591,-10.63659 3.04581,-19.84576 3.15532,-20.46482 l 0.19912,-1.12557 h -3.10368 c -3.02654,0 -3.13556,-0.0346 -4.38666,-1.39161 -1.41184,-1.53138 -1.62152,-2.8505 -0.74526,-4.68848 0.86106,-1.80607 2.00079,-2.10584 8.00646,-2.10584 4.47752,0 5.68903,0.1276 6.56982,0.69195 2.33586,1.49665 2.51402,-0.41596 -3.77961,40.57516 -3.16859,20.63735 -5.98349,37.9931 -6.25535,38.56834 -0.94191,1.99307 -1.26408,2.02495 -20.285,2.00745 -14.47936,-0.0133 -17.9925,-0.12294 -18.77723,-0.58589 z m 33.74868,-14.64401 c 0.58232,-3.8832 1.14923,-7.56687 1.25982,-8.18593 l 0.20107,-1.12557 H 150.452 134.13175 l 0.20107,1.12557 c 0.11059,0.61906 0.67751,4.30273 1.25982,8.18593 l 1.05875,7.06036 h 13.80061 13.80061 z m -15.46311,-59.81868 c -1.41184,-1.53138 -1.62152,-2.8505 -0.74526,-4.68848 0.5963,-1.25075 2.00935,-2.10584 3.47991,-2.10584 1.42978,0 3.5293,2.43484 3.5293,4.09297 0,0.94378 -0.35848,1.69858 -1.28297,2.70135 -0.9245,1.00278 -1.62038,1.39161 -2.49049,1.39161 -0.87012,0 -1.56599,-0.38883 -2.49049,-1.39161 z"
       id="path618" />
  </g>
</svg>
