<?xml version="1.0" encoding="UTF-8" standalone="no"?>
<svg
   id="Capa_1"
   enable-background="new 0 0 512 512"
   height="511.99899"
   viewBox="0 0 433.90958 511.99899"
   width="433.90958"
   version="1.1"
   sodipodi:docname="smoothie.svg"
   inkscape:version="1.1.1 (c3084ef, 2021-09-22)"
   xmlns:inkscape="http://www.inkscape.org/namespaces/inkscape"
   xmlns:sodipodi="http://sodipodi.sourceforge.net/DTD/sodipodi-0.dtd"
   xmlns="http://www.w3.org/2000/svg"
   xmlns:svg="http://www.w3.org/2000/svg">
  <defs
     id="defs26" />
  <sodipodi:namedview
     id="namedview24"
     pagecolor="#ffffff"
     bordercolor="#666666"
     borderopacity="1.0"
     inkscape:pageshadow="2"
     inkscape:pageopacity="0.0"
     inkscape:pagecheckerboard="0"
     showgrid="false"
     inkscape:zoom="1.7050781"
     inkscape:cx="216.70561"
     inkscape:cy="263.0378"
     inkscape:window-width="1312"
     inkscape:window-height="1081"
     inkscape:window-x="0"
     inkscape:window-y="25"
     inkscape:window-maximized="0"
     inkscape:current-layer="Capa_1" />
  <g
     id="g21"
     transform="translate(-39.045429)">
    <g
       id="g19">
      <path
         d="m 210.418,405.427 c -5.523,0 -10,4.477 -10,10 v 11.267 c 0,5.523 4.477,10 10,10 5.523,0 10,-4.477 10,-10 v -11.267 c 0,-5.523 -4.477,-10 -10,-10 z"
         id="path9" />
      <path
         d="m 256.938,405.427 c -5.523,0 -10,4.477 -10,10 v 11.267 c 0,5.523 4.477,10 10,10 5.522,0 10,-4.477 10,-10 v -11.267 c 0,-5.523 -4.477,-10 -10,-10 z"
         id="path11" />
      <path
         d="m 303.458,405.427 c -5.522,0 -10,4.477 -10,10 v 11.267 c 0,5.523 4.478,10 10,10 5.522,0 10,-4.477 10,-10 v -11.267 c 0,-5.523 -4.478,-10 -10,-10 z"
         id="path13" />
      <path
         d="M 423.889,42 H 379.954 V 20 h 6 c 5.522,0 10,-4.477 10,-10 0,-5.523 -4.478,-10 -10,-10 h -254.69 c -5.523,0 -10,4.477 -10,10 0,5.523 4.477,10 10,10 h 7.69 V 42 H 74.629 c -2.743,0 -5.365,1.126 -7.253,3.116 -1.888,1.989 -2.876,4.667 -2.733,7.406 0.133,2.553 3.817,60.812 58.042,88.158 v 64.589 c 0,0.718 0.077,1.433 0.23,2.134 l 5.579,25.537 h -40.1 L 71.798,157.334 c -1.185,-5.395 -6.518,-8.805 -11.912,-7.624 -5.395,1.184 -8.808,6.517 -7.624,11.912 L 67.917,232.94 H 49.041 c -6.194,0 -11.006,5.836 -9.813,11.921 L 69.267,398.27 c 2.008,10.258 3.029,20.759 3.034,31.212 -0.235,14.77 -1.997,28.577 -5.237,41.04 l -4.175,16.064 c -1.594,6.129 -0.286,12.519 3.588,17.529 3.875,5.01 9.729,7.884 16.063,7.884 h 77.315 0.003 221.336 c 5.522,0 10,-4.477 10,-10 v -47.33 c 0,-50.037 -23.98,-83.696 -33.465,-95.054 l 33.235,-152.213 c 0.153,-0.701 0.23,-1.416 0.23,-2.133 V 102.284 l 21.566,12.799 v 113.682 c 0,16.595 13.502,30.097 30.098,30.097 16.596,0 30.097,-13.501 30.097,-30.097 V 91.065 C 472.955,64.01 450.944,42 423.889,42 Z M 158.954,20 h 201 v 22 h -59.182 c -5.72,0 -10.483,5.096 -9.958,10.824 0.42,5.137 4.714,9.176 9.958,9.176 h 0.038 c 0.175,0.01 0.337,0.033 0.518,0.037 0.54,0.012 69.866,-0.037 69.866,-0.037 v 89.19 c -15.329,-3.073 -37.253,-3.165 -62.172,9.752 -34.787,17.877 -75.727,18.181 -110.495,0 -21.657,-11.228 -40.989,-12.688 -55.843,-10.811 V 62 h 70.137 c 5.523,0 10,-4.477 10,-10 0,-5.523 -4.477,-10 -10,-10 h -53.867 z m -36.272,97.571 C 109.485,108.736 99.364,96.461 92.491,80.923 89.344,73.809 87.437,67.17 86.29,62 h 36.393 v 55.571 z M 151.593,452.89 H 90.802 c 0.993,-7.728 1.497,-15.536 1.502,-23.33 0,-11.757 -1.146,-23.576 -3.407,-35.132 L 68.706,291.327 c 1.188,0.518 2.374,1.083 3.557,1.695 27.88,15.084 63.35,15.088 91.23,0.001 3.553,-1.836 7.122,-3.25 10.691,-4.236 l -20.685,105.648 c -2.252,11.542 -3.397,23.358 -3.405,35.119 0,7.802 0.515,15.597 1.499,23.336 z m 29.613,-199.949 -2.871,14.663 c -8.148,1.029 -16.218,3.602 -24.136,7.709 -22.877,11.77 -49.772,11.939 -72.638,0.001 -5.662,-2.939 -11.441,-5.087 -17.255,-6.453 L 61.189,252.94 H 181.206 Z M 82.539,492 c -0.223,-0.031 -0.321,-0.158 -0.294,-0.381 l 4.175,-16.064 c 0.228,-0.877 0.43,-1.776 0.645,-2.665 h 68.263 c 0.468,1.921 0.952,3.835 1.45,5.748 l 3.374,12.981 c 0.046,0.18 -0.09,0.381 -0.298,0.381 z m 288.655,0 H 180.171 c 0.024,-1.815 -0.204,-3.661 -0.659,-5.418 l -3.762,-14.454 c -3.638,-13.886 -5.648,-28.141 -5.654,-42.507 0.135,-11.206 1.155,-21.753 3.034,-31.349 l 5.056,-25.821 H 342.36 c 7.541,9.139 28.834,38.795 28.834,82.22 z m 0,-287.809 -32.371,148.259 H 182.103 L 203.17,244.862 c 1.192,-6.084 -3.607,-11.922 -9.815,-11.922 h -44.389 l -6.281,-28.75 v -33.853 c 11.872,-1.946 28.056,-1.274 46.628,8.355 40.116,20.939 88.88,21.296 128.962,-0.02 21.568,-11.166 39.888,-10.517 52.919,-6.992 z m 81.761,24.574 c 0,5.567 -4.53,10.097 -10.098,10.097 -5.568,0 -10.097,-4.529 -10.097,-10.097 V 109.389 c 0,-3.53 -1.861,-6.798 -4.896,-8.6 L 391.194,79.027 V 62 h 32.695 c 16.026,0 29.065,13.038 29.065,29.064 v 137.701 z"
         id="path15" />
      <path
         d="m 247.708,55.82 c 1.548,3.776 5.396,6.282 9.474,6.174 4.533,-0.121 8.508,-3.38 9.503,-7.805 1.948,-8.66 -7.993,-15.368 -15.335,-10.472 -3.899,2.601 -5.443,7.781 -3.642,12.103 z"
         id="path17" />
    </g>
  </g>
</svg>
