<?xml version="1.0" encoding="UTF-8" standalone="no"?>
<!-- Created with Inkscape (http://www.inkscape.org/) -->

<svg
   version="1.1"
   id="svg1322"
   width="511.76666"
   height="511.45032"
   viewBox="0 0 511.76666 511.45033"
   sodipodi:docname="spaghetti.svg"
   inkscape:version="1.1.1 (c3084ef, 2021-09-22)"
   xmlns:inkscape="http://www.inkscape.org/namespaces/inkscape"
   xmlns:sodipodi="http://sodipodi.sourceforge.net/DTD/sodipodi-0.dtd"
   xmlns="http://www.w3.org/2000/svg"
   xmlns:svg="http://www.w3.org/2000/svg">
  <defs
     id="defs1326" />
  <sodipodi:namedview
     id="namedview1324"
     pagecolor="#ffffff"
     bordercolor="#666666"
     borderopacity="1.0"
     inkscape:pageshadow="2"
     inkscape:pageopacity="0.0"
     inkscape:pagecheckerboard="0"
     showgrid="false"
     inkscape:zoom="1.7050781"
     inkscape:cx="186.50172"
     inkscape:cy="258.34593"
     inkscape:window-width="3440"
     inkscape:window-height="1301"
     inkscape:window-x="0"
     inkscape:window-y="25"
     inkscape:window-maximized="1"
     inkscape:current-layer="g1328" />
  <g
     inkscape:groupmode="layer"
     inkscape:label="Image"
     id="g1328"
     transform="translate(81.464956,88.31753)">
    <path
       style="fill:#000000"
       d="m 48.87505,422.8924 c -36.18763,-4.53788 -63.822357,-17.68314 -87.998043,-41.85883 -25.392613,-25.39261 -39.574516,-56.65223 -42.117988,-92.83607 -0.737572,-10.49283 0.283667,-14.81693 4.003181,-16.95019 1.162068,-0.66648 6.61285,-1.43678 12.11285,-1.71178 l 10,-0.5 0.284861,-3.5 c 1.722583,-21.16488 11.567207,-48.00058 24.578819,-67 4.892705,-7.14428 22.9212772,-26.31582 28.9935202,-30.83164 l 2.8572,-2.12485 -2.662592,-3.16431 c -9.8695112,-11.72925 -13.6323492,-32.79784 -8.551407,-47.88039 2.786454,-8.27145 5.655716,-13.09594 12.464474,-20.958241 7.3463698,-8.4831 9.8773308,-15.19511 9.2932528,-24.64534 -0.541162,-8.75587 -2.9079508,-13.90773 -10.3227668,-22.46986 -3.049974,-3.52191 -6.932422,-9.22089 -8.627662,-12.66441 -2.728579,-5.54254 -3.4164362,-6.26095 -5.9946362,-6.26095 -5.898172,0 -10.813063,-4.54533 -10.813063,-10 0,-5.0884 4.887208,-9.9999999 9.95034,-9.9999999 1.594159,0 2.04966,-0.643289 2.04966,-2.894665 0,-4.50874502 3.6173142,-15.1152781 6.9421022,-20.3553351 l 3.01385,-4.75 h -9.5779762 c -9.559267,0 -9.584617,-0.0066 -12.977976,-3.4 -2.45,-2.45 -3.4,-4.294118 -3.4,-6.6 0,-2.305882 0.95,-4.15 3.4,-6.6 l 3.4,-3.4 H -4.7440018 11.336946 l 0.649851,-2.589213 c 1.16613,-4.646231 -0.334087,-14.322982 -3.0955918,-19.967295 l -2.663253,-5.443492 h -10.976111 c -12.1357922,0 -15.6900292,-1.099925 -17.6821062,-5.472058 -2.410724,-5.290962 -0.345288,-11.394492 4.540778,-13.418367 2.09754,-0.86883 21.8403222,-1.099349 76.297157,-0.890854 l 73.46738,0.281279 5.71807,2.680056 c 6.98401,3.273406 14.70634,10.316327 17.88842,16.3146 l 2.36996,4.467424 123.51177,0.26896 123.51178,0.26896 5.62454,2.762166 c 6.65867,3.270022 14.16945,10.938414 17.16049,17.520606 3.02558,6.658209 3.02558,19.776247 0,26.434456 -2.99104,6.582192 -10.50182,14.2505841 -17.16049,17.52060608 l -5.62454,2.76216602 -55.5,0.25692 c -43.17971,0.199888 -56.05497,-0.02385 -58,-1.007892 -1.375,-0.695648 -3.32456,-2.94876202 -4.33236,-5.006921 -1.77647,-3.627985 -1.77647,-3.856229 0,-7.4842141 1.0078,-2.058159 2.95736,-4.301525 4.33236,-4.985258 1.89649,-0.943051 15.29435,-1.247612 55.5,-1.261631 51.10803,-0.01782 53.11634,-0.08942 56.25914,-2.005602 9.43412,-5.752054 9.43412,-18.25875 0,-24.010804 -3.2041,-1.953566 -5.28132,-1.987185 -123.00914,-1.99086 l -119.75,-0.0037 v 13.951118 13.951117 l 25.08813,0.298883 25.08813,0.298882 2.41187,2.805764 c 3.27106,3.8052671 3.27101,9.5833041 -1.1e-4,13.38847208 l -2.41197,2.80576402 -26.36382,0.295391 -26.36382,0.29539 -2.35594,4.440993 c -3.1819,5.9979259 -10.92463,13.0383659 -17.8744,16.2531159 -5.16147,2.38753 -7.2117,2.69708 -21.06255,3.18005 l -15.34448,0.53506 6.06595,7.437 c 9.92499,12.16827 13.42659,21.27652 13.47969,35.063 0.0554,14.37784 -4.21587,25.01901 -14.84707,36.989183 -7.52252,8.46995 -10.79589,18.34083 -9.09275,27.41933 0.62292,3.32045 0.94149,3.59148 4.22137,3.59148 4.66128,0 21.1601,3.39143 29.36177,6.03548 3.575,1.15251 9.9785,3.70774 14.22999,5.67831 l 7.73,3.58283 7.77,-3.53818 c 9.70808,-4.42072 21.39032,-8.12151 32.89601,-10.42106 13.29914,-2.65799 39.49815,-2.41514 53.06241,0.49187 26.25934,5.62774 49.59971,17.52818 68.11548,34.72969 7.46468,6.93484 8.61823,7.63084 15.61151,9.41942 18.03504,4.61259 32.87658,13.1497 46.0846,26.50863 14.00856,14.16862 23.89738,33.0364 26.76677,51.07078 l 1.18411,7.44223 h 9.22751 c 10.50364,0 13.24487,0.90721 15.79729,5.22812 1.55099,2.62561 1.71508,4.44856 1.1612,12.90034 -4.33133,66.09303 -50.04676,118.75248 -115.60137,133.16084 -9.3769,2.06097 -11.63971,2.09873 -136.03551,2.26979 -69.575,0.0957 -127.85,0.005 -129.5,-0.20222 z m 255.5,-20.82826 c 27.03085,-4.15308 50.48925,-15.9622 69.52783,-35.00078 19.01217,-19.01217 31.90078,-44.88676 35.25576,-70.77783 l 0.87466,-6.75 H 174.37505 -61.283205 l 0.874668,6.75 c 5.886822,45.42991 38.942088,85.5789 82.783587,100.54913 6.82388,2.33009 18.85437,5.0652 26.5,6.02471 1.65,0.20707 57.675,0.44127 124.5,0.52043 102.02782,0.12087 123.02252,-0.09 131,-1.31566 z M -9.0518398,267.86546 c -3.1717472,-8.26544 -3.6880122,-22.98298 -1.1164932,-31.82869 2.4811172,-8.53475 5.7258432,-14.42376 12.0628702,-21.89349 3.068474,-3.61694 6.52986,-8.72084 7.691969,-11.342 2.3188328,-5.23018 3.7914418,-19.26575 2.0213568,-19.26575 -0.566612,0 -4.4506028,3.19428 -8.6310918,7.09839 -20.2342462,18.89656 -33.8896112,45.25209 -37.3832932,72.15161 l -0.876683,6.75 h 13.436117 c 12.1404992,0 13.3743182,-0.16104 12.7952482,-1.67007 z m 44.4150198,0.92007 c -0.007,-0.4125 -0.67619,-3.225 -1.48813,-6.25 -4.44043,-16.54337 0.17647,-34.35513 12.62467,-48.70531 7.10785,-8.19388 9.87533,-14.86215 9.87533,-23.79469 0,-8.87069 -2.77845,-15.56316 -9.96226,-23.99619 -6.80917,-7.99323 -10.31152,-14.42431 -12.50608,-22.96391 -3.09649,-12.04926 -1.14058,-27.7199 4.70083,-37.66273 1.41437,-2.40744 5.30147,-7.722141 8.638,-11.810461 7.14291,-8.75235 9.13302,-13.87939 9.11974,-23.49484 -0.012,-8.70814 -2.47778,-14.50028 -9.82184,-23.07186 -19.08171,-22.27112 -19.07992,-49.7458019 0.005,-72 7.92688,-9.243375 10.10348,-14.82997 9.67712,-24.837913 -0.272,-6.384743 -0.92125,-9.330433 -2.90745,-13.19125 l -2.55755,-4.970837 -11.15984,-0.282443 -11.15985,-0.282444 1.52281,4.282444 c 0.83754,2.355344 1.77041,7.882443 2.07304,12.282443 0.98915,14.381147 -3.6796,27.496907 -13.974931,39.259274 C 10.85641,-4.4730719 7.9617982,2.3309121 7.9617982,11.035539 c 0,8.70463 2.8946118,15.50861 10.0999908,23.74073 18.809651,21.48995 18.949451,50.20883 0.346861,71.259271 -7.265974,8.22208 -10.2792768,15.00452 -10.3887528,23.38334 -0.120225,9.20143 2.2549688,15.2717 9.3907698,23.99987 11.431183,13.98208 14.426163,21.584 14.426163,36.61678 0,15.03278 -2.99498,22.6347 -14.426163,36.61678 -3.411319,4.17257 -6.78439,9.55751 -7.7567188,12.38322 -3.107375,9.03042 -1.768452,20.50808 3.2954948,28.25 1.371319,2.09651 2.186408,2.25 11.948657,2.25 5.76232,0 10.47161,-0.3375 10.46508,-0.75 z m 43.276,-4 c -0.9265,-2.85748 -1.57956,-8.73424 -1.63909,-14.75 -0.14623,-14.7767 4.07332,-25.67455 14.22733,-36.74503 7.92126,-8.63619 11.2122,-18.82889 9.24386,-28.62998 -1.45676,-7.25376 -4.12792,-12.22368 -10.23753,-19.04775 -10.55067,-11.78451 -15.56088,-28.43514 -13.0372,-43.32703 1.60203,-9.45338 6.60544,-19.77113 13.21447,-27.250201 7.40185,-8.37626 10.3529,-15.17667 10.41487,-24 0.0659,-9.38605 -2.16054,-14.7466 -10.07005,-24.24517 -7.28267,-8.74581 -10.6875,-15.214 -12.86041,-24.43107 -3.88717,-16.4885999 0.2362,-31.8036329 12.60667,-46.82376 8.33824,-10.124221 10.26517,-14.613204 10.31044,-24.019229 0.0308,-6.388882 -0.41281,-8.418303 -2.95065,-13.5 l -2.98684,-5.980771 -10.75,-0.283832 c -5.9125,-0.156107 -10.75,-0.07995 -10.75,0.169233 0,0.249186 0.72976,3.301602 1.62169,6.783146 3.70328,14.455297 0.15519,32.300606 -8.61536,43.331453 C 56.88834,-6.0249209 55.33688,-3.7044979 53.7944,0.86115308 51.55088,7.5018331 52.18292,18.528959 55.15625,24.621129 c 1.23092,2.52207 4.63191,7.34987 7.55776,10.72845 9.84461,11.36791 13.66104,21.34533 13.66104,35.71456 0,13.31403 -4.02769,23.76195 -13.43537,34.851641 -8.75667,10.32229 -10.0591,13.51 -10.0591,24.61975 0,10.93484 1.35964,14.40359 9.03169,23.04192 6.36373,7.16521 9.09055,11.80712 11.96363,20.36587 5.92306,17.6445 1.65934,37.02522 -11.42362,51.92606 -8.30771,9.46206 -9.57204,12.5888 -9.56966,23.66615 0.002,8.43761 0.31092,10.08711 2.76408,14.75 l 2.76204,5.25 h 10.88529 10.88528 z m 39.73587,3.44578 c 0,-2.01978 -5.70203,-10.53086 -9.28262,-13.85559 -3.35869,-3.11869 -9.78813,-6.84019 -11.81744,-6.84019 -1.97928,0 -0.30355,10.65476 2.61341,16.61682 l 2.63375,5.38318 h 7.92645 c 5.85024,0 7.92645,-0.34162 7.92645,-1.30422 z m 44.54654,-3.23397 c -2.45362,-16.36194 -14.75461,-36.43498 -28.79612,-46.99018 -5.85777,-4.40336 -15.61303,-9.98671 -16.22955,-9.28886 -0.15415,0.17448 -1.41253,2.56723 -2.79641,5.31723 -1.38388,2.75 -4.38121,7.11472 -6.66073,9.69938 l -4.14459,4.69939 5.41985,2.65384 c 12.95956,6.34568 23.28086,18.15498 27.74041,31.73968 l 2.20199,6.70772 h 11.97285 11.97285 z m 44.29715,-1.71181 c -5.65126,-42.7973 -34.48031,-80.20941 -74.39385,-96.54259 -7.32665,-2.99817 -19.37718,-6.6134 -19.99266,-5.99792 -0.19983,0.19983 0.93305,2.93343 2.51752,6.07466 2.48809,4.93267 3.60797,8.801 5.59416,19.32364 0.26446,1.40103 1.84709,2.66125 4.72,3.75842 14.10892,5.38825 33.08862,21.40358 42.47784,35.84337 7.71449,11.86422 15.2333,32.07639 15.2333,40.95038 v 2.84004 h 12.33449 12.33449 z m 48.07691,-0.45772 c 8.63586,-26.30663 36.30652,-42.04201 62.90435,-35.77162 18.45457,4.35064 33.41512,17.98382 39.25445,35.77162 l 2.20199,6.70772 h 11.97285 11.97285 l -0.68055,-4.53819 c -1.65154,-11.01326 -8.5385,-25.403 -17.08705,-35.70195 -6.80518,-8.1986 -15.52988,-14.88063 -25.95949,-19.88171 -12.17346,-5.83726 -19.0107,-7.33414 -33.5,-7.33414 -14.4893,0 -21.32654,1.49688 -33.5,7.33414 -10.42961,5.00108 -19.15431,11.68311 -25.95949,19.88171 -8.54855,10.29895 -15.43551,24.68868 -17.08705,35.70195 l -0.68055,4.53819 h 11.97285 11.97285 z m 83.0794,5.66788 c 0,-2.34018 -4.10517,-8.83148 -8.16896,-12.91715 -6.7889,-6.82545 -13.57525,-9.54301 -23.83104,-9.54301 -10.29335,0 -17.44506,2.86502 -23.99223,9.61143 -3.95904,4.07952 -8.00777,10.57585 -8.00777,12.84873 0,0.69812 10.51601,1.03984 32,1.03984 21.48399,0 32,-0.34172 32,-1.03984 z m -113.68373,-42.7935 c 1.9803,-3.20834 6.6022,-9.07541 10.27088,-13.03793 3.66869,-3.96251 6.44934,-7.42558 6.17922,-7.69569 -0.27011,-0.27011 -4.22897,-1.19611 -8.79746,-2.05777 -7.97981,-1.50506 -24.03516,-1.64416 -25.45752,-0.22056 -0.35978,0.36009 1.07811,3.73509 3.19532,7.5 4.31116,7.66631 9.29329,18.50642 9.29329,20.22034 0,2.50502 1.90563,0.81728 5.31627,-4.70839 z m 44.7294,-36.76335 c 3.51476,-1.42817 9.74338,-3.45421 13.84137,-4.5023 4.098,-1.04809 7.65092,-2.10563 7.89538,-2.3501 0.7458,-0.7458 -13.51691,-9.55959 -21.12232,-13.05274 -21.89827,-10.05786 -47.4451,-13.71672 -70.09874,-10.03967 -9.74193,1.58127 -26.78516,6.46597 -26.3393,7.54901 0.15287,0.37132 4.44027,4.62251 9.52757,9.44711 l 9.24963,8.77198 6.75037,-1.3633 c 3.7127,-0.74981 12.60037,-1.35131 19.75037,-1.33665 14.4024,0.0295 23.32542,1.66537 35,6.41649 3.85,1.56681 7.48492,2.89557 8.07759,2.9528 0.59268,0.0572 3.95331,-1.06445 7.46808,-2.49263 z M 129.70386,6.1715131 c 4.16217,-1.739066 8.30326,-6.65005302 9.62718,-11.417029 1.34278,-4.8348691 1.34278,-45.6030211 0,-50.4378901 -1.32392,-4.766976 -5.46501,-9.677963 -9.62718,-11.417029 -2.9862,-1.247715 -12.32881,-1.951794 -12.32881,-0.929126 0,0.239196 0.44318,1.600547 0.98484,3.025225 0.54166,1.424679 1.45848,5.555215 2.03738,9.178969 2.31117,14.467334 -2.41298,29.458685 -13.50653,42.860906 -5.63608,6.8089961 -8.60596,12.12620208 -9.91412,17.7500001 l -0.63967,2.75 h 15.05117 c 10.44975,0 16.04921,-0.417008 18.31574,-1.364026 z m 116.67119,-3.859276 c -1.375,-0.710866 -3.32456,-2.97643202 -4.33236,-5.034591 -1.77647,-3.627985 -1.77647,-3.856469 0,-7.4921071 4.79148,-9.805964 18.33236,-6.977669 18.33236,3.8290951 0,7.16678398 -7.70369,11.952756 -14,8.697603 z"
       id="path3093" />
  </g>
</svg>
