<?xml version="1.0" encoding="UTF-8" standalone="no"?>
<!-- Created with Inkscape (http://www.inkscape.org/) -->

<svg
   version="1.1"
   id="svg1322"
   width="545.59863"
   height="425.6087"
   viewBox="0 0 545.59863 425.60871"
   sodipodi:docname="steak.svg"
   inkscape:version="1.1.1 (c3084ef, 2021-09-22)"
   xmlns:inkscape="http://www.inkscape.org/namespaces/inkscape"
   xmlns:sodipodi="http://sodipodi.sourceforge.net/DTD/sodipodi-0.dtd"
   xmlns="http://www.w3.org/2000/svg"
   xmlns:svg="http://www.w3.org/2000/svg">
  <defs
     id="defs1326" />
  <sodipodi:namedview
     id="namedview1324"
     pagecolor="#ffffff"
     bordercolor="#666666"
     borderopacity="1.0"
     inkscape:pageshadow="2"
     inkscape:pageopacity="0.0"
     inkscape:pagecheckerboard="0"
     showgrid="false"
     inkscape:zoom="1.7050781"
     inkscape:cx="144.27491"
     inkscape:cy="230.78121"
     inkscape:window-width="3440"
     inkscape:window-height="1301"
     inkscape:window-x="0"
     inkscape:window-y="25"
     inkscape:window-maximized="1"
     inkscape:current-layer="g1328" />
  <g
     inkscape:groupmode="layer"
     inkscape:label="Image"
     id="g1328"
     transform="translate(39.090501,-32.828164)">
    <path
       style="fill:#000000;stroke-width:1.06667"
       d="M 124.21631,458.1903 C 96.545015,455.40287 77.764526,450.01818 55.392789,438.45744 5.8001864,412.83012 -28.366994,365.01159 -37.51752,308.42519 c -2.097308,-12.96965 -2.097308,-112.89701 0,-125.86666 6.173279,-38.17525 23.172627,-71.77763 49.86452,-98.566513 21.793937,-21.87313 52.13668,-39.033037 82.002644,-46.375431 17.554566,-4.315699 24.636246,-4.929965 54.933326,-4.764928 122.18755,0.665591 233.52167,24.023629 293.33332,61.541692 31.99034,20.06659 52.5927,45.64177 60.53255,75.14339 2.76528,10.27478 2.79036,10.71926 3.23328,57.28845 0.31108,32.70681 0.053,50.3283 -0.85129,58.13333 -5.0096,43.2372 -30.78826,80.31328 -69.31454,99.69144 -18.55186,9.33132 -33.03737,12.79024 -58.13333,13.88136 -29.64225,1.28878 -49.96893,4.31961 -71.85309,10.71374 -15.54209,4.54108 -22.91742,7.26936 -56.1469,20.76979 -41.68367,16.93517 -60.09679,22.78258 -82.47238,26.19051 -10.55165,1.60708 -35.71772,2.75823 -43.39428,1.98494 z M 159.095,435.90054 c 23.95415,-3.16214 39.59983,-7.9814 82.98797,-25.56234 34.67533,-14.05051 41.9803,-16.7531 57.68987,-21.34323 24.11281,-7.04548 41.56896,-9.8053 71.18096,-11.25377 11.91895,-0.58302 25.22664,-1.79451 29.57265,-2.6922 36.4491,-7.52877 66.99934,-34.74822 79.27594,-70.63275 3.04361,-8.89652 5.66912,-24.53152 5.26981,-31.38202 l -0.32258,-5.53421 -4.4197,5.79591 c -7.45469,9.77594 -15.667,17.67544 -19.08395,18.35699 -4.76587,0.95064 -10.37266,-2.16586 -11.79097,-6.55394 -1.80209,-5.5754 -0.81852,-7.79278 7.70149,-17.36231 17.40917,-19.5537 26.47911,-41.25767 27.8034,-66.53237 2.12781,-40.61003 -22.00467,-74.07545 -71.10684,-98.60652 C 354.17805,72.784606 254.48948,54.532904 149.28297,54.158384 114.4304,54.034313 107.06371,54.972968 85.816312,62.245235 43.446972,76.746822 7.7196765,111.43075 -8.075725,153.39526 c -30.920299,82.14767 12.5602742,173.48026 95.855738,201.34863 17.685587,5.9171 28.158687,7.46946 50.302957,7.45601 33.14184,-0.0202 48.40252,-3.93722 105.651,-27.11838 49.70716,-20.12751 71.35613,-26.52281 102.88232,-30.39236 11.44556,-1.40483 43.17028,-2.35295 46.64343,-1.39398 3.9826,1.09965 6.6899,5.34579 6.6899,10.49242 0,3.76372 -4.92629,9.5464 -8.18461,9.60742 -13.09568,0.24526 -42.66812,2.37054 -51.01538,3.66631 -26.28253,4.07992 -44.25943,9.68625 -89.09768,27.78624 -48.6248,19.62851 -64.72727,24.50345 -91.70231,27.76241 -43.82812,5.29507 -85.22409,-4.37725 -120.694143,-28.20059 -21.090664,-14.16548 -35.0908219,-28.1824 -49.125364,-49.1842 -4.116447,-6.16 -7.584456,-11.3134 -7.706688,-11.452 -0.54089,-0.61332 1.643151,14.84146 3.091143,21.87363 9.950012,48.32228 46.435245,91.51165 93.263548,110.40067 25.002134,10.08504 52.761884,13.49053 80.316864,9.85305 z M 117.28298,339.91342 C 51.998431,330.23098 2.9903018,273.41539 3.1734794,207.6252 c 0.049579,-17.80904 5.7072562,-41.85233 13.5539596,-57.6 12.971339,-26.03238 35.282045,-48.46315 60.986377,-61.31457 8.668544,-4.334015 26.011404,-10.005632 36.369164,-11.893763 10.3461,-1.886007 64.73234,-1.76412 69.36663,0.15546 5.89193,2.440522 7.94043,8.782197 4.7991,14.856863 -2.54657,4.924533 -5.75009,5.386314 -32.3513,4.663381 -25.90736,-0.704085 -36.18329,0.142101 -49.81443,4.102019 -23.587265,6.85221 -44.230397,20.97047 -58.581814,40.06529 -40.9843321,54.53038 -25.256422,130.7247 34.048479,164.94885 26.137515,15.08365 56.652685,18.32669 91.199995,9.69238 13.9974,-3.49832 20.41579,-5.80634 57.06666,-20.52089 36.88066,-14.80679 49.22555,-19.08475 71.58061,-24.80527 21.18586,-5.42133 41.2712,-8.26443 67.22379,-9.51559 12.37274,-0.59649 23.63429,-1.6925 27.05419,-2.633 10.59163,-2.9128 19.23776,-8.08252 27.75201,-16.59357 9.23275,-9.22927 14.02486,-17.48905 17.08225,-29.44334 7.20919,-28.18766 -4.79187,-48.83598 -39.27137,-67.56803 -29.79263,-16.18577 -67.79376,-27.72763 -121.28815,-36.83817 -20.71092,-3.52724 -21.42229,-3.73271 -24.38246,-7.04208 -2.54556,-2.845847 -2.94805,-4.045282 -2.43705,-7.262401 0.71033,-4.472064 5.85212,-9.720234 9.5232,-9.720234 4.42808,0 40.57931,6.412757 57.81714,10.25601 41.21259,9.188525 81.31084,24.450335 103.47916,39.385235 20.17374,13.59114 33.06607,29.51559 37.96351,46.89208 2.40066,8.51775 1.88615,28.07339 -1.00838,38.32724 -6.80388,24.10257 -24.02497,44.61992 -46.13544,54.96611 -11.76361,5.50457 -21.90003,7.47105 -44.15302,8.56575 -23.54364,1.1582 -33.3747,2.30661 -51.73333,6.04323 -24.74343,5.03615 -40.74381,10.34162 -85.28503,28.27918 -33.0144,13.2955 -42.27508,16.55781 -57.11496,20.12027 -21.79458,5.23198 -40.90673,6.43289 -59.19999,3.71978 z m 308.7935,-31.75656 c -1.858,-1.5982 -2.98866,-3.86712 -3.37964,-6.78204 -1.53953,-11.47807 14.92299,-16.06259 19.37943,-5.39683 1.91622,4.58617 0.91703,8.74032 -2.86841,11.92556 -4.04456,3.40328 -9.35033,3.50563 -13.13138,0.25331 z M 140.74964,214.91702 c -22.38962,-2.32269 -42.237062,-18.78725 -46.869446,-38.88079 -6.83281,-29.63816 19.438656,-58.49419 53.269446,-58.51008 27.30175,-0.0128 51.67887,21.0509 53.11721,45.89737 1.03319,17.84778 -7.38929,33.16225 -24.04862,43.7273 -8.52871,5.40873 -24.49465,8.90465 -35.46859,7.7662 z m 20.84867,-24.26493 c 11.32399,-5.13935 17.57186,-13.81848 17.5279,-24.3486 -0.0304,-7.27702 -2.75022,-13.0699 -8.70216,-18.53428 -12.9402,-11.88022 -34.39838,-11.865 -47.56887,0.0337 -20.3312,18.36802 -2.71635,48.30868 26.96113,45.82693 3.52,-0.29436 8.82189,-1.63437 11.782,-2.97781 z m 46.76532,-92.338964 c -3.17939,-1.284619 -6.81399,-6.237131 -6.81399,-9.284746 0,-6.869184 5.6964,-11.734485 12.475,-10.654886 10.56933,1.683334 12.21777,16.356379 2.22877,19.838565 -3.81169,1.328757 -4.81934,1.341664 -7.88978,0.10112 z"
       id="path2454" />
  </g>
</svg>
