<?xml version="1.0" encoding="UTF-8" standalone="no"?>
<!-- Created with Inkscape (http://www.inkscape.org/) -->

<svg
   version="1.1"
   id="svg1322"
   width="511.30814"
   height="511.21408"
   viewBox="0 0 511.30814 511.21409"
   sodipodi:docname="taco.svg"
   inkscape:version="1.1.1 (c3084ef, 2021-09-22)"
   xmlns:inkscape="http://www.inkscape.org/namespaces/inkscape"
   xmlns:sodipodi="http://sodipodi.sourceforge.net/DTD/sodipodi-0.dtd"
   xmlns="http://www.w3.org/2000/svg"
   xmlns:svg="http://www.w3.org/2000/svg">
  <defs
     id="defs1326" />
  <sodipodi:namedview
     id="namedview1324"
     pagecolor="#ffffff"
     bordercolor="#666666"
     borderopacity="1.0"
     inkscape:pageshadow="2"
     inkscape:pageopacity="0.0"
     inkscape:pagecheckerboard="0"
     showgrid="false"
     inkscape:zoom="1.7050781"
     inkscape:cx="261.57159"
     inkscape:cy="295.29439"
     inkscape:window-width="3440"
     inkscape:window-height="1301"
     inkscape:window-x="0"
     inkscape:window-y="25"
     inkscape:window-maximized="1"
     inkscape:current-layer="g1328" />
  <g
     inkscape:groupmode="layer"
     inkscape:label="Image"
     id="g1328"
     transform="translate(157.12259,172.64683)">
    <path
       style="fill:#000000"
       d="m 179.72045,337.59045 c -2.475,-0.47979 -7.875,-2.51308 -12,-4.51843 -7.17125,-3.48626 -10.22383,-6.36909 -69.640891,-65.76809 -42.04152,-42.02875 -62.2776,-62.93065 -62.56355,-64.62208 -0.64264,-3.80125 0.98087,-8.72993 3.44393,-10.45512 1.21304,-0.84965 4.2241,-1.54481 6.69125,-1.54481 h 4.48572 l 62.541771,62.41495 c 60.44971,60.32713 62.72346,62.46796 67.97327,64 9.85213,2.87511 19.42361,1.24346 26.36053,-4.49368 7.03542,-5.81859 20.19518,-27.48394 28.61966,-47.11751 13.74084,-32.02351 20.08831,-62.7566 20.08831,-97.26323 0,-38.48704 -8.13954,-73.3723 -25.08361,-107.50582 -24.23676,-48.8245 -61.1266,-85.71434 -109.9511,-109.9511 -34.133521,-16.94407 -69.018781,-25.08361 -107.505821,-25.08361 -34.15347,0 -65.02559,6.31036 -96.36982,19.69829 -19.422149,8.2957 -42.277489,22.07611 -47.909379,28.88649 -5.83825,7.05992 -7.48833,16.5698896 -4.59521,26.48371958 1.53147,5.24791002 3.69123,7.54401002 63.897519,67.93150042 49.78825,49.9381 62.4502101,63.15637 62.9978401,65.76567 0.85489,4.07337 -1.8414901,9.1354 -5.9140401,11.10272 -6.28514,3.03615 -5.94392,3.33406 -71.68152,-62.58405 -58.869639,-59.03131 -61.779629,-62.12107 -65.306629,-69.34122 -7.12879,-14.59340042 -7.22778,-29.22481 -0.29227,-43.19705 3.23603,-6.51928 3.3952,-7.26491 2.17456,-10.18632 -5.06873,-12.13118 -5.79568,-37.30513 -1.47445,-51.05975 8.59741,-27.36581 30.36789,-48.89055 57.185299,-56.53978 14.2938,-4.07707 34.73043,-3.63869 48.31908,1.03649 l 5.28446,1.81813 3.86255,-4.00149 c 9.09879,-9.4261 24.23934,-17.98042 38.8625401,-21.9571 6.48337,-1.76311 10.7488899,-2.17731 22.4999999,-2.18485 12.88322,-0.008 15.48084,0.28931 23.29659,2.66877 9.89861,3.01358 18.58468,7.11538 26.70341,12.61008 5.03537,3.4079 6.26031,3.77505 14.5,4.34605 11.564551,0.8014 19.909251,2.95896 30.500001,7.88594 l 8.5,3.95434 10.46385,-1.70286 c 44.41275,-7.22757 87.61998,21.16929 98.57636,64.78684 1.48223,5.9008 2.29525,7.15524 8.79648,13.57246 6.41108,6.32824 7.84563,7.24503 13.66095,8.73041 43.62786,11.14369 72.11605,54.79646958 64.5174,98.86077 l -1.70448,9.8842 3.73173,7.95217 c 4.86351,10.36398 7.41646,20.15076 8.15945,31.27943 0.55792,8.35671 0.88148,9.4152 4.52683,14.80891 5.46094,8.08009 10.34908,18.75268 12.91176,28.19109 3.09971,11.41631 3.09971,32.58369 0,44 -3.96786,14.61372 -12.52454,29.76082 -21.95368,38.86254 l -4.00149,3.86255 1.81813,5.28446 c 3.01353,8.759 4.32941,19.6909 3.70386,30.77066 -1.24961,22.13309 -9.80369,40.13629 -26.56035,55.89975 -8.81069,8.28846 -20.36945,14.95375 -32.6468,18.82558 -13.73352,4.33105 -38.91581,3.608 -51.05975,-1.46606 -2.91459,-1.21779 -3.67169,-1.06141 -10.0462,2.07508 -10.30121,5.06858 -20.32544,6.43966 -31.39405,4.29397 z m 84.5399,-23.41718 c 22.27155,-5.63747 40.75163,-24.50798 46.01907,-46.99135 1.18989,-5.07888 1.51203,-9.88168 1.17378,-17.5 -0.45738,-10.30139 -1.07198,-12.71248 -6.77375,-26.57364 -2.00439,-4.87274 -0.48783,-7.89246 8.38475,-16.69539 9.59347,-9.51815 14.42323,-17.01577 18.19068,-28.23879 4.62534,-13.77867 4.32114,-32.06348 -0.7397,-44.46138 l -1.41614,-3.46921 -3.85056,7.68704 c -9.14069,18.24793 -28.24539,35.72675 -45.7092,41.81916 l -3.68118,1.28421 -0.65791,7.574 c -3.5094,40.40038 -16.14916,80.20435 -36.11513,113.73043 -3.2242,5.41396 -5.86274,10.28915 -5.8634,10.83375 -0.003,2.6368 21.7987,3.34004 31.03869,1.00117 z m 30.50954,-168.46551 c 9.79289,-9.76586 14.8411,-18.36796 17.97856,-30.63532 2.36779,-9.25798 2.55481,-21.97541 0.46802,-31.82616 -3.92022,-18.50555 -18.63019,-37.27462 -35.53349,-45.33868 -13.06579,-6.23331 -12.19126,-6.29703 -16.38027,1.19361 -1.99537,3.56805 -5.19266,8.53725 -7.1051,11.04269 -1.91244,2.50543 -3.47716,4.78056 -3.47716,5.05585 0,0.27529 1.98455,5.14682 4.41012,10.82562 5.85659,13.71163 11.96327,33.03062 14.99592,47.44078 2.48002,11.78427 5.59049,35.43683 5.59275,42.52818 l 10e-4,3.81241 5.25,-2.78657 c 2.8875,-1.53261 9.09725,-6.6232 13.79944,-11.31241 z M 245.25212,26.28361 c 10.0162,-20.3345704 8.24304,-46.3669 -4.47723,-65.732 -8.63244,-13.14185 -20.355,-22.20817 -35.56404,-27.50549 -7.17209,-2.49804 -9.32175,-2.78099 -20.9904,-2.76286 -11.26087,0.0175 -14.03121,0.36398 -20.70833,2.58999 -7.65752,2.55285 -16.80918,7.24576 -16.77251,8.60082 0.0105,0.38932 2.97936,2.43918 6.59739,4.55525 28.16966,16.47554 65.25549,53.70530958 82.62966,82.95037 4.55634,7.66946 4.11686,7.79707 9.28546,-2.69608 z m 59.49837,-7.84603 c -2.25835,-14.5554004 -10.25412,-29.23442 -21.49364,-39.45903 -7.57624,-6.89213 -17.31336,-12.74723 -16.12602,-9.69686 3.16512,8.13145 4.08962,14.70109 4.08962,29.0614496 V 13.50437 l 7,2.71394 c 8.06604,3.12726 18.43505,8.99303 23.5,13.29401 l 3.5,2.97208 0.31499,-3.47878 c 0.17324,-1.91333 -0.17999,-6.66895 -0.78495,-10.56804 z m -425.68647,-76.11907 c 33.598439,-20.01318 73.228379,-32.5981 113.7304291,-36.11633 l 7.57399996,-0.65791 1.28421004,-3.68118 c 6.09241,-17.46381 23.5712299,-36.56851 41.8191599,-45.7092 l 7.68704,-3.85056 -3.46921,-1.41614 c -12.3979,-5.06084 -30.68271,-5.36504 -44.4613799,-0.7397 -11.22302,3.76745 -18.7206401,8.59721 -28.2387901,18.19068 -8.80293,8.87258 -11.82265,10.38914 -16.69539,8.38475 -13.86116,-5.70177 -16.27225,-6.31637 -26.57364,-6.77375 -19.61046,-0.87069 -33.968819,4.62888 -47.519039,18.20084 -13.70578,13.72779 -19.04192,27.45162 -18.29196,47.04447 0.39791,10.39552 1.11667,13.99664 2.65264,13.29023 0.3621,-0.16654 5.08797,-2.94132 10.50193,-6.1662 z m 253.97724,-16.03616 c 3.39855,-2.41977 8.34011,-5.44581 10.98124,-6.72455 5.73484,-2.77661 5.72422,-3.11458 -0.49896,-15.87588 -8.29931,-17.01862 -26.92078,-31.58827 -45.367451,-35.49602 -15.73827,-3.33401 -32.71379,-1.09345 -46.73612,6.16858 -8.68154,4.49609 -22.82148,18.1338 -27.03777,26.07744 l -2.78657,5.25 3.81241,10e-4 c 7.11259,0.002 30.75921,3.11595 42.61858,5.61184 14.04663,2.95621 35.697011,9.84804 48.193831,15.34125 4.95,2.17587 9.36936,3.97628 9.82081,4.00091 0.45144,0.0246 3.60144,-1.93502 7,-4.35478 z m 77.98688,-16.68263 c -10.10194,-18.28554 -32.2807,-32.09583 -54.00692,-33.62907 l -8.70125,-0.61406 3.59881,4.41267 c 4.91879,6.03114 10.01958,15.03272 13.26691,23.41266 l 2.71259,7 15.16108,0.0954 c 12.0206,0.0756 16.61108,0.51365 22.16109,2.1145 3.85,1.1105 7.36346,2.08006 7.80769,2.15458 0.44422,0.0745 -0.45578,-2.15149 -2,-4.9467 z m -71.00785,314.27915 c -31.03618,-11.07643 -33.36908,-53.36858 -3.7376,-67.75738 5.2565,-2.55252 7.02773,-2.88538 15.43776,-2.90114 8.21349,-0.0154 10.27143,0.34241 15.1965,2.64207 14.51019,6.77524 23.72992,23.94685 20.94529,39.01028 -2.27018,12.28056 -9.22686,21.75658 -19.7899,26.95675 -8.40569,4.13811 -19.85565,4.97462 -28.05205,2.04942 z m 19.38827,-19.85324 c 8.04556,-3.81787 11.37051,-15.6587 6.57558,-23.41704 -8.6693,-14.02723 -30.69226,-7.94019 -30.69226,8.48318 0,12.4881 12.69914,20.35184 24.11668,14.93386 z M 11.047339,177.91228 c -1.1952099,-0.19212 -3.3327099,-1.50891 -4.7499999,-2.9262 -5.85420004,-5.8542 -1.34106,-16.30416 7.0414699,-16.30416 10.80347,0 13.27316,16.11553 2.88164,18.80362 -1.65,0.42682 -3.9779,0.61886 -5.17311,0.42674 z m 54.59619,-44.15344 c -8.38577,-8.38577 3.24414,-21.56883 12.76008,-14.46415 7.65475,5.71509 3.81849,17.38723 -5.71463,17.38723 -3.22298,0 -4.76012,-0.63774 -7.04545,-2.92308 z m 76.473221,-23.43681 c -5.46079,-1.78675 -12.41826,-6.66905 -15.77484,-11.06976 -10.41771,-13.65831 -8.75649,-33.98811 3.69661,-45.23874 6.5217,-5.89196 13.89005,-8.70003 22.82884,-8.70003 6.60975,0 8.56126,0.4425 14.20511,3.22096 12.7461,6.27488 19.10158,17.16227 18.47413,31.64746 -0.5605,12.93948 -7.05361,23.04306 -18.31089,28.49261 -6.00875,2.90879 -18.71677,3.74228 -25.11896,1.6475 z m 17.56387,-20.27565 c 5.85601,-3.45923 8.00863,-11.65655 4.72731,-18.00192 -4.5684,-8.83431 -16.94305,-9.42985 -22.87384,-1.10082 -4.09855,5.75588 -2.07679,15.24646 4.05916,19.05457 3.39739,2.10849 10.55808,2.13297 14.08737,0.0482 z M -22.883251,61.26372 c -6.2939,-1.96991 -13.11661,-7.18648 -16.88135,-12.9073 -10.7766,-16.37591 -4.99354,-37.70209 12.68999,-46.7968604 6.03962,-3.10622 17.7036101,-3.73231 24.9216901,-1.33772002 C 5.3413791,2.7080596 14.694309,12.06099 17.180529,19.55529 c 2.53783,7.64986 1.77745,18.84453 -1.74902,25.74998 -6.8875999,13.48712 -23.7590099,20.51422 -38.31476,15.95845 z M -7.2905909,41.18763 c 4.28887,-2.21786 6.01104,-5.32016 6.01104,-10.82822 0,-4.21362 -0.46277,-5.34026 -3.4,-8.27749 -2.88864,-2.88864 -4.09713,-3.4 -8.0351801,-3.4 -5.31253,0 -9.01161,2.02953 -11.11593,6.09884 -5.53821,10.70971 5.80276,21.95935 16.5400701,16.40687 z M 71.720449,11.97569 c -5.54722,-2.0278204 -8.06794,-8.2409904 -5.52097,-13.6083404 2.98212,-6.28435 10.70771,-7.65254 15.59789,-2.76235 3.3148,3.3148 3.81507,7.45132 1.45346,12.01816 -1.92295,3.7185804 -7.50274,5.8248604 -11.53038,4.3525304 z"
       id="path3732" />
  </g>
</svg>
