<?xml version="1.0" encoding="UTF-8" standalone="no"?>
<!-- Created with Inkscape (http://www.inkscape.org/) -->

<svg
   width="126.75698mm"
   height="135.31766mm"
   viewBox="0 0 126.75698 135.31766"
   version="1.1"
   id="svg5"
   inkscape:version="1.1.1 (c3084ef, 2021-09-22)"
   sodipodi:docname="tea.svg"
   xmlns:inkscape="http://www.inkscape.org/namespaces/inkscape"
   xmlns:sodipodi="http://sodipodi.sourceforge.net/DTD/sodipodi-0.dtd"
   xmlns="http://www.w3.org/2000/svg"
   xmlns:svg="http://www.w3.org/2000/svg">
  <sodipodi:namedview
     id="namedview7"
     pagecolor="#ffffff"
     bordercolor="#666666"
     borderopacity="1.0"
     inkscape:pageshadow="2"
     inkscape:pageopacity="0.0"
     inkscape:pagecheckerboard="0"
     inkscape:document-units="mm"
     showgrid="false"
     inkscape:zoom="0.27496365"
     inkscape:cx="-163.658"
     inkscape:cy="-58.18951"
     inkscape:window-width="1720"
     inkscape:window-height="1302"
     inkscape:window-x="0"
     inkscape:window-y="25"
     inkscape:window-maximized="0"
     inkscape:current-layer="layer1" />
  <defs
     id="defs2" />
  <g
     inkscape:label="Layer 1"
     inkscape:groupmode="layer"
     id="layer1"
     transform="translate(-45.834207,-77.854482)">
    <path
       style="fill:#000000;stroke-width:0.264583"
       d="m 99.675816,212.84932 c -3.16995,-1.01283 -8.68378,-10.35956 -13.14482,-22.28234 l -1.38595,-3.70417 -1.15137,-0.18552 c -0.63326,-0.10204 -2.40153,-0.38259 -3.9295,-0.62345 -12.62166,-1.9896 -24.07499,-10.47395 -29.95395,-22.18914 -2.833983,-5.64738 -4.258886,-11.56249 -4.275278,-17.74772 -0.009,-3.38013 0.05447,-3.88911 0.725021,-5.81829 1.855527,-5.33835 5.851717,-9.28743 11.146917,-11.0155 1.75319,-0.57214 2.33591,-0.60959 10.91406,-0.70127 l 9.06198,-0.0969 v -1.51604 c 0,-2.56712 0.51821,-8.56814 0.84833,-9.82391 0.4061,-1.5448 2.52831,-3.71853 4.07716,-4.17616 0.61238,-0.18093 2.60816,-0.32176 4.55988,-0.32176 3.45547,0 3.47467,0.003 4.32892,0.76667 0.71008,0.63446 0.85806,0.95853 0.85806,1.87916 0,0.92063 -0.14798,1.24471 -0.85806,1.87916 -0.8486,0.75822 -0.89412,0.76668 -4.12878,0.76668 -2.34959,0 -3.35058,0.0962 -3.55427,0.34165 -0.99494,1.19883 -1.31419,22.85096 -0.4709,31.93751 0.24985,2.69214 0.59653,6.02589 0.7704,7.40833 l 0.31613,2.51355 40.641904,0.067 40.64191,0.067 0.16259,-1.52219 c 0.78923,-7.38908 0.98263,-9.69939 1.25703,-15.01594 0.47079,-9.12198 -0.0434,-24.47038 -0.85242,-25.44522 -0.23918,-0.28819 -5.05904,-0.35165 -26.70534,-0.35165 -19.91502,0 -26.58416,-0.0778 -27.10723,-0.3161 -1.24518,-0.56734 -1.75562,-2.15846 -1.13172,-3.52775 0.68784,-1.50966 -0.5258,-1.44782 28.4135,-1.44782 20.30157,0 26.8983,0.0774 27.72824,0.32517 1.50096,0.44818 3.73445,2.65266 4.09362,4.04045 0.82129,3.17342 1.28909,17.62035 0.85245,26.32604 -1.3143,26.20414 -6.72968,46.89445 -16.64582,63.59801 -1.11186,1.87291 -2.47374,3.85747 -3.0264,4.41013 -1.9302,1.9302 -0.62421,1.84501 -27.82205,1.81485 -16.63039,-0.0184 -24.64423,-0.11761 -25.254244,-0.31252 z m 50.045374,-6.15716 c 1.5021,-2.11844 4.64356,-7.82033 6.14559,-11.15451 0.80065,-1.77728 1.45572,-3.29533 1.45572,-3.37344 0,-0.0781 -14.52562,-0.14202 -32.27916,-0.14202 -17.75354,0 -32.279164,0.0463 -32.279164,0.10298 0,0.0566 0.59104,1.42945 1.31342,3.0507 1.86616,4.18826 4.88004,9.65927 6.534244,11.86142 l 0.64593,0.85989 h 23.80449 23.80448 z m 10.62573,-22.85158 c 1.58796,-4.91204 4.37754,-16.3343 4.38283,-17.946 8.6e-4,-0.26312 -8.11222,-0.33073 -39.68641,-0.33073 -31.574194,0 -39.687274,0.0676 -39.686414,0.33073 0.005,1.6117 2.79487,13.03396 4.38283,17.946 l 0.93425,2.88994 h 34.369334 34.36933 z m -77.620474,-5.34359 -0.71427,-2.67728 -2.36307,-0.60236 c -5.70332,-1.4538 -10.04894,-3.93773 -14.30174,-8.17479 -3.81851,-3.80436 -6.70236,-8.74871 -8.00617,-13.72649 -0.6923,-2.64313 -1.19276,-6.81743 -1.00621,-8.39262 0.26555,-2.24213 1.48874,-4.03544 3.48856,-5.11456 1.00943,-0.54469 1.44038,-0.57478 9.32657,-0.65115 l 8.26822,-0.0801 v -2.6319 -2.63191 h -8.0142 c -8.69993,0 -9.90637,0.14602 -12.3942,1.50006 -1.60949,0.876 -3.67957,2.95086 -4.56243,4.57295 -1.19954,2.20395 -1.57811,4.26851 -1.38165,7.5349 0.98865,16.43741 12.59174,29.82547 28.87229,33.31387 1.0152,0.21752 2.21859,0.40521 2.67419,0.41707 l 0.82838,0.0216 -0.71427,-2.67728 z m -2.29634,-10.35345 c -1.04041,-5.44789 -1.9109,-12.62952 -2.62975,-21.69583 l -0.16258,-2.05052 h -7.75024 c -6.61913,0 -7.79905,0.0588 -8.08474,0.40305 -0.24155,0.29106 -0.2867,0.97114 -0.16248,2.4474 0.85341,10.1421 7.59323,18.86489 17.23323,22.30357 2.00945,0.71679 1.96923,0.75316 1.55656,-1.40767 z m 20.036104,-50.57391 c -2.373014,-1.31526 -1.321904,-4.92244 1.43436,-4.92244 0.35466,0 1.03096,0.345 1.5029,0.76667 2.26925,2.02759 -0.27705,5.63021 -2.93726,4.15577 z m 0.31703,-13.64391 c -0.74762,-0.31703 -1.300444,-1.21033 -1.518384,-2.45354 -0.0953,-0.5437 -0.40372,-1.496196 -0.68535,-2.116662 -0.72395,-1.594975 -0.70503,-4.679575 0.0386,-6.287494 0.30284,-0.654844 0.55062,-1.607342 0.55062,-2.116672 0,-0.50932 -0.24778,-1.46182 -0.55062,-2.11666 -0.75065,-1.62317 -0.76276,-4.69181 -0.0249,-6.31794 0.28913,-0.63721 0.60156,-1.63305 0.69429,-2.21298 0.0927,-0.57993 0.43857,-1.36826 0.768524,-1.75185 0.48896,-0.56845 0.82859,-0.69744 1.83636,-0.69744 1.02669,0 1.34476,0.12593 1.87499,0.74236 0.82689,0.96132 0.87434,3.2103 0.10357,4.90893 -0.28784,0.63435 -0.52335,1.60362 -0.52335,2.15392 0,0.5503 0.23551,1.51956 0.52335,2.15392 0.37238,0.82064 0.52336,1.72583 0.52336,3.13774 0,1.411921 -0.15098,2.317109 -0.52336,3.137753 -0.28784,0.634355 -0.52335,1.603618 -0.52335,2.153918 0,0.550301 0.23551,1.519564 0.52335,2.153919 0.75085,1.654718 0.72229,3.950998 -0.0603,4.851718 -0.65679,0.7559 -2.08703,1.07578 -3.02729,0.67706 z m 15.875,0 c -0.74762,-0.31703 -1.30045,-1.21033 -1.51839,-2.45354 -0.0953,-0.5437 -0.40371,-1.496196 -0.68534,-2.116662 -0.72395,-1.594975 -0.70503,-4.679575 0.0386,-6.287494 0.30284,-0.654844 0.55062,-1.607342 0.55062,-2.116672 0,-0.50932 -0.24778,-1.46182 -0.55062,-2.11666 -0.75066,-1.62317 -0.76277,-4.69181 -0.025,-6.31794 0.28912,-0.63721 0.60155,-1.63305 0.69429,-2.21298 0.0927,-0.57993 0.43856,-1.36826 0.76852,-1.75185 0.48896,-0.56845 0.82859,-0.69744 1.83636,-0.69744 1.02669,0 1.34476,0.12593 1.87499,0.74236 0.82689,0.96132 0.87434,3.2103 0.10357,4.90893 -0.28784,0.63435 -0.52335,1.60362 -0.52335,2.15392 0,0.5503 0.23551,1.51956 0.52335,2.15392 0.37238,0.82064 0.52336,1.72583 0.52336,3.13774 0,1.411921 -0.15098,2.317109 -0.52336,3.137753 -0.28784,0.634355 -0.52335,1.603618 -0.52335,2.153918 0,0.550301 0.23551,1.519564 0.52335,2.153919 0.75085,1.654718 0.72229,3.950998 -0.0603,4.851718 -0.6568,0.7559 -2.08703,1.07578 -3.02729,0.67706 z m 15.875,0 c -0.74762,-0.31703 -1.30045,-1.21033 -1.51839,-2.45354 -0.0953,-0.5437 -0.40371,-1.496196 -0.68534,-2.116662 -0.72395,-1.594975 -0.70503,-4.679575 0.0386,-6.287494 0.30284,-0.654844 0.55062,-1.607342 0.55062,-2.116672 0,-0.50932 -0.24778,-1.46182 -0.55062,-2.11666 -0.75066,-1.62317 -0.76277,-4.69181 -0.0249,-6.31794 0.28912,-0.63721 0.60155,-1.63305 0.69429,-2.21298 0.0927,-0.57993 0.43856,-1.36826 0.76851,-1.75185 0.48897,-0.56845 0.8286,-0.69744 1.83637,-0.69744 1.02669,0 1.34476,0.12593 1.87499,0.74236 0.82689,0.96132 0.87434,3.2103 0.10357,4.90893 -0.28784,0.63435 -0.52336,1.60362 -0.52336,2.15392 0,0.5503 0.23552,1.51956 0.52336,2.15392 0.37238,0.82064 0.52336,1.72583 0.52336,3.13774 0,1.411921 -0.15098,2.317109 -0.52336,3.137753 -0.28784,0.634355 -0.52336,1.603618 -0.52336,2.153918 0,0.550301 0.23552,1.519564 0.52336,2.153919 0.75085,1.654718 0.72229,3.950998 -0.0603,4.851718 -0.6568,0.7559 -2.08703,1.07578 -3.02729,0.67706 z m 15.875,0 c -0.74762,-0.31703 -1.30045,-1.21033 -1.51839,-2.45354 -0.0953,-0.5437 -0.40371,-1.496196 -0.68534,-2.116662 -0.72395,-1.594975 -0.70503,-4.679575 0.0386,-6.287494 0.30284,-0.654844 0.55062,-1.607342 0.55062,-2.116672 0,-0.50932 -0.24778,-1.46182 -0.55062,-2.11666 -0.75066,-1.62317 -0.76277,-4.69181 -0.0249,-6.31794 0.28912,-0.63721 0.60155,-1.63305 0.69428,-2.21298 0.0927,-0.57993 0.43857,-1.36826 0.76852,-1.75185 0.48897,-0.56845 0.8286,-0.69744 1.83637,-0.69744 1.02669,0 1.34476,0.12593 1.87499,0.74236 0.82689,0.96132 0.87434,3.2103 0.10357,4.90893 -0.28785,0.63435 -0.52336,1.60362 -0.52336,2.15392 0,0.5503 0.23551,1.51956 0.52336,2.15392 0.37237,0.82064 0.52336,1.72583 0.52336,3.13774 0,1.411921 -0.15099,2.317109 -0.52336,3.137753 -0.28785,0.634355 -0.52336,1.603618 -0.52336,2.153918 0,0.550301 0.23551,1.519564 0.52336,2.153919 0.75085,1.654718 0.72229,3.950998 -0.0603,4.851718 -0.65679,0.7559 -2.08702,1.07578 -3.02728,0.67706 z"
       id="path1049" />
  </g>
</svg>
