<?xml version="1.0" encoding="UTF-8" standalone="no"?>
<svg
   id="Capa_1"
   enable-background="new 0 0 512.001 512.001"
   height="512.00006"
   viewBox="0 0 429.73326 512.00106"
   width="429.73242"
   version="1.1"
   sodipodi:docname="teacup.svg"
   inkscape:version="1.1.1 (c3084ef, 2021-09-22)"
   xmlns:inkscape="http://www.inkscape.org/namespaces/inkscape"
   xmlns:sodipodi="http://sodipodi.sourceforge.net/DTD/sodipodi-0.dtd"
   xmlns="http://www.w3.org/2000/svg"
   xmlns:svg="http://www.w3.org/2000/svg">
  <defs
     id="defs22" />
  <sodipodi:namedview
     id="namedview20"
     pagecolor="#ffffff"
     bordercolor="#666666"
     borderopacity="1.0"
     inkscape:pageshadow="2"
     inkscape:pageopacity="0.0"
     inkscape:pagecheckerboard="0"
     showgrid="false"
     inkscape:zoom="1.7050781"
     inkscape:cx="214.94616"
     inkscape:cy="263.0378"
     inkscape:window-width="1312"
     inkscape:window-height="1081"
     inkscape:window-x="0"
     inkscape:window-y="25"
     inkscape:window-maximized="0"
     inkscape:current-layer="Capa_1" />
  <g
     id="g17"
     transform="translate(-41.132751,5.1394704e-5)">
    <path
       d="m 41.493,443.815 c -1.195,4.338 0.652,8.94 4.517,11.245 l 59.026,35.224 c 23.811,14.207 51.051,21.717 78.777,21.717 h 116.562 c 27.727,0 54.967,-7.51 78.777,-21.718 l 59.027,-35.223 c 3.864,-2.305 5.712,-6.907 4.517,-11.244 -1.196,-4.338 -5.142,-7.343 -9.641,-7.343 h -77.799 c 8,-9.364 13.022,-21.338 13.581,-34.455 h 31.995 c 38.617,0 70.034,-31.417 70.034,-70.034 v -53.855 c 0,-38.623 -31.422,-70.046 -70.045,-70.046 h -31.922 v -38.43 c 0,-5.522 -4.478,-10 -10,-10 h -77.406 c -0.618,-4.929 -4.816,-8.745 -9.913,-8.745 -5.097,0 -9.294,3.816 -9.913,8.745 H 133.344 c -5.522,0 -10,4.478 -10,10 v 84.45 c 0,5.522 4.478,10 10,10 5.522,0 10,-4.478 10,-10 v -74.45 h 118.239 v 71.726 h -27.098 c -3.567,0 -6.865,1.9 -8.653,4.988 -4.638,8.007 -7.089,17.146 -7.089,26.432 0,29.137 23.704,52.841 52.84,52.841 29.137,0 52.841,-23.704 52.841,-52.841 0,-9.284 -2.451,-18.424 -7.09,-26.432 -1.788,-3.088 -5.086,-4.988 -8.653,-4.988 h -27.098 v -71.726 h 67.318 v 219.913 c 0,20.351 -16.556,36.907 -36.906,36.907 H 180.25 c -20.351,0 -36.906,-16.557 -36.906,-36.907 v -54.582 c 0,-5.522 -4.478,-10 -10,-10 -5.522,0 -10,4.478 -10,10 v 54.582 c 0,14.075 5.147,26.962 13.643,36.907 H 51.134 c -4.499,0 -8.445,3.005 -9.641,7.342 z M 304.424,282.799 c 0,18.108 -14.732,32.841 -32.841,32.841 -18.109,0 -32.84,-14.732 -32.84,-32.841 0,-3.915 0.699,-7.785 2.048,-11.42 h 61.584 c 1.348,3.635 2.049,7.505 2.049,11.42 z m 64.477,-16.514 h 32.179 c 5.879,0 10.662,4.783 10.662,10.662 v 57.121 c 0,5.885 -4.788,10.673 -10.673,10.673 h -32.168 z m 31.922,-38.202 c 27.595,0 50.045,22.45 50.045,50.046 v 53.855 c 0,27.589 -22.445,50.034 -50.034,50.034 h -31.933 v -17.277 h 32.168 c 16.913,0 30.673,-13.76 30.673,-30.673 v -57.121 c 0,-16.907 -13.755,-30.662 -30.662,-30.662 h -32.179 v -18.202 z m -4.04,228.39 -27.878,16.635 c -20.713,12.359 -44.41,18.893 -68.529,18.893 H 183.813 c -24.119,0 -47.816,-6.533 -68.529,-18.892 L 87.407,456.473 Z"
       id="path9" />
    <path
       d="m 226.468,43.453 c -3.848,-3.961 -10.18,-4.054 -14.141,-0.203 -15.304,14.253 -15.492,40.382 -0.396,54.854 7.415,7.093 7.13,19.988 -0.59,26.746 -4.074,3.729 -4.354,10.055 -0.624,14.128 3.736,4.082 10.065,4.346 14.128,0.624 16.062,-14.059 16.652,-40.886 1.229,-55.641 -7.258,-6.957 -7.167,-19.516 0.19,-26.367 3.961,-3.849 4.052,-10.179 0.204,-14.141 z"
       id="path11" />
    <path
       d="m 272.528,3.032 c -3.848,-3.961 -10.18,-4.054 -14.141,-0.203 -7.453,7.241 -11.599,16.952 -11.674,27.344 -0.075,10.392 3.931,20.162 11.279,27.511 3.906,3.905 10.237,3.905 14.143,0 3.905,-3.905 3.905,-10.237 0,-14.143 -7.259,-6.957 -7.168,-19.516 0.189,-26.368 3.962,-3.849 4.053,-10.179 0.204,-14.141 z"
       id="path13" />
    <path
       d="m 124.11,302.4 c 2.43,6.458 11.579,8.266 16.301,3.25 6.947,-6.903 0.588,-18.792 -9.021,-16.88 -6.016,1.041 -9.771,8.054 -7.28,13.63 z"
       id="path15" />
  </g>
</svg>
