<?xml version="1.0" encoding="UTF-8" standalone="no"?>
<!-- Created with Inkscape (http://www.inkscape.org/) -->

<svg
   width="144.65193mm"
   height="144.44774mm"
   viewBox="0 0 144.65193 144.44774"
   version="1.1"
   id="svg5"
   inkscape:version="1.1.1 (c3084ef, 2021-09-22)"
   sodipodi:docname="whiskey.svg"
   xmlns:inkscape="http://www.inkscape.org/namespaces/inkscape"
   xmlns:sodipodi="http://sodipodi.sourceforge.net/DTD/sodipodi-0.dtd"
   xmlns="http://www.w3.org/2000/svg"
   xmlns:svg="http://www.w3.org/2000/svg">
  <sodipodi:namedview
     id="namedview7"
     pagecolor="#ffffff"
     bordercolor="#666666"
     borderopacity="1.0"
     inkscape:pageshadow="2"
     inkscape:pageopacity="0.0"
     inkscape:pagecheckerboard="0"
     inkscape:document-units="mm"
     showgrid="false"
     inkscape:zoom="0.5499273"
     inkscape:cx="-600.98853"
     inkscape:cy="508.249"
     inkscape:window-width="3440"
     inkscape:window-height="1301"
     inkscape:window-x="0"
     inkscape:window-y="25"
     inkscape:window-maximized="0"
     inkscape:current-layer="layer1"
     fit-margin-top="0"
     fit-margin-left="0"
     fit-margin-right="0"
     fit-margin-bottom="0" />
  <defs
     id="defs2" />
  <g
     inkscape:label="Layer 1"
     inkscape:groupmode="layer"
     id="layer1"
     transform="translate(-32.579383,-81.606111)">
    <path
       style="fill:#000000;stroke-width:0.282222"
       d="m 55.798588,225.74396 c -4.332274,-1.19958 -7.134575,-4.32489 -7.878415,-8.78652 -0.15527,-0.93133 -3.67047,-31.26259 -7.81155,-67.4028 l -7.52924,-65.709468 0.55959,-0.75386 c 0.30777,-0.414623 0.86484,-0.910737 1.23793,-1.102477 0.99296,-0.510299 140.063747,-0.510299 141.056697,0 0.37309,0.19174 0.93021,0.687912 1.23804,1.102605 l 0.55968,0.753988 -3.56702,31.278232 c -1.96185,17.20303 -3.69744,31.74989 -3.85685,32.32635 -0.36594,1.32328 -1.20348,1.91521 -2.7099,1.91521 -0.97355,0 -1.31103,-0.1532 -1.91277,-0.86832 -0.44063,-0.52366 -0.73064,-1.21403 -0.73064,-1.73929 0,-0.87504 6.34821,-56.840193 6.6439,-58.571883 l 0.15795,-0.92506 -4.02098,0.0784 -4.02099,0.0784 -5.28134,46.143333 c -2.90474,25.37883 -5.48334,47.09583 -5.73023,48.26 -0.24689,1.16417 -0.95351,3.16984 -1.57027,4.45705 -2.91867,6.09149 -7.7154,10.04121 -14.54137,11.97365 l -2.25778,0.63918 H 104.90526 75.977476 l -2.257778,-0.63918 c -6.82597,-1.93244 -11.622695,-5.88216 -14.541373,-11.97365 -0.616754,-1.28721 -1.323373,-3.29288 -1.570264,-4.45705 -0.246892,-1.16417 -2.825496,-22.88117 -5.730232,-48.26 l -5.281336,-46.143333 -4.01131,-0.0783 -4.01131,-0.0783 0.16022,1.06611 c 0.0881,0.58636 3.4435,29.723263 7.45641,64.748663 5.560962,48.53708 7.413805,63.93039 7.790695,64.72463 0.271972,0.57314 1.005106,1.37998 1.629188,1.79299 l 1.134693,0.75093 47.716201,0.0772 c 43.32925,0.0701 47.82692,0.0353 48.9205,-0.37798 1.44666,-0.54673 2.458,-1.78788 2.85945,-3.50919 0.16291,-0.6985 1.38217,-10.922 2.70948,-22.71889 1.3273,-11.79689 2.54398,-21.93121 2.70373,-22.52071 0.85344,-3.14939 5.3397,-2.57077 5.3397,0.68869 0,2.17744 -5.07872,45.29081 -5.50386,46.72242 -0.86678,2.91876 -3.25141,5.47671 -6.26881,6.72442 -1.32616,0.54838 -2.22875,0.55948 -49.75177,0.61204 -37.905844,0.0419 -48.676498,-0.0227 -49.671112,-0.29812 z m 32.455554,-32.59983 c 0,-0.13626 -0.21787,-0.73951 -0.484155,-1.34055 -0.411466,-0.92873 -0.500073,-2.31102 -0.590164,-9.20669 -0.05831,-4.46264 -0.17014,-8.11389 -0.248522,-8.11389 -0.07838,0 -0.851382,0.20608 -1.717785,0.45795 -2.226225,0.64718 -4.621981,0.4039 -7.00524,-0.71137 -1.544035,-0.72254 -2.557707,-1.55116 -5.513632,-4.50708 -2.983023,-2.98303 -3.78351,-3.9652 -4.538779,-5.56898 -0.807584,-1.71485 -0.917612,-2.23342 -0.922138,-4.34607 -0.0046,-2.13525 0.09753,-2.61601 0.929106,-4.37445 0.780957,-1.65141 1.551751,-2.58946 4.697758,-5.71712 4.69819,-4.6708 5.806637,-5.28063 9.607996,-5.28597 1.396999,-0.002 2.857499,0.1067 3.245555,0.24149 0.41255,0.14329 -1.96079,-2.45035 -5.715,-6.24547 -3.531305,-3.56979 -6.424594,-6.60107 -6.42953,-6.73617 -0.0049,-0.1351 -0.185327,-0.47834 -0.400868,-0.76275 -0.374582,-0.49427 -0.508198,-0.4708 -3.024914,0.53131 -2.934422,1.16844 -7.892971,3.79062 -10.444079,5.52305 -1.671256,1.13493 -1.671848,1.13583 -1.509513,2.31461 0.08932,0.64859 1.178235,10.0668 2.419812,20.92938 1.241578,10.86256 2.383051,20.21671 2.536611,20.78698 1.688075,6.26904 7.197383,11.15206 13.649855,12.09817 2.057789,0.30173 11.457626,0.32931 11.457626,0.0336 z m 28.975468,-0.64428 c 2.0524,-1.35897 2.06898,-1.45981 2.06898,-12.58499 0,-9.79252 -0.005,-9.87084 -0.64172,-10.81618 -0.35294,-0.52374 -1.07682,-1.24547 -1.60862,-1.60384 l -0.9669,-0.6516 -10.17416,0.0804 c -14.054963,0.11111 -12.958587,-0.92945 -13.081175,12.41517 -0.09149,9.95885 0.01281,10.95367 1.298092,12.38258 1.430331,1.59016 2.056081,1.6701 12.495723,1.59632 l 9.47568,-0.067 z m 17.87342,0.18051 c 5.74118,-1.7765 10.07588,-6.14999 11.55915,-11.66259 0.15264,-0.56729 0.78833,-5.53994 1.41266,-11.05032 0.62432,-5.51039 1.20273,-10.39986 1.28537,-10.86549 0.12488,-0.70369 -1.10157,0.39889 -7.26514,6.53136 -4.35971,4.33771 -7.88055,7.60958 -8.54426,7.94004 -2.28443,1.13745 -4.64828,1.36624 -7.69055,0.74435 l -0.91723,-0.18749 -0.0124,8.14917 c -0.01,6.3604 -0.10166,8.39696 -0.41908,9.27805 -0.72659,2.01684 -0.94038,1.92968 4.31203,1.75786 3.27421,-0.10711 5.20432,-0.30227 6.27944,-0.63494 z M 84.808163,169.14577 c 1.109594,-0.57166 6.800669,-6.20916 7.373439,-7.30403 0.477893,-0.9135 0.438777,-3.21982 -0.07096,-4.18371 -0.620225,-1.17282 -6.673166,-7.08077 -7.614318,-7.43193 -1.460365,-0.54488 -3.090257,-0.35858 -4.441929,0.50772 -1.688273,1.08203 -6.407404,6.01876 -6.915175,7.23402 -0.481683,1.15283 -0.520127,2.34713 -0.110869,3.44401 0.329114,0.88207 6.133651,6.89891 7.464679,7.73771 1.09367,0.68921 2.973208,0.68756 4.315132,-0.004 z m 45.690387,-0.32472 c 1.064,-0.40141 14.15513,-13.42509 14.65394,-14.57843 0.21602,-0.49949 0.39276,-1.36081 0.39276,-1.91406 0,-0.55325 -0.17674,-1.41458 -0.39276,-1.91407 -0.49881,-1.15334 -13.58994,-14.17701 -14.65394,-14.57842 -1.11274,-0.4198 -2.29267,-0.37343 -3.51847,0.13828 -1.4088,0.5881 -13.70191,12.82487 -14.46349,14.3972 -0.70222,1.44978 -0.70229,2.46394 -2.7e-4,3.91402 0.70611,1.45852 13.0935,13.81634 14.43155,14.3971 1.14505,0.49698 2.4639,0.54838 3.55068,0.13838 z M 109.545,159.73689 c -0.73657,-0.81492 -1.71973,-2.2902 -2.18479,-3.2784 -0.71661,-1.52273 -0.84778,-2.14781 -0.86011,-4.09884 -0.0128,-2.0217 0.0966,-2.5396 0.89787,-4.25191 0.7979,-1.70508 1.62339,-2.66619 6.57719,-7.65779 l 5.66477,-5.70799 -1.65234,-0.32503 c -0.90878,-0.17877 -1.83141,-0.38485 -2.0503,-0.45796 -0.24262,-0.081 -3.119,2.56833 -7.36935,6.78777 -7.48088,7.42647 -8.37141,8.08575 -11.623182,8.60491 -1.41048,0.22519 -3.627567,0.0293 -4.880616,-0.43113 -0.310445,-0.11408 0.529813,0.92356 1.867238,2.30586 3.057168,3.15976 3.925008,4.79557 4.129878,7.78445 l 0.15132,2.20773 h 6.335822 6.33583 z m 41.91145,-19.26618 c 0.47806,-4.18852 0.93401,-8.01302 1.01323,-8.4989 l 0.14402,-0.88342 -3.60478,1.21302 c -1.98263,0.66716 -4.93828,1.48407 -6.56811,1.81535 -1.62983,0.33128 -3.26929,0.6667 -3.64324,0.74538 -0.61106,0.12856 -0.10715,0.72004 4.97664,5.8414 3.1111,3.13409 5.87117,6.1229 6.13349,6.6418 0.26232,0.5189 0.52254,0.89787 0.57825,0.84215 0.0557,-0.0557 0.49244,-3.52826 0.9705,-7.71678 z m -54.606392,3.21903 c 0.89568,-0.24867 2.22454,-1.40529 6.706212,-5.837 3.07405,-3.03978 5.49239,-5.61232 5.37409,-5.71676 -0.44111,-0.38942 -7.63859,-2.82798 -9.920602,-3.36118 -3.849176,-0.89936 -7.705212,-1.2338 -12.025616,-1.043 -3.881213,0.17141 -7.820945,0.71474 -8.243,1.1368 -0.117788,0.11779 3.025262,3.43315 6.98456,7.36747 8.070132,8.01923 8.368111,8.21888 11.124356,7.45367 z M 59.148337,130.628 c 2.38736,-1.43804 6.895171,-3.62052 9.96136,-4.82284 l 2.727777,-1.06963 0.32747,-1.30237 c 0.180112,-0.71631 0.647731,-1.89127 1.03916,-2.61103 0.861398,-1.58395 15.843226,-16.58244 17.307815,-17.32707 1.354413,-0.68861 3.581739,-1.25424 4.938889,-1.25424 1.35715,0 3.58448,0.56563 4.938892,1.25424 0.54328,0.27622 4.51872,4.01075 8.83431,8.29897 9.4182,9.35846 9.63675,9.68093 9.67427,14.27431 l 0.023,2.8189 2.23476,0.37997 c 3.0434,0.51746 12.53664,0.5799 15.92253,0.10472 5.1687,-0.72538 10.44841,-2.19689 14.37338,-4.00603 l 1.86732,-0.8607 2.11848,-18.54388 2.11847,-18.543873 -26.32549,-0.072 c -14.47903,-0.0396 -38.17334,-0.0396 -52.654021,0 l -26.328513,0.072 2.470597,21.448893 c 1.358828,11.79689 2.475159,21.73464 2.480736,22.08389 0.0056,0.34925 0.08878,0.635 0.184889,0.635 0.09611,0 0.889862,-0.43076 1.763889,-0.95723 z m 54.223583,-4.70123 c 0,-0.78382 -0.18117,-1.76807 -0.40261,-2.18723 -0.61142,-1.15734 -14.864292,-15.21921 -15.772982,-15.56161 -1.12102,-0.42241 -2.636902,-0.37159 -3.679933,0.12336 -0.489955,0.2325 -4.065148,3.61264 -7.944874,7.51143 l -7.054045,7.0887 1.411111,-0.18601 c 6.527881,-0.86052 10.701987,-0.94307 15.486821,-0.30627 3.98857,0.53082 7.513772,1.46438 12.735402,3.37265 2.32834,0.8509 4.45559,1.55227 4.72722,1.5586 0.40669,0.009 0.49389,-0.24012 0.49389,-1.41362 z m -31.75,88.6529 c -1.758165,-0.73733 -2.228582,-3.14193 -0.878738,-4.49177 l 0.750454,-0.75046 h 9.582728 9.582726 l 0.75046,0.75046 c 1.05204,1.05204 1.0522,2.80897 2.8e-4,3.86131 l -0.75004,0.75046 -9.236716,0.0583 c -5.080189,0.0321 -9.49071,-0.0482 -9.801154,-0.17835 z m 28.49761,-0.12186 c -2.12583,-0.95362 -1.95676,-4.23807 0.25574,-4.96826 1.94087,-0.64054 3.68938,0.56557 3.68938,2.54491 0,2.0016 -2.06189,3.26815 -3.94512,2.42335 z m 53.74846,-53.21754 c -0.64699,-0.647 -0.82496,-1.07786 -0.82496,-1.99727 0,-3.22629 4.66475,-3.95675 5.31735,-0.83265 0.28936,1.3852 0.11549,2.09617 -0.71595,2.92762 -1.05206,1.05206 -2.6685,1.01024 -3.77644,-0.0977 z"
       id="path405" />
  </g>
</svg>
