<?xml version="1.0" encoding="UTF-8" standalone="no"?>
<svg
   height="511.99902pt"
   viewBox="-140 0 231.77893 512.00002"
   width="231.77893pt"
   version="1.1"
   id="svg1458"
   sodipodi:docname="wine.svg"
   inkscape:version="1.1.1 (c3084ef, 2021-09-22)"
   xmlns:inkscape="http://www.inkscape.org/namespaces/inkscape"
   xmlns:sodipodi="http://sodipodi.sourceforge.net/DTD/sodipodi-0.dtd"
   xmlns="http://www.w3.org/2000/svg"
   xmlns:svg="http://www.w3.org/2000/svg">
  <defs
     id="defs1462" />
  <sodipodi:namedview
     id="namedview1460"
     pagecolor="#ffffff"
     bordercolor="#666666"
     borderopacity="1.0"
     inkscape:pageshadow="2"
     inkscape:pageopacity="0.0"
     inkscape:pagecheckerboard="0"
     inkscape:document-units="pt"
     showgrid="false"
     inkscape:zoom="0.31970215"
     inkscape:cx="48.482627"
     inkscape:cy="398.8087"
     inkscape:window-width="1296"
     inkscape:window-height="1081"
     inkscape:window-x="0"
     inkscape:window-y="25"
     inkscape:window-maximized="0"
     inkscape:current-layer="svg1458"
     inkscape:lockguides="true" />
  <path
     d="M 9.5224508,306.04297 C 52.686511,277.99219 81.905261,232.71875 89.686511,181.83203 c 3.58594,-23.4414 2.55859,-47.01172 -3.05078,-70.05469 L 61.284171,7.636719 C 60.194321,3.152344 56.178701,0 51.565421,0 H -99.790051 c -4.613279,0 -8.624999,3.152344 -9.714849,7.636719 l -25.35156,104.140621 c -5.60937,23.04297 -6.63672,46.61329 -3.05469,70.0586 7.78125,50.88672 37,96.15625 80.167973,124.20703 l 23.632818,15.35547 v 132.75 l -77.820321,38.90625 c -4.14843,2.07422 -6.32422,6.73047 -5.25781,11.24219 1.06641,4.51562 5.09375,7.70312 9.73047,7.70312 H 59.233381 c 4.63672,0 8.66797,-3.1875 9.73047,-7.70313 1.06641,-4.51171 -1.10937,-9.16406 -5.25781,-11.24218 l -77.8164,-38.90625 v -132.75 z M -91.930677,20 H 43.709951 l 20.48437,84.14453 H -112.41505 Z m -26.207033,158.80859 c -2.79297,-18.26562 -2.4375,-36.61718 1.04688,-54.66406 H 68.866201 c 3.48828,18.04688 3.84375,36.39844 1.05078,54.66406 -6.91797,45.25782 -32.90625,85.51953 -71.2929702,110.46485 l -22.7343698,14.77343 -22.73438,-14.77343 C -85.235364,264.32812 -111.21974,224.06641 -118.13771,178.80859 Z M -65.094739,492 -24.110359,471.50781 16.874011,492 Z m 0,0"
     id="path1452" />
  <path
     d="m -2.2666192,262.35156 c 2.35938002,0 4.72657,-0.83203 6.62891,-2.51562 21.5507802,-19.10547 36.5507802,-43.98047 43.3828102,-71.94141 1.3125,-5.36328 -1.97265,-10.77734 -7.33984,-12.08594 -5.36719,-1.30859 -10.77734,1.97657 -12.08594,7.33985 -5.86328,23.98828 -18.7343702,45.33203 -37.2226502,61.71875 -4.1328198,3.66406 -4.5117198,9.98437 -0.84766,14.11718 1.97266,2.23047 4.72266,3.36719 7.48437,3.36719 z m 0,0"
     id="path1454" />
  <path
     d="m 41.389631,157.46094 c 2.62891,0 5.20704,-1.0625 7.07032,-2.92188 1.85937,-1.86719 2.92968,-4.4375 2.92968,-7.07812 0,-2.63282 -1.07031,-5.21094 -2.92968,-7.07032 -1.86328,-1.85937 -4.44141,-2.92968 -7.07032,-2.92968 -2.63281,0 -5.21093,1.07031 -7.07031,2.92968 -1.85937,1.85938 -2.92969,4.4375 -2.92969,7.07032 0,2.64062 1.07032,5.21093 2.92969,7.07812 1.85938,1.85938 4.4375,2.92188 7.07031,2.92188 z m 0,0"
     id="path1456" />
</svg>
